<?xml version="1.0" encoding="UTF-8"?>
<svg xmlns="http://www.w3.org/2000/svg" xmlns:xlink="http://www.w3.org/1999/xlink" width="39pt" height="38.999999pt" viewBox="0 0 39 38.999999" version="1.2">
<defs>
<clipPath id="clip1">
  <path d="M 3.898438 17 L 35.398438 17 L 35.398438 32.125 L 3.898438 32.125 Z M 3.898438 17 "/>
</clipPath>
<clipPath id="clip2">
  <path d="M 8 6.625 L 31 6.625 L 31 25 L 8 25 Z M 8 6.625 "/>
</clipPath>
</defs>
<g id="surface1">
<path style=" stroke:none;fill-rule:nonzero;fill:rgb(22.349548%,20.779419%,21.179199%);fill-opacity:1;" d="M 19.5 0 C 18.863281 0 18.222656 0.03125 17.589844 0.09375 C 16.953125 0.15625 16.320312 0.25 15.695312 0.375 C 15.070312 0.5 14.449219 0.652344 13.839844 0.839844 C 13.226562 1.023438 12.628906 1.238281 12.039062 1.484375 C 11.449219 1.730469 10.871094 2 10.308594 2.300781 C 9.746094 2.605469 9.199219 2.929688 8.667969 3.285156 C 8.136719 3.640625 7.621094 4.019531 7.128906 4.425781 C 6.636719 4.832031 6.164062 5.261719 5.710938 5.710938 C 5.261719 6.164062 4.832031 6.636719 4.425781 7.128906 C 4.019531 7.621094 3.640625 8.136719 3.285156 8.667969 C 2.929688 9.199219 2.605469 9.746094 2.300781 10.308594 C 2 10.871094 1.730469 11.449219 1.484375 12.039062 C 1.238281 12.628906 1.023438 13.226562 0.839844 13.839844 C 0.652344 14.449219 0.5 15.070312 0.375 15.695312 C 0.25 16.320312 0.15625 16.953125 0.09375 17.589844 C 0.03125 18.222656 0 18.863281 0 19.5 C 0 20.136719 0.03125 20.777344 0.09375 21.410156 C 0.15625 22.046875 0.25 22.679688 0.375 23.304688 C 0.5 23.929688 0.652344 24.550781 0.839844 25.160156 C 1.023438 25.773438 1.238281 26.371094 1.484375 26.960938 C 1.730469 27.550781 2 28.128906 2.300781 28.691406 C 2.605469 29.253906 2.929688 29.800781 3.285156 30.332031 C 3.640625 30.863281 4.019531 31.378906 4.425781 31.871094 C 4.832031 32.363281 5.261719 32.835938 5.710938 33.289062 C 6.164062 33.738281 6.636719 34.167969 7.128906 34.574219 C 7.621094 34.980469 8.136719 35.359375 8.667969 35.714844 C 9.199219 36.070312 9.746094 36.394531 10.308594 36.699219 C 10.871094 37 11.449219 37.269531 12.039062 37.515625 C 12.628906 37.761719 13.226562 37.976562 13.839844 38.160156 C 14.449219 38.347656 15.070312 38.5 15.695312 38.625 C 16.320312 38.75 16.953125 38.84375 17.589844 38.90625 C 18.222656 38.96875 18.863281 39 19.5 39 C 20.136719 39 20.777344 38.96875 21.410156 38.90625 C 22.046875 38.84375 22.679688 38.75 23.304688 38.625 C 23.929688 38.5 24.550781 38.347656 25.160156 38.160156 C 25.773438 37.976562 26.371094 37.761719 26.960938 37.515625 C 27.550781 37.269531 28.128906 37 28.691406 36.699219 C 29.253906 36.394531 29.800781 36.070312 30.332031 35.714844 C 30.863281 35.359375 31.378906 34.980469 31.871094 34.574219 C 32.363281 34.167969 32.835938 33.738281 33.289062 33.289062 C 33.738281 32.835938 34.167969 32.363281 34.574219 31.871094 C 34.980469 31.378906 35.359375 30.863281 35.714844 30.332031 C 36.070312 29.800781 36.394531 29.253906 36.699219 28.691406 C 37 28.128906 37.269531 27.550781 37.515625 26.960938 C 37.761719 26.371094 37.976562 25.773438 38.160156 25.160156 C 38.347656 24.550781 38.5 23.929688 38.625 23.304688 C 38.75 22.679688 38.84375 22.046875 38.90625 21.410156 C 38.96875 20.777344 39 20.136719 39 19.5 C 39 18.863281 38.96875 18.222656 38.90625 17.589844 C 38.84375 16.953125 38.75 16.320312 38.625 15.695312 C 38.5 15.070312 38.347656 14.449219 38.160156 13.839844 C 37.976562 13.226562 37.761719 12.628906 37.515625 12.039062 C 37.269531 11.449219 37 10.871094 36.699219 10.308594 C 36.394531 9.746094 36.070312 9.199219 35.714844 8.667969 C 35.359375 8.136719 34.980469 7.621094 34.574219 7.128906 C 34.167969 6.636719 33.738281 6.164062 33.289062 5.710938 C 32.835938 5.261719 32.363281 4.832031 31.871094 4.425781 C 31.378906 4.019531 30.863281 3.640625 30.332031 3.285156 C 29.800781 2.929688 29.253906 2.605469 28.691406 2.300781 C 28.128906 2 27.550781 1.730469 26.960938 1.484375 C 26.371094 1.238281 25.773438 1.023438 25.160156 0.839844 C 24.550781 0.652344 23.929688 0.5 23.304688 0.375 C 22.679688 0.25 22.046875 0.15625 21.410156 0.09375 C 20.777344 0.03125 20.136719 0 19.5 0 Z M 19.5 0 "/>
<g clip-path="url(#clip1)" clip-rule="nonzero">
<path style=" stroke:none;fill-rule:nonzero;fill:rgb(100%,100%,100%);fill-opacity:1;" d="M 35.328125 23.644531 L 35.308594 22.671875 C 35.320312 22.53125 35.328125 22.386719 35.328125 22.246094 C 35.328125 20.554688 34.320312 18.984375 32.59375 17.683594 L 32.59375 20.121094 C 32.59375 23.707031 26.796875 26.613281 19.640625 26.613281 C 12.488281 26.613281 6.6875 23.707031 6.6875 20.121094 L 6.6875 17.691406 C 5.082031 18.902344 4.101562 20.351562 3.980469 21.914062 L 3.960938 21.914062 L 3.960938 24.253906 L 3.972656 24.253906 C 4.1875 28.621094 11.121094 32.128906 19.644531 32.128906 C 28.308594 32.128906 35.328125 28.511719 35.328125 24.042969 C 35.328125 23.863281 35.351562 23.820312 35.328125 23.644531 Z M 35.328125 23.644531 "/>
</g>
<g clip-path="url(#clip2)" clip-rule="nonzero">
<path style=" stroke:none;fill-rule:nonzero;fill:rgb(100%,100%,100%);fill-opacity:1;" d="M 19.644531 24.363281 C 25.683594 24.363281 30.578125 21.839844 30.578125 18.726562 L 30.578125 12.253906 C 30.578125 9.140625 25.683594 6.617188 19.644531 6.617188 C 13.605469 6.617188 8.710938 9.140625 8.710938 12.253906 L 8.710938 18.726562 C 8.710938 21.839844 13.605469 24.363281 19.644531 24.363281 Z M 24.828125 10.898438 C 24.828125 10.824219 24.851562 10.761719 24.894531 10.714844 C 24.9375 10.664062 25.003906 10.632812 25.097656 10.609375 C 25.191406 10.589844 25.308594 10.578125 25.453125 10.578125 L 28.140625 10.578125 C 28.304688 10.578125 28.425781 10.597656 28.503906 10.632812 C 28.582031 10.671875 28.621094 10.71875 28.621094 10.777344 C 28.621094 10.839844 28.582031 10.886719 28.503906 10.925781 C 28.425781 10.960938 28.304688 10.980469 28.140625 10.980469 L 25.847656 10.980469 L 25.847656 11.617188 L 27.960938 11.617188 C 28.113281 11.617188 28.230469 11.632812 28.308594 11.667969 C 28.386719 11.707031 28.421875 11.753906 28.421875 11.8125 C 28.421875 11.871094 28.386719 11.917969 28.308594 11.957031 C 28.234375 11.992188 28.117188 12.011719 27.960938 12.011719 L 25.847656 12.011719 L 25.847656 12.746094 L 28.21875 12.746094 C 28.378906 12.746094 28.5 12.765625 28.582031 12.800781 C 28.664062 12.839844 28.703125 12.890625 28.703125 12.953125 C 28.703125 13 28.675781 13.035156 28.632812 13.070312 C 28.613281 13.082031 28.605469 13.09375 28.582031 13.105469 C 28.5 13.140625 28.378906 13.160156 28.21875 13.160156 L 25.453125 13.160156 C 25.230469 13.160156 25.074219 13.136719 24.976562 13.085938 C 24.878906 13.035156 24.828125 12.953125 24.828125 12.839844 Z M 20.261719 10.636719 C 20.351562 10.597656 20.476562 10.578125 20.644531 10.578125 L 23.882812 10.578125 C 24.054688 10.578125 24.1875 10.597656 24.273438 10.636719 C 24.359375 10.675781 24.402344 10.730469 24.402344 10.792969 C 24.402344 10.859375 24.359375 10.910156 24.269531 10.949219 C 24.183594 10.988281 24.054688 11.007812 23.882812 11.007812 L 22.769531 11.007812 L 22.769531 12.886719 C 22.769531 12.914062 22.765625 12.941406 22.757812 12.964844 C 22.742188 13.035156 22.699219 13.085938 22.628906 13.125 C 22.535156 13.179688 22.414062 13.203125 22.265625 13.203125 C 22.113281 13.203125 21.992188 13.179688 21.898438 13.125 C 21.847656 13.097656 21.8125 13.0625 21.789062 13.023438 C 21.765625 12.984375 21.753906 12.9375 21.753906 12.886719 L 21.753906 11.007812 L 20.644531 11.007812 C 20.46875 11.007812 20.339844 10.988281 20.257812 10.949219 C 20.171875 10.910156 20.128906 10.859375 20.128906 10.792969 C 20.128906 10.726562 20.171875 10.675781 20.261719 10.636719 Z M 15.433594 11.316406 C 15.542969 11.148438 15.703125 11.007812 15.914062 10.890625 C 16.125 10.777344 16.378906 10.6875 16.679688 10.625 C 16.984375 10.5625 17.328125 10.53125 17.710938 10.53125 C 18.230469 10.53125 18.679688 10.585938 19.050781 10.695312 C 19.425781 10.804688 19.707031 10.960938 19.902344 11.160156 C 20.09375 11.359375 20.1875 11.59375 20.1875 11.867188 C 20.1875 12.066406 20.136719 12.246094 20.03125 12.410156 C 19.925781 12.574219 19.769531 12.714844 19.558594 12.835938 C 19.375 12.9375 19.160156 13.019531 18.910156 13.078125 C 18.867188 13.089844 18.828125 13.101562 18.785156 13.109375 C 18.476562 13.171875 18.125 13.203125 17.730469 13.203125 C 17.335938 13.203125 16.984375 13.171875 16.675781 13.105469 C 16.472656 13.0625 16.292969 13.007812 16.132812 12.945312 C 16.050781 12.910156 15.96875 12.871094 15.894531 12.832031 C 15.6875 12.710938 15.53125 12.570312 15.425781 12.402344 C 15.320312 12.234375 15.265625 12.054688 15.265625 11.863281 C 15.265625 11.664062 15.320312 11.480469 15.433594 11.316406 Z M 10.738281 11.042969 C 10.71875 11.011719 10.695312 10.980469 10.675781 10.953125 C 10.652344 10.921875 10.632812 10.890625 10.621094 10.855469 C 10.605469 10.824219 10.597656 10.792969 10.597656 10.769531 C 10.597656 10.710938 10.644531 10.65625 10.738281 10.605469 C 10.832031 10.558594 10.949219 10.53125 11.089844 10.53125 C 11.265625 10.53125 11.386719 10.558594 11.460938 10.613281 C 11.53125 10.667969 11.605469 10.757812 11.679688 10.875 L 12.816406 12.609375 L 13.960938 10.863281 C 14.019531 10.773438 14.0625 10.707031 14.09375 10.671875 C 14.121094 10.636719 14.171875 10.605469 14.238281 10.574219 C 14.308594 10.546875 14.402344 10.53125 14.523438 10.53125 C 14.609375 10.53125 14.691406 10.542969 14.765625 10.566406 C 14.835938 10.589844 14.894531 10.617188 14.9375 10.65625 C 14.980469 10.691406 15.003906 10.730469 15.003906 10.765625 C 15.003906 10.792969 14.996094 10.820312 14.980469 10.851562 C 14.96875 10.882812 14.949219 10.910156 14.929688 10.9375 C 14.910156 10.96875 14.890625 10.996094 14.867188 11.027344 L 13.652344 12.714844 C 13.644531 12.726562 13.636719 12.738281 13.628906 12.75 C 13.59375 12.800781 13.558594 12.851562 13.519531 12.902344 C 13.476562 12.957031 13.425781 13.007812 13.371094 13.054688 C 13.3125 13.097656 13.238281 13.132812 13.140625 13.160156 C 13.046875 13.191406 12.933594 13.203125 12.792969 13.203125 C 12.65625 13.203125 12.542969 13.191406 12.445312 13.164062 C 12.351562 13.136719 12.273438 13.097656 12.214844 13.054688 C 12.15625 13.007812 12.105469 12.957031 12.0625 12.898438 C 12.019531 12.84375 11.976562 12.78125 11.933594 12.714844 L 11.839844 12.582031 Z M 10.738281 11.042969 "/>
</g>
<path style=" stroke:none;fill-rule:nonzero;fill:rgb(100%,100%,100%);fill-opacity:1;" d="M 16.710938 12.554688 C 16.84375 12.632812 16.992188 12.691406 17.164062 12.730469 C 17.332031 12.769531 17.519531 12.789062 17.722656 12.789062 C 17.984375 12.789062 18.222656 12.753906 18.441406 12.6875 C 18.660156 12.621094 18.835938 12.519531 18.960938 12.378906 C 19.09375 12.238281 19.15625 12.066406 19.15625 11.863281 C 19.15625 11.671875 19.097656 11.507812 18.976562 11.371094 C 18.859375 11.230469 18.691406 11.125 18.46875 11.054688 C 18.25 10.984375 17.996094 10.949219 17.710938 10.949219 C 17.507812 10.949219 17.320312 10.96875 17.144531 11.007812 C 16.972656 11.046875 16.824219 11.105469 16.699219 11.179688 C 16.574219 11.253906 16.476562 11.351562 16.40625 11.46875 C 16.332031 11.582031 16.296875 11.714844 16.296875 11.863281 C 16.296875 12.007812 16.332031 12.140625 16.40625 12.257812 C 16.476562 12.378906 16.582031 12.476562 16.710938 12.554688 Z M 16.710938 12.554688 "/>
</g>
</svg>
