<?xml version="1.0" encoding="UTF-8"?>
<svg xmlns="http://www.w3.org/2000/svg" xmlns:xlink="http://www.w3.org/1999/xlink" width="39pt" height="38.999999pt" viewBox="0 0 39 38.999999" version="1.2">
<defs>
<clipPath id="clip1">
  <path d="M 3.898438 11 L 35.398438 11 L 35.398438 28 L 3.898438 28 Z M 3.898438 11 "/>
</clipPath>
<clipPath id="clip2">
  <path d="M 8 25 L 31 25 L 31 32.644531 L 8 32.644531 Z M 8 25 "/>
</clipPath>
<clipPath id="clip3">
  <path d="M 8 6.394531 L 31 6.394531 L 31 14 L 8 14 Z M 8 6.394531 "/>
</clipPath>
</defs>
<g id="surface1">
<path style=" stroke:none;fill-rule:nonzero;fill:rgb(22.349548%,20.779419%,21.179199%);fill-opacity:1;" d="M 19.5 0 C 18.863281 0 18.222656 0.03125 17.589844 0.09375 C 16.953125 0.15625 16.320312 0.25 15.695312 0.375 C 15.070312 0.5 14.449219 0.65625 13.839844 0.839844 C 13.226562 1.023438 12.628906 1.238281 12.039062 1.484375 C 11.449219 1.730469 10.871094 2 10.308594 2.300781 C 9.746094 2.605469 9.199219 2.929688 8.667969 3.285156 C 8.136719 3.640625 7.621094 4.019531 7.128906 4.425781 C 6.636719 4.832031 6.164062 5.261719 5.710938 5.710938 C 5.261719 6.164062 4.832031 6.636719 4.425781 7.128906 C 4.019531 7.621094 3.640625 8.136719 3.285156 8.667969 C 2.929688 9.199219 2.605469 9.746094 2.300781 10.308594 C 2 10.871094 1.730469 11.449219 1.484375 12.039062 C 1.238281 12.628906 1.023438 13.226562 0.839844 13.839844 C 0.652344 14.449219 0.5 15.070312 0.375 15.695312 C 0.25 16.320312 0.15625 16.953125 0.09375 17.589844 C 0.03125 18.222656 0 18.863281 0 19.5 C 0 20.140625 0.03125 20.777344 0.09375 21.410156 C 0.15625 22.046875 0.25 22.679688 0.375 23.304688 C 0.5 23.929688 0.652344 24.550781 0.839844 25.160156 C 1.023438 25.773438 1.238281 26.371094 1.484375 26.960938 C 1.730469 27.550781 2 28.128906 2.300781 28.691406 C 2.605469 29.253906 2.929688 29.800781 3.285156 30.332031 C 3.640625 30.863281 4.019531 31.378906 4.425781 31.871094 C 4.832031 32.363281 5.261719 32.835938 5.710938 33.289062 C 6.164062 33.738281 6.636719 34.167969 7.128906 34.574219 C 7.621094 34.980469 8.136719 35.359375 8.667969 35.714844 C 9.199219 36.070312 9.746094 36.394531 10.308594 36.699219 C 10.871094 37 11.449219 37.269531 12.039062 37.515625 C 12.628906 37.761719 13.226562 37.976562 13.839844 38.160156 C 14.449219 38.347656 15.070312 38.5 15.695312 38.625 C 16.320312 38.75 16.953125 38.84375 17.589844 38.90625 C 18.222656 38.96875 18.863281 39 19.5 39 C 20.136719 39 20.777344 38.96875 21.410156 38.90625 C 22.046875 38.84375 22.679688 38.75 23.304688 38.625 C 23.929688 38.5 24.550781 38.347656 25.160156 38.160156 C 25.773438 37.976562 26.371094 37.761719 26.960938 37.515625 C 27.550781 37.269531 28.128906 37 28.691406 36.699219 C 29.253906 36.394531 29.800781 36.070312 30.332031 35.714844 C 30.863281 35.359375 31.378906 34.980469 31.871094 34.574219 C 32.363281 34.167969 32.835938 33.738281 33.289062 33.289062 C 33.738281 32.835938 34.167969 32.363281 34.574219 31.871094 C 34.980469 31.378906 35.359375 30.863281 35.714844 30.332031 C 36.070312 29.800781 36.394531 29.253906 36.699219 28.691406 C 37 28.128906 37.269531 27.550781 37.515625 26.960938 C 37.761719 26.371094 37.976562 25.773438 38.160156 25.160156 C 38.347656 24.550781 38.5 23.929688 38.625 23.304688 C 38.75 22.679688 38.84375 22.046875 38.90625 21.410156 C 38.96875 20.777344 39 20.140625 39 19.5 C 39 18.863281 38.96875 18.222656 38.90625 17.589844 C 38.84375 16.953125 38.75 16.320312 38.625 15.695312 C 38.5 15.070312 38.347656 14.449219 38.160156 13.839844 C 37.976562 13.226562 37.761719 12.628906 37.515625 12.039062 C 37.269531 11.449219 37 10.871094 36.699219 10.308594 C 36.394531 9.746094 36.070312 9.199219 35.714844 8.667969 C 35.359375 8.136719 34.980469 7.621094 34.574219 7.128906 C 34.167969 6.636719 33.738281 6.164062 33.289062 5.710938 C 32.835938 5.261719 32.363281 4.832031 31.871094 4.425781 C 31.378906 4.019531 30.863281 3.640625 30.332031 3.285156 C 29.800781 2.929688 29.253906 2.605469 28.691406 2.300781 C 28.128906 2 27.550781 1.730469 26.960938 1.484375 C 26.371094 1.238281 25.773438 1.023438 25.160156 0.839844 C 24.550781 0.65625 23.929688 0.5 23.304688 0.375 C 22.679688 0.25 22.046875 0.15625 21.410156 0.09375 C 20.777344 0.03125 20.136719 0 19.5 0 Z M 19.5 0 "/>
<g clip-path="url(#clip1)" clip-rule="nonzero">
<path style=" stroke:none;fill-rule:nonzero;fill:rgb(63.139343%,74.899292%,9.408569%);fill-opacity:1;" d="M 31.621094 27.644531 L 7.679688 27.644531 C 5.597656 27.644531 3.902344 25.964844 3.902344 23.894531 L 3.902344 15.144531 C 3.902344 13.078125 5.597656 11.394531 7.679688 11.394531 L 31.621094 11.394531 C 33.703125 11.394531 35.398438 13.078125 35.398438 15.144531 L 35.398438 23.894531 C 35.398438 25.964844 33.703125 27.644531 31.621094 27.644531 Z M 7.679688 13.894531 C 6.984375 13.894531 6.421875 14.457031 6.421875 15.144531 L 6.421875 23.894531 C 6.421875 24.585938 6.984375 25.144531 7.679688 25.144531 L 31.621094 25.144531 C 32.316406 25.144531 32.878906 24.585938 32.878906 23.894531 L 32.878906 15.144531 C 32.878906 14.457031 32.316406 13.894531 31.621094 13.894531 Z M 7.679688 13.894531 "/>
</g>
<g clip-path="url(#clip2)" clip-rule="nonzero">
<path style=" stroke:none;fill-rule:nonzero;fill:rgb(63.139343%,74.899292%,9.408569%);fill-opacity:1;" d="M 19.648438 32.644531 C 15.371094 32.644531 11.335938 30.578125 8.859375 27.121094 C 8.457031 26.558594 8.589844 25.777344 9.15625 25.378906 C 9.722656 24.976562 10.507812 25.109375 10.914062 25.671875 C 12.917969 28.472656 16.183594 30.144531 19.648438 30.144531 C 23.113281 30.144531 26.378906 28.472656 28.386719 25.671875 C 28.789062 25.109375 29.574219 24.976562 30.144531 25.378906 C 30.710938 25.777344 30.847656 26.558594 30.441406 27.121094 C 27.964844 30.578125 23.929688 32.644531 19.648438 32.644531 Z M 19.648438 32.644531 "/>
</g>
<g clip-path="url(#clip3)" clip-rule="nonzero">
<path style=" stroke:none;fill-rule:nonzero;fill:rgb(63.139343%,74.899292%,9.408569%);fill-opacity:1;" d="M 29.414062 13.894531 C 29.023438 13.894531 28.632812 13.714844 28.386719 13.371094 C 26.378906 10.570312 23.113281 8.894531 19.648438 8.894531 C 16.183594 8.894531 12.917969 10.570312 10.914062 13.371094 C 10.507812 13.933594 9.722656 14.066406 9.15625 13.664062 C 8.585938 13.265625 8.457031 12.484375 8.859375 11.921875 C 11.335938 8.460938 15.371094 6.394531 19.648438 6.394531 C 23.929688 6.394531 27.964844 8.460938 30.441406 11.921875 C 30.84375 12.484375 30.710938 13.265625 30.144531 13.664062 C 29.921875 13.820312 29.667969 13.894531 29.414062 13.894531 Z M 29.414062 13.894531 "/>
</g>
<path style=" stroke:none;fill-rule:nonzero;fill:rgb(87.059021%,0%,16.468811%);fill-opacity:1;" d="M 10.199219 22.644531 C 9.84375 22.644531 9.515625 22.445312 9.355469 22.128906 L 7.148438 17.753906 C 6.914062 17.289062 7.105469 16.726562 7.574219 16.496094 C 8.042969 16.261719 8.605469 16.449219 8.839844 16.914062 L 10.199219 19.613281 L 11.558594 16.914062 C 11.792969 16.453125 12.359375 16.265625 12.828125 16.496094 C 13.292969 16.730469 13.484375 17.292969 13.25 17.753906 L 11.046875 22.128906 C 10.886719 22.445312 10.558594 22.644531 10.199219 22.644531 Z M 10.199219 22.644531 "/>
<path style=" stroke:none;fill-rule:nonzero;fill:rgb(87.059021%,0%,16.468811%);fill-opacity:1;" d="M 17.128906 22.644531 C 15.742188 22.644531 14.609375 21.523438 14.609375 20.144531 L 14.609375 18.894531 C 14.609375 17.515625 15.742188 16.394531 17.128906 16.394531 C 18.519531 16.394531 19.648438 17.515625 19.648438 18.894531 L 19.648438 20.144531 C 19.648438 21.523438 18.519531 22.644531 17.128906 22.644531 Z M 17.128906 18.269531 C 16.785156 18.269531 16.5 18.550781 16.5 18.894531 L 16.5 20.144531 C 16.5 20.492188 16.785156 20.769531 17.128906 20.769531 C 17.476562 20.769531 17.761719 20.492188 17.761719 20.144531 L 17.761719 18.894531 C 17.761719 18.550781 17.476562 18.269531 17.128906 18.269531 Z M 17.128906 18.269531 "/>
<path style=" stroke:none;fill-rule:nonzero;fill:rgb(87.059021%,0%,16.468811%);fill-opacity:1;" d="M 25.003906 18.269531 L 21.855469 18.269531 C 21.332031 18.269531 20.910156 17.851562 20.910156 17.332031 C 20.910156 16.816406 21.332031 16.394531 21.855469 16.394531 L 25.003906 16.394531 C 25.527344 16.394531 25.949219 16.816406 25.949219 17.332031 C 25.949219 17.851562 25.527344 18.269531 25.003906 18.269531 Z M 25.003906 18.269531 "/>
<path style=" stroke:none;fill-rule:nonzero;fill:rgb(87.059021%,0%,16.468811%);fill-opacity:1;" d="M 23.429688 22.644531 C 22.910156 22.644531 22.484375 22.226562 22.484375 21.707031 L 22.484375 17.332031 C 22.484375 16.816406 22.910156 16.394531 23.429688 16.394531 C 23.953125 16.394531 24.375 16.816406 24.375 17.332031 L 24.375 21.707031 C 24.375 22.226562 23.953125 22.644531 23.429688 22.644531 Z M 23.429688 22.644531 "/>
<path style=" stroke:none;fill-rule:nonzero;fill:rgb(87.059021%,0%,16.468811%);fill-opacity:1;" d="M 30.042969 22.644531 L 28.15625 22.644531 C 27.632812 22.644531 27.210938 22.226562 27.210938 21.707031 L 27.210938 17.332031 C 27.210938 16.816406 27.632812 16.394531 28.15625 16.394531 L 30.042969 16.394531 C 30.566406 16.394531 30.988281 16.816406 30.988281 17.332031 C 30.988281 17.851562 30.566406 18.269531 30.042969 18.269531 L 29.101562 18.269531 L 29.101562 20.769531 L 30.042969 20.769531 C 30.566406 20.769531 30.988281 21.191406 30.988281 21.707031 C 30.988281 22.226562 30.566406 22.644531 30.042969 22.644531 Z M 30.042969 22.644531 "/>
<path style=" stroke:none;fill-rule:nonzero;fill:rgb(87.059021%,0%,16.468811%);fill-opacity:1;" d="M 30.042969 20.457031 L 28.15625 20.457031 C 27.632812 20.457031 27.210938 20.039062 27.210938 19.519531 C 27.210938 19.003906 27.632812 18.582031 28.15625 18.582031 L 30.042969 18.582031 C 30.566406 18.582031 30.988281 19.003906 30.988281 19.519531 C 30.988281 20.039062 30.566406 20.457031 30.042969 20.457031 Z M 30.042969 20.457031 "/>
</g>
</svg>
