<?xml version="1.0" encoding="UTF-8"?>
<svg xmlns="http://www.w3.org/2000/svg" xmlns:xlink="http://www.w3.org/1999/xlink" width="39pt" height="38.999999pt" viewBox="0 0 39 38.999999" version="1.2">
<defs>
<clipPath id="clip1">
  <path d="M 4.339844 9.335938 L 33.589844 9.335938 L 33.589844 30.335938 L 4.339844 30.335938 Z M 4.339844 9.335938 "/>
</clipPath>
<clipPath id="clip2">
  <path d="M 4.339844 10 L 33.589844 10 L 33.589844 29 L 4.339844 29 Z M 4.339844 10 "/>
</clipPath>
<clipPath id="clip3">
  <path d="M 4.339844 9.335938 L 19 9.335938 L 19 21 L 4.339844 21 Z M 4.339844 9.335938 "/>
</clipPath>
</defs>
<g id="surface1">
<path style=" stroke:none;fill-rule:nonzero;fill:rgb(22.349548%,20.779419%,21.179199%);fill-opacity:1;" d="M 19.5 0 C 18.863281 0 18.222656 0.03125 17.589844 0.09375 C 16.953125 0.15625 16.320312 0.25 15.695312 0.375 C 15.070312 0.5 14.449219 0.652344 13.839844 0.839844 C 13.226562 1.023438 12.628906 1.238281 12.039062 1.484375 C 11.449219 1.730469 10.871094 2 10.308594 2.300781 C 9.746094 2.605469 9.199219 2.929688 8.667969 3.285156 C 8.136719 3.640625 7.621094 4.019531 7.128906 4.425781 C 6.636719 4.832031 6.164062 5.261719 5.710938 5.710938 C 5.261719 6.164062 4.832031 6.636719 4.425781 7.128906 C 4.019531 7.621094 3.640625 8.136719 3.285156 8.667969 C 2.929688 9.199219 2.605469 9.746094 2.300781 10.308594 C 2 10.871094 1.730469 11.449219 1.484375 12.039062 C 1.238281 12.628906 1.023438 13.226562 0.839844 13.839844 C 0.652344 14.449219 0.5 15.070312 0.375 15.695312 C 0.25 16.320312 0.15625 16.953125 0.09375 17.589844 C 0.03125 18.222656 0 18.863281 0 19.5 C 0 20.136719 0.03125 20.777344 0.09375 21.410156 C 0.15625 22.046875 0.25 22.679688 0.375 23.304688 C 0.5 23.929688 0.652344 24.550781 0.839844 25.160156 C 1.023438 25.773438 1.238281 26.371094 1.484375 26.960938 C 1.730469 27.550781 2 28.128906 2.300781 28.691406 C 2.605469 29.253906 2.929688 29.800781 3.285156 30.332031 C 3.640625 30.863281 4.019531 31.378906 4.425781 31.871094 C 4.832031 32.363281 5.261719 32.835938 5.710938 33.289062 C 6.164062 33.738281 6.636719 34.167969 7.128906 34.574219 C 7.621094 34.980469 8.136719 35.359375 8.667969 35.714844 C 9.199219 36.070312 9.746094 36.394531 10.308594 36.699219 C 10.871094 37 11.449219 37.269531 12.039062 37.515625 C 12.628906 37.761719 13.226562 37.976562 13.839844 38.160156 C 14.449219 38.347656 15.070312 38.5 15.695312 38.625 C 16.320312 38.75 16.953125 38.84375 17.589844 38.90625 C 18.222656 38.96875 18.863281 39 19.5 39 C 20.136719 39 20.777344 38.96875 21.410156 38.90625 C 22.046875 38.84375 22.679688 38.75 23.304688 38.625 C 23.929688 38.5 24.550781 38.347656 25.160156 38.160156 C 25.773438 37.976562 26.371094 37.761719 26.960938 37.515625 C 27.550781 37.269531 28.128906 37 28.691406 36.699219 C 29.253906 36.394531 29.800781 36.070312 30.332031 35.714844 C 30.863281 35.359375 31.378906 34.980469 31.871094 34.574219 C 32.363281 34.167969 32.835938 33.738281 33.289062 33.289062 C 33.738281 32.835938 34.167969 32.363281 34.574219 31.871094 C 34.980469 31.378906 35.359375 30.863281 35.714844 30.332031 C 36.070312 29.800781 36.394531 29.253906 36.699219 28.691406 C 37 28.128906 37.269531 27.550781 37.515625 26.960938 C 37.761719 26.371094 37.976562 25.773438 38.160156 25.160156 C 38.347656 24.550781 38.5 23.929688 38.625 23.304688 C 38.75 22.679688 38.84375 22.046875 38.90625 21.410156 C 38.96875 20.777344 39 20.136719 39 19.5 C 39 18.863281 38.96875 18.222656 38.90625 17.589844 C 38.84375 16.953125 38.75 16.320312 38.625 15.695312 C 38.5 15.070312 38.347656 14.449219 38.160156 13.839844 C 37.976562 13.226562 37.761719 12.628906 37.515625 12.039062 C 37.269531 11.449219 37 10.871094 36.699219 10.308594 C 36.394531 9.746094 36.070312 9.199219 35.714844 8.667969 C 35.359375 8.136719 34.980469 7.621094 34.574219 7.128906 C 34.167969 6.636719 33.738281 6.164062 33.289062 5.710938 C 32.835938 5.261719 32.363281 4.832031 31.871094 4.425781 C 31.378906 4.019531 30.863281 3.640625 30.332031 3.285156 C 29.800781 2.929688 29.253906 2.605469 28.691406 2.300781 C 28.128906 2 27.550781 1.730469 26.960938 1.484375 C 26.371094 1.238281 25.773438 1.023438 25.160156 0.839844 C 24.550781 0.652344 23.929688 0.5 23.304688 0.375 C 22.679688 0.25 22.046875 0.15625 21.410156 0.09375 C 20.777344 0.03125 20.136719 0 19.5 0 Z M 19.5 0 "/>
<g clip-path="url(#clip1)" clip-rule="nonzero">
<path style=" stroke:none;fill-rule:nonzero;fill:rgb(69.799805%,13.729858%,20.388794%);fill-opacity:1;" d="M 33.136719 10.953125 C 32.570312 9.992188 31.535156 9.335938 30.335938 9.335938 L 18.964844 9.335938 L 18.964844 10.953125 Z M 4.34375 25.492188 L 33.585938 25.492188 L 33.585938 27.105469 L 4.34375 27.105469 Z M 18.964844 19.03125 L 33.585938 19.03125 L 33.585938 20.644531 L 18.964844 20.644531 Z M 18.964844 15.800781 L 33.585938 15.800781 L 33.585938 17.414062 L 18.964844 17.414062 Z M 4.34375 22.261719 L 33.585938 22.261719 L 33.585938 23.875 L 4.34375 23.875 Z M 7.59375 30.335938 L 30.335938 30.335938 C 31.535156 30.335938 32.570312 29.683594 33.136719 28.722656 L 4.796875 28.722656 C 5.359375 29.683594 6.394531 30.335938 7.59375 30.335938 Z M 18.964844 12.570312 L 33.585938 12.570312 L 33.585938 14.183594 L 18.964844 14.183594 Z M 18.964844 12.570312 "/>
</g>
<g clip-path="url(#clip2)" clip-rule="nonzero">
<path style=" stroke:none;fill-rule:nonzero;fill:rgb(100%,100%,100%);fill-opacity:1;" d="M 4.402344 27.65625 C 4.414062 27.730469 4.429688 27.804688 4.449219 27.878906 C 4.46875 27.960938 4.496094 28.039062 4.523438 28.117188 C 4.597656 28.328125 4.683594 28.53125 4.792969 28.71875 L 4.796875 28.722656 L 33.136719 28.722656 L 33.136719 28.71875 C 33.246094 28.53125 33.335938 28.328125 33.40625 28.121094 C 33.433594 28.039062 33.460938 27.960938 33.480469 27.878906 C 33.5 27.804688 33.515625 27.730469 33.53125 27.65625 C 33.5625 27.476562 33.585938 27.296875 33.585938 27.105469 L 4.34375 27.105469 C 4.34375 27.296875 4.367188 27.476562 4.402344 27.65625 Z M 4.34375 23.875 L 33.585938 23.875 L 33.585938 25.492188 L 4.34375 25.492188 Z M 4.34375 20.644531 L 4.34375 22.261719 L 33.585938 22.261719 L 33.585938 20.644531 Z M 18.964844 17.414062 L 33.585938 17.414062 L 33.585938 19.03125 L 18.964844 19.03125 Z M 18.964844 14.183594 L 33.585938 14.183594 L 33.585938 15.800781 L 18.964844 15.800781 Z M 4.34375 12.570312 C 4.34375 12.378906 4.371094 12.199219 4.402344 12.019531 C 4.367188 12.199219 4.34375 12.378906 4.34375 12.570312 Z M 4.796875 10.953125 L 4.792969 10.957031 Z M 4.449219 11.796875 C 4.46875 11.714844 4.5 11.636719 4.523438 11.554688 C 4.496094 11.636719 4.46875 11.714844 4.449219 11.796875 Z M 18.964844 12.570312 L 33.585938 12.570312 C 33.585938 12.378906 33.5625 12.199219 33.53125 12.019531 C 33.515625 11.945312 33.5 11.871094 33.480469 11.796875 C 33.460938 11.714844 33.433594 11.632812 33.40625 11.554688 C 33.332031 11.34375 33.246094 11.144531 33.136719 10.957031 C 33.136719 10.957031 33.136719 10.953125 33.136719 10.953125 L 18.964844 10.953125 Z M 18.964844 12.570312 "/>
</g>
<g clip-path="url(#clip3)" clip-rule="nonzero">
<path style=" stroke:none;fill-rule:nonzero;fill:rgb(15.289307%,27.059937%,59.609985%);fill-opacity:1;" d="M 18.964844 9.335938 L 7.59375 9.335938 C 5.800781 9.335938 4.34375 10.785156 4.34375 12.570312 L 4.34375 20.644531 L 18.964844 20.644531 Z M 18.964844 9.335938 "/>
</g>
<path style=" stroke:none;fill-rule:nonzero;fill:rgb(100%,100%,100%);fill-opacity:1;" d="M 5.972656 11.539062 L 6.472656 11.902344 L 6.28125 12.488281 L 6.78125 12.125 L 7.285156 12.488281 L 7.09375 11.902344 L 7.59375 11.539062 L 6.972656 11.539062 L 6.78125 10.953125 L 6.589844 11.539062 Z M 7.59375 13.15625 L 8.097656 13.515625 L 7.90625 14.101562 L 8.40625 13.742188 L 8.910156 14.101562 L 8.71875 13.515625 L 9.21875 13.15625 L 8.597656 13.15625 L 8.40625 12.570312 L 8.214844 13.15625 Z M 10.84375 13.15625 L 11.347656 13.515625 L 11.15625 14.101562 L 11.65625 13.742188 L 12.15625 14.101562 L 11.964844 13.515625 L 12.46875 13.15625 L 11.847656 13.15625 L 11.65625 12.570312 L 11.464844 13.15625 Z M 14.09375 13.15625 L 14.59375 13.515625 L 14.402344 14.101562 L 14.90625 13.742188 L 15.40625 14.101562 L 15.214844 13.515625 L 15.71875 13.15625 L 15.097656 13.15625 L 14.90625 12.570312 L 14.714844 13.15625 Z M 7.59375 16.386719 L 8.097656 16.75 L 7.90625 17.332031 L 8.40625 16.972656 L 8.910156 17.332031 L 8.71875 16.75 L 9.21875 16.386719 L 8.597656 16.386719 L 8.40625 15.800781 L 8.214844 16.386719 Z M 10.84375 16.386719 L 11.347656 16.75 L 11.15625 17.332031 L 11.65625 16.972656 L 12.15625 17.332031 L 11.964844 16.75 L 12.46875 16.386719 L 11.847656 16.386719 L 11.65625 15.800781 L 11.464844 16.386719 Z M 14.09375 16.386719 L 14.59375 16.75 L 14.402344 17.332031 L 14.90625 16.972656 L 15.40625 17.332031 L 15.214844 16.75 L 15.71875 16.386719 L 15.097656 16.386719 L 14.90625 15.800781 L 14.714844 16.386719 Z M 9.21875 11.539062 L 9.722656 11.902344 L 9.53125 12.488281 L 10.03125 12.125 L 10.53125 12.488281 L 10.339844 11.902344 L 10.84375 11.539062 L 10.222656 11.539062 L 10.03125 10.953125 L 9.839844 11.539062 Z M 12.46875 11.539062 L 12.96875 11.902344 L 12.777344 12.488281 L 13.28125 12.125 L 13.78125 12.488281 L 13.589844 11.902344 L 14.09375 11.539062 L 13.472656 11.539062 L 13.28125 10.953125 L 13.089844 11.539062 Z M 15.71875 11.539062 L 16.21875 11.902344 L 16.027344 12.488281 L 16.527344 12.125 L 17.03125 12.488281 L 16.839844 11.902344 L 17.339844 11.539062 L 16.722656 11.539062 L 16.527344 10.953125 L 16.339844 11.539062 Z M 5.972656 14.769531 L 6.472656 15.132812 L 6.28125 15.71875 L 6.78125 15.355469 L 7.285156 15.71875 L 7.09375 15.132812 L 7.59375 14.769531 L 6.972656 14.769531 L 6.78125 14.183594 L 6.589844 14.769531 Z M 9.53125 15.71875 L 10.03125 15.355469 L 10.53125 15.71875 L 10.339844 15.132812 L 10.84375 14.769531 L 10.222656 14.769531 L 10.03125 14.183594 L 9.839844 14.769531 L 9.21875 14.769531 L 9.722656 15.132812 Z M 12.46875 14.769531 L 12.96875 15.132812 L 12.777344 15.71875 L 13.28125 15.355469 L 13.78125 15.71875 L 13.589844 15.132812 L 14.09375 14.769531 L 13.472656 14.769531 L 13.28125 14.183594 L 13.089844 14.769531 Z M 15.71875 14.769531 L 16.21875 15.132812 L 16.027344 15.71875 L 16.527344 15.355469 L 17.03125 15.71875 L 16.839844 15.132812 L 17.339844 14.769531 L 16.722656 14.769531 L 16.527344 14.183594 L 16.339844 14.769531 Z M 5.972656 18 L 6.472656 18.363281 L 6.28125 18.949219 L 6.78125 18.585938 L 7.285156 18.949219 L 7.09375 18.363281 L 7.59375 18 L 6.972656 18 L 6.78125 17.414062 L 6.589844 18 Z M 9.53125 18.949219 L 10.03125 18.585938 L 10.53125 18.949219 L 10.339844 18.363281 L 10.84375 18 L 10.222656 18 L 10.03125 17.414062 L 9.839844 18 L 9.21875 18 L 9.722656 18.363281 Z M 12.46875 18 L 12.96875 18.363281 L 12.777344 18.949219 L 13.28125 18.585938 L 13.78125 18.949219 L 13.589844 18.363281 L 14.09375 18 L 13.472656 18 L 13.28125 17.414062 L 13.089844 18 Z M 15.71875 18 L 16.21875 18.363281 L 16.027344 18.949219 L 16.527344 18.585938 L 17.03125 18.949219 L 16.839844 18.363281 L 17.339844 18 L 16.722656 18 L 16.527344 17.414062 L 16.339844 18 Z M 15.71875 18 "/>
</g>
</svg>
