<?xml version="1.0" encoding="UTF-8"?>
<svg xmlns="http://www.w3.org/2000/svg" xmlns:xlink="http://www.w3.org/1999/xlink" width="39pt" height="38.999999pt" viewBox="0 0 39 38.999999" version="1.2">
<defs>
<clipPath id="clip1">
  <path d="M 7.492188 9 L 30 9 L 30 31.675781 L 7.492188 31.675781 Z M 7.492188 9 "/>
</clipPath>
<clipPath id="clip2">
  <path d="M 7.503906 8.789062 L 30.199219 8.789062 L 30.199219 31.675781 L 7.503906 31.675781 Z M 7.503906 8.789062 "/>
</clipPath>
<clipPath id="clip3">
  <path d="M 10 7.261719 L 33.742188 7.261719 L 33.742188 28 L 10 28 Z M 10 7.261719 "/>
</clipPath>
</defs>
<g id="surface1">
<path style=" stroke:none;fill-rule:nonzero;fill:rgb(22.349548%,20.779419%,21.179199%);fill-opacity:1;" d="M 19.5 0 C 18.863281 0 18.222656 0.03125 17.589844 0.09375 C 16.953125 0.15625 16.320312 0.25 15.695312 0.375 C 15.070312 0.5 14.449219 0.652344 13.839844 0.839844 C 13.226562 1.023438 12.628906 1.238281 12.039062 1.484375 C 11.449219 1.730469 10.871094 2 10.308594 2.300781 C 9.746094 2.605469 9.199219 2.929688 8.667969 3.285156 C 8.136719 3.640625 7.621094 4.019531 7.128906 4.425781 C 6.636719 4.832031 6.164062 5.261719 5.710938 5.710938 C 5.261719 6.164062 4.832031 6.636719 4.425781 7.128906 C 4.019531 7.621094 3.640625 8.136719 3.285156 8.667969 C 2.929688 9.199219 2.605469 9.746094 2.300781 10.308594 C 2 10.871094 1.730469 11.449219 1.484375 12.039062 C 1.238281 12.628906 1.023438 13.226562 0.839844 13.839844 C 0.652344 14.449219 0.5 15.070312 0.375 15.695312 C 0.25 16.320312 0.15625 16.953125 0.09375 17.589844 C 0.03125 18.222656 0 18.863281 0 19.5 C 0 20.136719 0.03125 20.777344 0.09375 21.410156 C 0.15625 22.046875 0.25 22.679688 0.375 23.304688 C 0.5 23.929688 0.652344 24.550781 0.839844 25.160156 C 1.023438 25.773438 1.238281 26.371094 1.484375 26.960938 C 1.730469 27.550781 2 28.128906 2.300781 28.691406 C 2.605469 29.253906 2.929688 29.800781 3.285156 30.332031 C 3.640625 30.863281 4.019531 31.378906 4.425781 31.871094 C 4.832031 32.363281 5.261719 32.835938 5.710938 33.289062 C 6.164062 33.738281 6.636719 34.167969 7.128906 34.574219 C 7.621094 34.980469 8.136719 35.359375 8.667969 35.714844 C 9.199219 36.070312 9.746094 36.394531 10.308594 36.699219 C 10.871094 37 11.449219 37.269531 12.039062 37.515625 C 12.628906 37.761719 13.226562 37.976562 13.839844 38.160156 C 14.449219 38.347656 15.070312 38.5 15.695312 38.625 C 16.320312 38.75 16.953125 38.84375 17.589844 38.90625 C 18.222656 38.96875 18.863281 39 19.5 39 C 20.136719 39 20.777344 38.96875 21.410156 38.90625 C 22.046875 38.84375 22.679688 38.75 23.304688 38.625 C 23.929688 38.5 24.550781 38.347656 25.160156 38.160156 C 25.773438 37.976562 26.371094 37.761719 26.960938 37.515625 C 27.550781 37.269531 28.128906 37 28.691406 36.699219 C 29.253906 36.394531 29.800781 36.070312 30.332031 35.714844 C 30.863281 35.359375 31.378906 34.980469 31.871094 34.574219 C 32.363281 34.167969 32.835938 33.738281 33.289062 33.289062 C 33.738281 32.835938 34.167969 32.363281 34.574219 31.871094 C 34.980469 31.378906 35.359375 30.863281 35.714844 30.332031 C 36.070312 29.800781 36.394531 29.253906 36.699219 28.691406 C 37 28.128906 37.269531 27.550781 37.515625 26.960938 C 37.761719 26.371094 37.976562 25.773438 38.160156 25.160156 C 38.347656 24.550781 38.5 23.929688 38.625 23.304688 C 38.75 22.679688 38.84375 22.046875 38.90625 21.410156 C 38.96875 20.777344 39 20.136719 39 19.5 C 39 18.863281 38.96875 18.222656 38.90625 17.589844 C 38.84375 16.953125 38.75 16.320312 38.625 15.695312 C 38.5 15.070312 38.347656 14.449219 38.160156 13.839844 C 37.976562 13.226562 37.761719 12.628906 37.515625 12.039062 C 37.269531 11.449219 37 10.871094 36.699219 10.308594 C 36.394531 9.746094 36.070312 9.199219 35.714844 8.667969 C 35.359375 8.136719 34.980469 7.621094 34.574219 7.128906 C 34.167969 6.636719 33.738281 6.164062 33.289062 5.710938 C 32.835938 5.261719 32.363281 4.832031 31.871094 4.425781 C 31.378906 4.019531 30.863281 3.640625 30.332031 3.285156 C 29.800781 2.929688 29.253906 2.605469 28.691406 2.300781 C 28.128906 2 27.550781 1.730469 26.960938 1.484375 C 26.371094 1.238281 25.773438 1.023438 25.160156 0.839844 C 24.550781 0.652344 23.929688 0.5 23.304688 0.375 C 22.679688 0.25 22.046875 0.15625 21.410156 0.09375 C 20.777344 0.03125 20.136719 0 19.5 0 Z M 19.5 0 "/>
<g clip-path="url(#clip1)" clip-rule="nonzero">
<path style=" stroke:none;fill-rule:nonzero;fill:rgb(100%,100%,100%);fill-opacity:1;" d="M 27.5 28.960938 L 10.195312 28.960938 L 10.195312 11.523438 L 27.5 11.523438 Z M 7.835938 9.144531 L 7.835938 31.339844 L 29.859375 31.339844 L 29.859375 9.144531 L 7.835938 9.144531 "/>
</g>
<g clip-path="url(#clip2)" clip-rule="nonzero">
<path style=" stroke:none;fill-rule:nonzero;fill:rgb(0%,73.728943%,83.139038%);fill-opacity:1;" d="M 10.527344 11.859375 L 27.167969 11.859375 L 27.167969 28.625 L 10.527344 28.625 Z M 10.195312 29.300781 L 27.5 29.300781 C 27.683594 29.300781 27.835938 29.148438 27.835938 28.960938 L 27.835938 11.523438 C 27.835938 11.335938 27.683594 11.1875 27.5 11.1875 L 10.195312 11.1875 C 10.011719 11.1875 9.863281 11.335938 9.863281 11.523438 L 9.863281 28.960938 C 9.863281 29.148438 10.011719 29.300781 10.195312 29.300781 Z M 29.527344 31.003906 L 8.167969 31.003906 L 8.167969 9.480469 L 29.527344 9.480469 Z M 29.859375 8.808594 L 7.835938 8.808594 C 7.652344 8.808594 7.503906 8.957031 7.503906 9.144531 L 7.503906 31.339844 C 7.503906 31.527344 7.652344 31.675781 7.835938 31.675781 L 29.859375 31.675781 C 30.042969 31.675781 30.195312 31.527344 30.195312 31.339844 L 30.195312 9.144531 C 30.195312 8.957031 30.042969 8.808594 29.859375 8.808594 "/>
</g>
<g clip-path="url(#clip3)" clip-rule="nonzero">
<path style=" stroke:none;fill-rule:nonzero;fill:rgb(93.728638%,18.818665%,26.669312%);fill-opacity:1;" d="M 12.488281 4.148438 L 10.691406 4.148438 L 12.144531 5.210938 L 11.589844 6.933594 L 13.042969 5.867188 L 14.492188 6.933594 L 13.9375 5.210938 L 15.390625 4.148438 L 13.597656 4.148438 L 13.042969 2.425781 Z M 18.273438 4.148438 L 16.476562 4.148438 L 17.929688 5.210938 L 17.375 6.933594 L 18.828125 5.867188 L 20.28125 6.933594 L 19.726562 5.210938 L 21.179688 4.148438 L 19.382812 4.148438 L 18.828125 2.425781 Z M 24.058594 4.148438 L 22.265625 4.148438 L 23.71875 5.210938 L 23.164062 6.933594 L 24.613281 5.867188 L 26.066406 6.933594 L 25.511719 5.210938 L 26.964844 4.148438 L 25.167969 4.148438 L 24.613281 2.425781 Z M 33.160156 11.6875 L 18.160156 26.808594 C 17.882812 27.085938 17.511719 27.238281 17.125 27.238281 C 16.738281 27.238281 16.367188 27.085938 16.09375 26.808594 L 12.183594 22.867188 C 11.613281 22.292969 11.613281 21.363281 12.183594 20.789062 C 12.753906 20.210938 13.679688 20.210938 14.25 20.789062 L 17.125 23.6875 L 31.097656 9.609375 C 31.667969 9.035156 32.589844 9.035156 33.160156 9.609375 C 33.730469 10.183594 33.730469 11.113281 33.160156 11.6875 "/>
</g>
</g>
</svg>
