<?xml version="1.0" encoding="UTF-8"?>
<svg xmlns="http://www.w3.org/2000/svg" xmlns:xlink="http://www.w3.org/1999/xlink" width="39pt" height="38.999999pt" viewBox="0 0 39 38.999999" version="1.2">
<defs>
<clipPath id="clip1">
  <path d="M 5 7.515625 L 34 7.515625 L 34 33.765625 L 5 33.765625 Z M 5 7.515625 "/>
</clipPath>
<clipPath id="clip2">
  <path d="M 6 24 L 19 24 L 19 33.765625 L 6 33.765625 Z M 6 24 "/>
</clipPath>
<clipPath id="clip3">
  <path d="M 26 7.515625 L 34 7.515625 L 34 15 L 26 15 Z M 26 7.515625 "/>
</clipPath>
</defs>
<g id="surface1">
<path style=" stroke:none;fill-rule:nonzero;fill:rgb(22.349548%,20.779419%,21.179199%);fill-opacity:1;" d="M 19.5 0 C 18.863281 0 18.222656 0.03125 17.589844 0.09375 C 16.953125 0.15625 16.320312 0.25 15.695312 0.375 C 15.070312 0.5 14.449219 0.652344 13.839844 0.839844 C 13.226562 1.023438 12.628906 1.238281 12.039062 1.484375 C 11.449219 1.730469 10.871094 2 10.308594 2.300781 C 9.746094 2.605469 9.199219 2.929688 8.667969 3.285156 C 8.136719 3.640625 7.621094 4.019531 7.128906 4.425781 C 6.636719 4.832031 6.164062 5.261719 5.710938 5.710938 C 5.261719 6.164062 4.832031 6.636719 4.425781 7.128906 C 4.019531 7.621094 3.640625 8.136719 3.285156 8.667969 C 2.929688 9.199219 2.605469 9.746094 2.300781 10.308594 C 2 10.871094 1.730469 11.449219 1.484375 12.039062 C 1.238281 12.628906 1.023438 13.226562 0.839844 13.839844 C 0.652344 14.449219 0.5 15.070312 0.375 15.695312 C 0.25 16.320312 0.15625 16.953125 0.09375 17.589844 C 0.03125 18.222656 0 18.863281 0 19.5 C 0 20.136719 0.03125 20.777344 0.09375 21.410156 C 0.15625 22.046875 0.25 22.679688 0.375 23.304688 C 0.5 23.929688 0.652344 24.550781 0.839844 25.160156 C 1.023438 25.773438 1.238281 26.371094 1.484375 26.960938 C 1.730469 27.550781 2 28.128906 2.300781 28.691406 C 2.605469 29.253906 2.929688 29.800781 3.285156 30.332031 C 3.640625 30.863281 4.019531 31.378906 4.425781 31.871094 C 4.832031 32.363281 5.261719 32.835938 5.710938 33.289062 C 6.164062 33.738281 6.636719 34.167969 7.128906 34.574219 C 7.621094 34.980469 8.136719 35.359375 8.667969 35.714844 C 9.199219 36.070312 9.746094 36.394531 10.308594 36.699219 C 10.871094 37 11.449219 37.269531 12.039062 37.515625 C 12.628906 37.761719 13.226562 37.976562 13.839844 38.160156 C 14.449219 38.347656 15.070312 38.5 15.695312 38.625 C 16.320312 38.75 16.953125 38.84375 17.589844 38.90625 C 18.222656 38.96875 18.863281 39 19.5 39 C 20.136719 39 20.777344 38.96875 21.410156 38.90625 C 22.046875 38.84375 22.679688 38.75 23.304688 38.625 C 23.929688 38.5 24.550781 38.347656 25.160156 38.160156 C 25.773438 37.976562 26.371094 37.761719 26.960938 37.515625 C 27.550781 37.269531 28.128906 37 28.691406 36.699219 C 29.253906 36.394531 29.800781 36.070312 30.332031 35.714844 C 30.863281 35.359375 31.378906 34.980469 31.871094 34.574219 C 32.363281 34.167969 32.835938 33.738281 33.289062 33.289062 C 33.738281 32.835938 34.167969 32.363281 34.574219 31.871094 C 34.980469 31.378906 35.359375 30.863281 35.714844 30.332031 C 36.070312 29.800781 36.394531 29.253906 36.699219 28.691406 C 37 28.128906 37.269531 27.550781 37.515625 26.960938 C 37.761719 26.371094 37.976562 25.773438 38.160156 25.160156 C 38.347656 24.550781 38.5 23.929688 38.625 23.304688 C 38.75 22.679688 38.84375 22.046875 38.90625 21.410156 C 38.96875 20.777344 39 20.136719 39 19.5 C 39 18.863281 38.96875 18.222656 38.90625 17.589844 C 38.84375 16.953125 38.75 16.320312 38.625 15.695312 C 38.5 15.070312 38.347656 14.449219 38.160156 13.839844 C 37.976562 13.226562 37.761719 12.628906 37.515625 12.039062 C 37.269531 11.449219 37 10.871094 36.699219 10.308594 C 36.394531 9.746094 36.070312 9.199219 35.714844 8.667969 C 35.359375 8.136719 34.980469 7.621094 34.574219 7.128906 C 34.167969 6.636719 33.738281 6.164062 33.289062 5.710938 C 32.835938 5.261719 32.363281 4.832031 31.871094 4.425781 C 31.378906 4.019531 30.863281 3.640625 30.332031 3.285156 C 29.800781 2.929688 29.253906 2.605469 28.691406 2.300781 C 28.128906 2 27.550781 1.730469 26.960938 1.484375 C 26.371094 1.238281 25.773438 1.023438 25.160156 0.839844 C 24.550781 0.652344 23.929688 0.5 23.304688 0.375 C 22.679688 0.25 22.046875 0.15625 21.410156 0.09375 C 20.777344 0.03125 20.136719 0 19.5 0 Z M 19.5 0 "/>
<g clip-path="url(#clip1)" clip-rule="nonzero">
<path style=" stroke:none;fill-rule:nonzero;fill:rgb(0%,66.668701%,68.629456%);fill-opacity:1;" d="M 9.371094 20.46875 C 8.675781 20.46875 7.984375 20.757812 7.492188 21.324219 C 6.585938 22.363281 6.691406 23.953125 7.726562 24.863281 L 15.472656 31.667969 C 15.925781 32.070312 16.511719 32.289062 17.117188 32.289062 C 17.21875 32.289062 17.320312 32.28125 17.417969 32.269531 C 18.125 32.183594 18.761719 31.800781 19.164062 31.214844 L 31.753906 13.0625 C 32.539062 11.929688 32.261719 10.363281 31.132812 9.574219 C 30.582031 9.191406 29.921875 9.046875 29.265625 9.164062 C 28.609375 9.28125 28.035156 9.648438 27.65625 10.199219 L 17.128906 25.378906 C 17.007812 25.550781 16.824219 25.660156 16.617188 25.6875 C 16.410156 25.710938 16.203125 25.648438 16.046875 25.511719 L 11.015625 21.089844 C 10.542969 20.671875 9.953125 20.46875 9.371094 20.46875 Z M 17.117188 33.757812 C 16.15625 33.757812 15.230469 33.40625 14.507812 32.773438 L 6.761719 25.96875 C 5.121094 24.523438 4.953125 22.007812 6.390625 20.359375 C 7.828125 18.707031 10.332031 18.539062 11.976562 19.984375 L 16.394531 23.867188 L 26.457031 9.359375 C 27.058594 8.488281 27.964844 7.90625 29.007812 7.71875 C 30.046875 7.53125 31.097656 7.761719 31.96875 8.367188 C 33.757812 9.621094 34.199219 12.105469 32.953125 13.902344 L 20.363281 32.054688 C 19.722656 32.980469 18.714844 33.589844 17.597656 33.726562 C 17.4375 33.746094 17.277344 33.757812 17.117188 33.757812 "/>
</g>
<g clip-path="url(#clip2)" clip-rule="nonzero">
<path style=" stroke:none;fill-rule:nonzero;fill:rgb(65.098572%,84.309387%,10.978699%);fill-opacity:1;" d="M 17.117188 33.757812 C 16.15625 33.757812 15.230469 33.40625 14.507812 32.773438 L 6.761719 25.96875 C 6.460938 25.699219 6.429688 25.234375 6.695312 24.929688 C 6.960938 24.625 7.421875 24.59375 7.726562 24.863281 L 15.472656 31.667969 C 15.925781 32.070312 16.511719 32.289062 17.117188 32.289062 C 17.21875 32.289062 17.320312 32.28125 17.417969 32.269531 C 17.820312 32.222656 18.183594 32.507812 18.234375 32.910156 C 18.285156 33.3125 18 33.679688 17.597656 33.726562 C 17.4375 33.746094 17.277344 33.757812 17.117188 33.757812 "/>
</g>
<g clip-path="url(#clip3)" clip-rule="nonzero">
<path style=" stroke:none;fill-rule:nonzero;fill:rgb(0%,67.83905%,93.728638%);fill-opacity:1;" d="M 32.351562 14.21875 C 32.207031 14.21875 32.0625 14.175781 31.933594 14.085938 C 31.605469 13.855469 31.523438 13.398438 31.753906 13.0625 C 32.539062 11.929688 32.261719 10.363281 31.132812 9.574219 C 30.582031 9.191406 29.921875 9.046875 29.265625 9.164062 C 28.609375 9.28125 28.035156 9.648438 27.65625 10.199219 C 27.425781 10.53125 26.96875 10.613281 26.636719 10.382812 C 26.308594 10.148438 26.226562 9.691406 26.457031 9.359375 C 27.058594 8.488281 27.964844 7.90625 29.007812 7.71875 C 30.046875 7.53125 31.097656 7.761719 31.964844 8.367188 C 33.757812 9.621094 34.199219 12.105469 32.953125 13.902344 C 32.8125 14.109375 32.582031 14.21875 32.351562 14.21875 "/>
</g>
<path style=" stroke:none;fill-rule:nonzero;fill:rgb(98.429871%,75.689697%,3.138733%);fill-opacity:1;" d="M 19.765625 32.367188 C 19.621094 32.367188 19.472656 32.324219 19.347656 32.238281 C 19.015625 32.003906 18.933594 31.546875 19.164062 31.214844 L 31.753906 13.0625 C 31.984375 12.730469 32.441406 12.648438 32.769531 12.882812 C 33.101562 13.113281 33.183594 13.570312 32.953125 13.902344 L 20.363281 32.054688 C 20.222656 32.257812 19.996094 32.367188 19.765625 32.367188 "/>
<path style=" stroke:none;fill-rule:nonzero;fill:rgb(87.059021%,0%,16.468811%);fill-opacity:1;" d="M 16.527344 25.691406 C 16.351562 25.691406 16.179688 25.628906 16.046875 25.511719 L 11.015625 21.089844 C 10.710938 20.820312 10.679688 20.359375 10.945312 20.050781 C 11.210938 19.746094 11.671875 19.714844 11.976562 19.984375 L 16.394531 23.867188 L 26.457031 9.359375 C 26.6875 9.027344 27.140625 8.945312 27.472656 9.175781 C 27.804688 9.410156 27.886719 9.867188 27.65625 10.199219 L 17.128906 25.378906 C 17.007812 25.550781 16.824219 25.660156 16.617188 25.6875 C 16.585938 25.691406 16.558594 25.691406 16.527344 25.691406 "/>
</g>
</svg>
