<?xml version="1.0" encoding="UTF-8"?>
<svg xmlns="http://www.w3.org/2000/svg" xmlns:xlink="http://www.w3.org/1999/xlink" width="39pt" height="38.999999pt" viewBox="0 0 39 38.999999" version="1.2">
<defs>
<clipPath id="clip1">
  <path d="M 4 23 L 33.898438 23 L 33.898438 31.105469 L 4 31.105469 Z M 4 23 "/>
</clipPath>
<clipPath id="clip2">
  <path d="M 12 7.105469 L 26 7.105469 L 26 28 L 12 28 Z M 12 7.105469 "/>
</clipPath>
<clipPath id="clip3">
  <path d="M 14 7.105469 L 24 7.105469 L 24 28 L 14 28 Z M 14 7.105469 "/>
</clipPath>
<clipPath id="clip4">
  <path d="M 17 7.105469 L 21 7.105469 L 21 28 L 17 28 Z M 17 7.105469 "/>
</clipPath>
<clipPath id="clip5">
  <path d="M 12 7.105469 L 26 7.105469 L 26 9 L 12 9 Z M 12 7.105469 "/>
</clipPath>
</defs>
<g id="surface1">
<path style=" stroke:none;fill-rule:nonzero;fill:rgb(22.349548%,20.779419%,21.179199%);fill-opacity:1;" d="M 19.5 0 C 18.863281 0 18.222656 0.03125 17.589844 0.09375 C 16.953125 0.15625 16.320312 0.25 15.695312 0.375 C 15.070312 0.5 14.449219 0.652344 13.839844 0.839844 C 13.226562 1.023438 12.628906 1.238281 12.039062 1.484375 C 11.449219 1.730469 10.871094 2 10.308594 2.300781 C 9.746094 2.605469 9.199219 2.929688 8.667969 3.285156 C 8.136719 3.640625 7.621094 4.019531 7.128906 4.425781 C 6.636719 4.832031 6.164062 5.261719 5.710938 5.710938 C 5.261719 6.164062 4.832031 6.636719 4.425781 7.128906 C 4.019531 7.621094 3.640625 8.136719 3.285156 8.667969 C 2.929688 9.199219 2.605469 9.746094 2.300781 10.308594 C 2 10.871094 1.730469 11.449219 1.484375 12.039062 C 1.238281 12.628906 1.023438 13.226562 0.839844 13.839844 C 0.652344 14.449219 0.5 15.070312 0.375 15.695312 C 0.25 16.320312 0.15625 16.953125 0.09375 17.589844 C 0.03125 18.222656 0 18.863281 0 19.5 C 0 20.136719 0.03125 20.777344 0.09375 21.410156 C 0.15625 22.046875 0.25 22.679688 0.375 23.304688 C 0.5 23.929688 0.652344 24.550781 0.839844 25.160156 C 1.023438 25.773438 1.238281 26.371094 1.484375 26.960938 C 1.730469 27.550781 2 28.128906 2.300781 28.691406 C 2.605469 29.253906 2.929688 29.800781 3.285156 30.332031 C 3.640625 30.863281 4.019531 31.378906 4.425781 31.871094 C 4.832031 32.363281 5.261719 32.835938 5.710938 33.289062 C 6.164062 33.738281 6.636719 34.167969 7.128906 34.574219 C 7.621094 34.980469 8.136719 35.359375 8.667969 35.714844 C 9.199219 36.070312 9.746094 36.394531 10.308594 36.699219 C 10.871094 37 11.449219 37.269531 12.039062 37.515625 C 12.628906 37.761719 13.226562 37.976562 13.839844 38.160156 C 14.449219 38.347656 15.070312 38.5 15.695312 38.625 C 16.320312 38.75 16.953125 38.84375 17.589844 38.90625 C 18.222656 38.96875 18.863281 39 19.5 39 C 20.136719 39 20.777344 38.96875 21.410156 38.90625 C 22.046875 38.84375 22.679688 38.75 23.304688 38.625 C 23.929688 38.5 24.550781 38.347656 25.160156 38.160156 C 25.773438 37.976562 26.371094 37.761719 26.960938 37.515625 C 27.550781 37.269531 28.128906 37 28.691406 36.699219 C 29.253906 36.394531 29.800781 36.070312 30.332031 35.714844 C 30.863281 35.359375 31.378906 34.980469 31.871094 34.574219 C 32.363281 34.167969 32.835938 33.738281 33.289062 33.289062 C 33.738281 32.835938 34.167969 32.363281 34.574219 31.871094 C 34.980469 31.378906 35.359375 30.863281 35.714844 30.332031 C 36.070312 29.800781 36.394531 29.253906 36.699219 28.691406 C 37 28.128906 37.269531 27.550781 37.515625 26.960938 C 37.761719 26.371094 37.976562 25.773438 38.160156 25.160156 C 38.347656 24.550781 38.5 23.929688 38.625 23.304688 C 38.75 22.679688 38.84375 22.046875 38.90625 21.410156 C 38.96875 20.777344 39 20.136719 39 19.5 C 39 18.863281 38.96875 18.222656 38.90625 17.589844 C 38.84375 16.953125 38.75 16.320312 38.625 15.695312 C 38.5 15.070312 38.347656 14.449219 38.160156 13.839844 C 37.976562 13.226562 37.761719 12.628906 37.515625 12.039062 C 37.269531 11.449219 37 10.871094 36.699219 10.308594 C 36.394531 9.746094 36.070312 9.199219 35.714844 8.667969 C 35.359375 8.136719 34.980469 7.621094 34.574219 7.128906 C 34.167969 6.636719 33.738281 6.164062 33.289062 5.710938 C 32.835938 5.261719 32.363281 4.832031 31.871094 4.425781 C 31.378906 4.019531 30.863281 3.640625 30.332031 3.285156 C 29.800781 2.929688 29.253906 2.605469 28.691406 2.300781 C 28.128906 2 27.550781 1.730469 26.960938 1.484375 C 26.371094 1.238281 25.773438 1.023438 25.160156 0.839844 C 24.550781 0.652344 23.929688 0.5 23.304688 0.375 C 22.679688 0.25 22.046875 0.15625 21.410156 0.09375 C 20.777344 0.03125 20.136719 0 19.5 0 Z M 19.5 0 "/>
<g clip-path="url(#clip1)" clip-rule="nonzero">
<path style=" stroke:none;fill-rule:nonzero;fill:rgb(92.549133%,6.269836%,30.198669%);fill-opacity:1;" d="M 33.273438 25.65625 C 33.894531 27.613281 27.542969 31.285156 18.90625 31.265625 C 10.269531 31.285156 3.917969 27.613281 4.539062 25.65625 C 5.128906 23.632812 11.492188 23.769531 18.90625 23.722656 C 26.320312 23.769531 32.679688 23.632812 33.273438 25.65625 "/>
</g>
<g clip-path="url(#clip2)" clip-rule="nonzero">
<path style=" stroke:none;fill-rule:nonzero;fill:rgb(92.549133%,6.269836%,30.198669%);fill-opacity:1;" d="M 12.535156 7.953125 L 12.535156 26.503906 C 12.535156 26.972656 15.453125 27.355469 19.050781 27.355469 C 22.652344 27.355469 25.570312 26.972656 25.570312 26.503906 L 25.570312 7.953125 L 12.535156 7.953125 "/>
</g>
<g clip-path="url(#clip3)" clip-rule="nonzero">
<path style=" stroke:none;fill-rule:nonzero;fill:rgb(100%,100%,100%);fill-opacity:1;" d="M 14.242188 7.953125 L 14.242188 26.503906 C 14.242188 26.972656 16.398438 27.355469 19.050781 27.355469 C 21.707031 27.355469 23.859375 26.972656 23.859375 26.503906 L 23.859375 7.953125 L 14.242188 7.953125 "/>
</g>
<g clip-path="url(#clip4)" clip-rule="nonzero">
<path style=" stroke:none;fill-rule:nonzero;fill:rgb(92.549133%,6.269836%,30.198669%);fill-opacity:1;" d="M 17.3125 7.953125 L 17.3125 26.503906 C 17.3125 26.972656 18.09375 27.355469 19.050781 27.355469 C 20.011719 27.355469 20.789062 26.972656 20.789062 26.503906 L 20.789062 7.953125 L 17.3125 7.953125 "/>
</g>
<path style=" stroke:none;fill-rule:nonzero;fill:rgb(12.548828%,19.999695%,37.249756%);fill-opacity:1;" d="M 19.050781 22.722656 C 15.453125 22.722656 12.535156 22.34375 12.535156 21.875 L 12.535156 26.503906 C 12.535156 26.972656 15.453125 27.355469 19.050781 27.355469 C 22.652344 27.355469 25.570312 26.972656 25.570312 26.503906 L 25.570312 21.875 C 25.570312 22.34375 22.652344 22.722656 19.050781 22.722656 "/>
<g clip-path="url(#clip5)" clip-rule="nonzero">
<path style=" stroke:none;fill-rule:nonzero;fill:rgb(94.509888%,29.019165%,39.608765%);fill-opacity:1;" d="M 25.570312 7.953125 C 25.570312 8.421875 22.652344 8.800781 19.050781 8.800781 C 15.453125 8.800781 12.535156 8.421875 12.535156 7.953125 C 12.535156 7.484375 15.453125 7.105469 19.050781 7.105469 C 22.652344 7.105469 25.570312 7.484375 25.570312 7.953125 "/>
</g>
<path style=" stroke:none;fill-rule:nonzero;fill:rgb(100%,100%,100%);fill-opacity:1;" d="M 19.289062 23.667969 L 19.683594 24.472656 C 19.699219 24.507812 19.730469 24.53125 19.765625 24.535156 L 20.640625 24.664062 C 20.734375 24.679688 20.773438 24.792969 20.707031 24.859375 L 20.074219 25.488281 C 20.042969 25.515625 20.03125 25.554688 20.039062 25.589844 L 20.1875 26.476562 C 20.207031 26.570312 20.109375 26.640625 20.023438 26.597656 L 19.242188 26.179688 C 19.207031 26.160156 19.167969 26.160156 19.132812 26.179688 L 18.351562 26.597656 C 18.265625 26.640625 18.171875 26.570312 18.1875 26.476562 L 18.335938 25.589844 C 18.339844 25.554688 18.328125 25.515625 18.304688 25.488281 L 17.667969 24.859375 C 17.601562 24.792969 17.636719 24.679688 17.730469 24.664062 L 18.609375 24.535156 C 18.644531 24.53125 18.679688 24.507812 18.695312 24.472656 L 19.085938 23.667969 C 19.128906 23.582031 19.246094 23.582031 19.289062 23.667969 "/>
<path style=" stroke:none;fill-rule:nonzero;fill:rgb(100%,100%,100%);fill-opacity:1;" d="M 15.109375 23.390625 L 15.40625 24.238281 C 15.417969 24.273438 15.449219 24.300781 15.484375 24.3125 L 16.339844 24.542969 C 16.429688 24.566406 16.453125 24.6875 16.378906 24.742188 L 15.679688 25.292969 C 15.648438 25.316406 15.632812 25.351562 15.632812 25.390625 L 15.683594 26.285156 C 15.6875 26.382812 15.582031 26.441406 15.503906 26.386719 L 14.773438 25.878906 C 14.742188 25.859375 14.703125 25.855469 14.667969 25.867188 L 13.84375 26.191406 C 13.753906 26.226562 13.667969 26.144531 13.691406 26.050781 L 13.941406 25.191406 C 13.953125 25.152344 13.945312 25.113281 13.921875 25.085938 L 13.363281 24.386719 C 13.304688 24.316406 13.355469 24.203125 13.449219 24.199219 L 14.332031 24.175781 C 14.371094 24.175781 14.40625 24.152344 14.425781 24.121094 L 14.90625 23.367188 C 14.957031 23.289062 15.078125 23.300781 15.109375 23.390625 "/>
<path style=" stroke:none;fill-rule:nonzero;fill:rgb(100%,100%,100%);fill-opacity:1;" d="M 23.199219 23.308594 L 23.710938 24.039062 C 23.730469 24.070312 23.765625 24.089844 23.804688 24.089844 L 24.691406 24.078125 C 24.785156 24.078125 24.839844 24.183594 24.78125 24.261719 L 24.253906 24.980469 C 24.230469 25.011719 24.222656 25.050781 24.238281 25.085938 L 24.523438 25.9375 C 24.554688 26.027344 24.464844 26.113281 24.378906 26.082031 L 23.539062 25.796875 C 23.503906 25.785156 23.464844 25.789062 23.433594 25.8125 L 22.726562 26.351562 C 22.648438 26.410156 22.542969 26.351562 22.542969 26.257812 L 22.554688 25.359375 C 22.554688 25.320312 22.535156 25.285156 22.507812 25.265625 L 21.78125 24.746094 C 21.707031 24.691406 21.722656 24.570312 21.816406 24.542969 L 22.660156 24.273438 C 22.695312 24.261719 22.722656 24.234375 22.734375 24.199219 L 22.996094 23.339844 C 23.023438 23.25 23.144531 23.230469 23.199219 23.308594 "/>
</g>
</svg>
