<?xml version="1.0" encoding="UTF-8"?>
<svg xmlns="http://www.w3.org/2000/svg" xmlns:xlink="http://www.w3.org/1999/xlink" width="39pt" height="38.999999pt" viewBox="0 0 39 38.999999" version="1.2">
<defs>
<clipPath id="clip1">
  <path d="M 7.859375 12 L 25 12 L 25 33.617188 L 7.859375 33.617188 Z M 7.859375 12 "/>
</clipPath>
<clipPath id="clip2">
  <path d="M 15 12 L 31.859375 12 L 31.859375 33.617188 L 15 33.617188 Z M 15 12 "/>
</clipPath>
<clipPath id="clip3">
  <path d="M 9 4.367188 L 30 4.367188 L 30 26 L 9 26 Z M 9 4.367188 "/>
</clipPath>
</defs>
<g id="surface1">
<path style=" stroke:none;fill-rule:nonzero;fill:rgb(22.349548%,20.779419%,21.179199%);fill-opacity:1;" d="M 19.5 0 C 18.863281 0 18.222656 0.03125 17.589844 0.09375 C 16.953125 0.15625 16.320312 0.25 15.695312 0.375 C 15.070312 0.5 14.449219 0.652344 13.839844 0.839844 C 13.226562 1.023438 12.628906 1.238281 12.039062 1.484375 C 11.449219 1.730469 10.871094 2 10.308594 2.300781 C 9.746094 2.605469 9.199219 2.929688 8.667969 3.285156 C 8.136719 3.640625 7.621094 4.019531 7.128906 4.425781 C 6.636719 4.832031 6.164062 5.261719 5.710938 5.710938 C 5.261719 6.164062 4.832031 6.636719 4.425781 7.128906 C 4.019531 7.621094 3.640625 8.136719 3.285156 8.667969 C 2.929688 9.199219 2.605469 9.746094 2.300781 10.308594 C 2 10.871094 1.730469 11.449219 1.484375 12.039062 C 1.238281 12.628906 1.023438 13.226562 0.839844 13.839844 C 0.652344 14.449219 0.5 15.070312 0.375 15.695312 C 0.25 16.320312 0.15625 16.953125 0.09375 17.589844 C 0.03125 18.222656 0 18.863281 0 19.5 C 0 20.136719 0.03125 20.777344 0.09375 21.410156 C 0.15625 22.046875 0.25 22.679688 0.375 23.304688 C 0.5 23.929688 0.652344 24.550781 0.839844 25.160156 C 1.023438 25.773438 1.238281 26.371094 1.484375 26.960938 C 1.730469 27.550781 2 28.128906 2.300781 28.691406 C 2.605469 29.253906 2.929688 29.800781 3.285156 30.332031 C 3.640625 30.863281 4.019531 31.378906 4.425781 31.871094 C 4.832031 32.363281 5.261719 32.835938 5.710938 33.289062 C 6.164062 33.738281 6.636719 34.167969 7.128906 34.574219 C 7.621094 34.980469 8.136719 35.359375 8.667969 35.714844 C 9.199219 36.070312 9.746094 36.394531 10.308594 36.699219 C 10.871094 37 11.449219 37.269531 12.039062 37.515625 C 12.628906 37.761719 13.226562 37.976562 13.839844 38.160156 C 14.449219 38.347656 15.070312 38.5 15.695312 38.625 C 16.320312 38.75 16.953125 38.84375 17.589844 38.90625 C 18.222656 38.96875 18.863281 39 19.5 39 C 20.136719 39 20.777344 38.96875 21.410156 38.90625 C 22.046875 38.84375 22.679688 38.75 23.304688 38.625 C 23.929688 38.5 24.550781 38.347656 25.160156 38.160156 C 25.773438 37.976562 26.371094 37.761719 26.960938 37.515625 C 27.550781 37.269531 28.128906 37 28.691406 36.699219 C 29.253906 36.394531 29.800781 36.070312 30.332031 35.714844 C 30.863281 35.359375 31.378906 34.980469 31.871094 34.574219 C 32.363281 34.167969 32.835938 33.738281 33.289062 33.289062 C 33.738281 32.835938 34.167969 32.363281 34.574219 31.871094 C 34.980469 31.378906 35.359375 30.863281 35.714844 30.332031 C 36.070312 29.800781 36.394531 29.253906 36.699219 28.691406 C 37 28.128906 37.269531 27.550781 37.515625 26.960938 C 37.761719 26.371094 37.976562 25.773438 38.160156 25.160156 C 38.347656 24.550781 38.5 23.929688 38.625 23.304688 C 38.75 22.679688 38.84375 22.046875 38.90625 21.410156 C 38.96875 20.777344 39 20.136719 39 19.5 C 39 18.863281 38.96875 18.222656 38.90625 17.589844 C 38.84375 16.953125 38.75 16.320312 38.625 15.695312 C 38.5 15.070312 38.347656 14.449219 38.160156 13.839844 C 37.976562 13.226562 37.761719 12.628906 37.515625 12.039062 C 37.269531 11.449219 37 10.871094 36.699219 10.308594 C 36.394531 9.746094 36.070312 9.199219 35.714844 8.667969 C 35.359375 8.136719 34.980469 7.621094 34.574219 7.128906 C 34.167969 6.636719 33.738281 6.164062 33.289062 5.710938 C 32.835938 5.261719 32.363281 4.832031 31.871094 4.425781 C 31.378906 4.019531 30.863281 3.640625 30.332031 3.285156 C 29.800781 2.929688 29.253906 2.605469 28.691406 2.300781 C 28.128906 2 27.550781 1.730469 26.960938 1.484375 C 26.371094 1.238281 25.773438 1.023438 25.160156 0.839844 C 24.550781 0.652344 23.929688 0.5 23.304688 0.375 C 22.679688 0.25 22.046875 0.15625 21.410156 0.09375 C 20.777344 0.03125 20.136719 0 19.5 0 Z M 19.5 0 "/>
<g clip-path="url(#clip1)" clip-rule="nonzero">
<path style=" stroke:none;fill-rule:nonzero;fill:rgb(15.289307%,27.059937%,59.609985%);fill-opacity:1;" d="M 12.664062 33.601562 L 11.171875 30.867188 L 7.851562 30.5 L 19.320312 12.734375 L 24.132812 15.835938 L 12.664062 33.601562 "/>
</g>
<g clip-path="url(#clip2)" clip-rule="nonzero">
<path style=" stroke:none;fill-rule:nonzero;fill:rgb(15.289307%,27.059937%,59.609985%);fill-opacity:1;" d="M 27.039062 33.601562 L 28.53125 30.867188 L 31.851562 30.5 L 20.378906 12.734375 L 15.570312 15.835938 L 27.039062 33.601562 "/>
</g>
<g clip-path="url(#clip3)" clip-rule="nonzero">
<path style=" stroke:none;fill-rule:nonzero;fill:rgb(92.549133%,6.269836%,30.198669%);fill-opacity:1;" d="M 29.589844 14.175781 L 27.980469 13.25 L 28.984375 11.917969 C 29.363281 11.417969 29.226562 10.621094 28.484375 10.324219 L 26.757812 10.113281 L 27.207031 8.429688 C 27.207031 7.628906 26.523438 7.210938 25.917969 7.371094 L 24.304688 7.800781 L 24.042969 5.964844 C 23.730469 5.226562 22.9375 5.105469 22.441406 5.492188 L 21.21875 6.449219 L 20.347656 4.945312 C 19.78125 4.375 18.996094 4.5625 18.683594 5.105469 L 17.847656 6.546875 L 16.367188 5.433594 C 15.625 5.132812 14.972656 5.609375 14.898438 6.230469 L 14.707031 7.773438 L 13.03125 7.324219 C 12.226562 7.320312 11.800781 8.007812 11.964844 8.613281 L 12.394531 10.222656 L 10.5625 10.480469 C 9.820312 10.792969 9.699219 11.589844 10.085938 12.085938 L 11.039062 13.308594 L 9.535156 14.175781 C 8.964844 14.742188 9.152344 15.527344 9.695312 15.839844 L 11.140625 16.675781 L 10.027344 18.15625 C 9.722656 18.898438 10.203125 19.546875 10.824219 19.625 L 12.367188 19.8125 L 11.914062 21.492188 C 11.917969 22.179688 12.421875 22.589844 12.945312 22.589844 C 13.03125 22.589844 13.121094 22.578125 13.207031 22.554688 L 14.820312 22.121094 L 15.078125 23.960938 C 15.347656 24.59375 15.96875 24.773438 16.453125 24.566406 C 16.535156 24.53125 16.613281 24.488281 16.683594 24.433594 L 17.90625 23.476562 L 18.777344 24.980469 C 19.34375 25.550781 20.125 25.363281 20.441406 24.820312 L 21.277344 23.375 L 22.757812 24.492188 C 23.5 24.792969 24.148438 24.316406 24.226562 23.695312 L 24.417969 22.152344 L 25.917969 22.554688 C 26.003906 22.578125 26.089844 22.589844 26.179688 22.589844 C 26.445312 22.589844 26.703125 22.484375 26.898438 22.292969 C 27.152344 22.035156 27.253906 21.664062 27.160156 21.3125 L 26.726562 19.703125 L 28.382812 19.46875 C 28.46875 19.457031 28.554688 19.433594 28.636719 19.398438 C 28.878906 19.296875 29.078125 19.097656 29.179688 18.84375 C 29.316406 18.511719 29.261719 18.125 29.039062 17.839844 L 28.082031 16.617188 L 29.429688 15.839844 C 29.972656 15.527344 30.15625 14.742188 29.589844 14.175781 "/>
</g>
<path style=" stroke:none;fill-rule:nonzero;fill:rgb(15.289307%,27.059937%,59.609985%);fill-opacity:1;" d="M 26.628906 14.914062 C 26.628906 18.832031 23.449219 22.007812 19.527344 22.007812 C 15.609375 22.007812 12.429688 18.832031 12.429688 14.914062 C 12.429688 10.996094 15.609375 7.820312 19.527344 7.820312 C 23.449219 7.820312 26.628906 10.996094 26.628906 14.914062 "/>
<path style=" stroke:none;fill-rule:nonzero;fill:rgb(100%,100%,100%);fill-opacity:1;" d="M 25.773438 14.914062 C 25.773438 18.359375 22.976562 21.15625 19.527344 21.15625 C 16.078125 21.15625 13.285156 18.359375 13.285156 14.914062 C 13.285156 11.46875 16.078125 8.675781 19.527344 8.675781 C 22.976562 8.675781 25.773438 11.46875 25.773438 14.914062 "/>
<path style=" stroke:none;fill-rule:nonzero;fill:rgb(97.24884%,66.268921%,4.708862%);fill-opacity:1;" d="M 19.792969 10.671875 L 20.953125 13.023438 C 21 13.121094 21.09375 13.191406 21.203125 13.207031 L 23.800781 13.582031 C 24.074219 13.621094 24.183594 13.960938 23.988281 14.152344 L 22.109375 15.984375 C 22.03125 16.058594 21.992188 16.171875 22.011719 16.28125 L 22.457031 18.863281 C 22.5 19.136719 22.214844 19.347656 21.96875 19.214844 L 19.648438 17.996094 C 19.550781 17.945312 19.433594 17.945312 19.335938 17.996094 L 17.015625 19.214844 C 16.769531 19.347656 16.480469 19.136719 16.527344 18.863281 L 16.96875 16.28125 C 16.988281 16.171875 16.953125 16.058594 16.875 15.984375 L 14.996094 14.152344 C 14.796875 13.960938 14.90625 13.621094 15.183594 13.582031 L 17.777344 13.207031 C 17.886719 13.191406 17.980469 13.121094 18.03125 13.023438 L 19.191406 10.671875 C 19.3125 10.421875 19.667969 10.421875 19.792969 10.671875 "/>
</g>
</svg>
