<?xml version="1.0" encoding="UTF-8"?>
<svg xmlns="http://www.w3.org/2000/svg" xmlns:xlink="http://www.w3.org/1999/xlink" width="39pt" height="38.999999pt" viewBox="0 0 39 38.999999" version="1.2">
<defs>
<clipPath id="clip1">
  <path d="M 8.949219 5.476562 L 29 5.476562 L 29 33.226562 L 8.949219 33.226562 Z M 8.949219 5.476562 "/>
</clipPath>
<clipPath id="clip2">
  <path d="M 15 32 L 25 32 L 25 33.226562 L 15 33.226562 Z M 15 32 "/>
</clipPath>
</defs>
<g id="surface1">
<path style=" stroke:none;fill-rule:nonzero;fill:rgb(22.349548%,20.779419%,21.179199%);fill-opacity:1;" d="M 19.5 0 C 18.863281 0 18.222656 0.03125 17.589844 0.09375 C 16.953125 0.15625 16.320312 0.25 15.695312 0.375 C 15.070312 0.5 14.449219 0.652344 13.839844 0.839844 C 13.226562 1.023438 12.628906 1.238281 12.039062 1.484375 C 11.449219 1.730469 10.871094 2 10.308594 2.300781 C 9.746094 2.605469 9.199219 2.929688 8.667969 3.285156 C 8.136719 3.640625 7.621094 4.019531 7.128906 4.425781 C 6.636719 4.832031 6.164062 5.261719 5.710938 5.710938 C 5.261719 6.164062 4.832031 6.636719 4.425781 7.128906 C 4.019531 7.621094 3.640625 8.136719 3.285156 8.667969 C 2.929688 9.199219 2.605469 9.746094 2.300781 10.308594 C 2 10.871094 1.730469 11.449219 1.484375 12.039062 C 1.238281 12.628906 1.023438 13.226562 0.839844 13.839844 C 0.652344 14.449219 0.5 15.070312 0.375 15.695312 C 0.25 16.320312 0.15625 16.953125 0.09375 17.589844 C 0.03125 18.222656 0 18.863281 0 19.5 C 0 20.136719 0.03125 20.777344 0.09375 21.410156 C 0.15625 22.046875 0.25 22.679688 0.375 23.304688 C 0.5 23.929688 0.652344 24.550781 0.839844 25.160156 C 1.023438 25.773438 1.238281 26.371094 1.484375 26.960938 C 1.730469 27.550781 2 28.128906 2.300781 28.691406 C 2.605469 29.253906 2.929688 29.800781 3.285156 30.332031 C 3.640625 30.863281 4.019531 31.378906 4.425781 31.871094 C 4.832031 32.363281 5.261719 32.835938 5.710938 33.289062 C 6.164062 33.738281 6.636719 34.167969 7.128906 34.574219 C 7.621094 34.980469 8.136719 35.359375 8.667969 35.714844 C 9.199219 36.070312 9.746094 36.394531 10.308594 36.699219 C 10.871094 37 11.449219 37.269531 12.039062 37.515625 C 12.628906 37.761719 13.226562 37.976562 13.839844 38.160156 C 14.449219 38.347656 15.070312 38.5 15.695312 38.625 C 16.320312 38.75 16.953125 38.84375 17.589844 38.90625 C 18.222656 38.96875 18.863281 39 19.5 39 C 20.136719 39 20.777344 38.96875 21.410156 38.90625 C 22.046875 38.84375 22.679688 38.75 23.304688 38.625 C 23.929688 38.5 24.550781 38.347656 25.160156 38.160156 C 25.773438 37.976562 26.371094 37.761719 26.960938 37.515625 C 27.550781 37.269531 28.128906 37 28.691406 36.699219 C 29.253906 36.394531 29.800781 36.070312 30.332031 35.714844 C 30.863281 35.359375 31.378906 34.980469 31.871094 34.574219 C 32.363281 34.167969 32.835938 33.738281 33.289062 33.289062 C 33.738281 32.835938 34.167969 32.363281 34.574219 31.871094 C 34.980469 31.378906 35.359375 30.863281 35.714844 30.332031 C 36.070312 29.800781 36.394531 29.253906 36.699219 28.691406 C 37 28.128906 37.269531 27.550781 37.515625 26.960938 C 37.761719 26.371094 37.976562 25.773438 38.160156 25.160156 C 38.347656 24.550781 38.5 23.929688 38.625 23.304688 C 38.75 22.679688 38.84375 22.046875 38.90625 21.410156 C 38.96875 20.777344 39 20.136719 39 19.5 C 39 18.863281 38.96875 18.222656 38.90625 17.589844 C 38.84375 16.953125 38.75 16.320312 38.625 15.695312 C 38.5 15.070312 38.347656 14.449219 38.160156 13.839844 C 37.976562 13.226562 37.761719 12.628906 37.515625 12.039062 C 37.269531 11.449219 37 10.871094 36.699219 10.308594 C 36.394531 9.746094 36.070312 9.199219 35.714844 8.667969 C 35.359375 8.136719 34.980469 7.621094 34.574219 7.128906 C 34.167969 6.636719 33.738281 6.164062 33.289062 5.710938 C 32.835938 5.261719 32.363281 4.832031 31.871094 4.425781 C 31.378906 4.019531 30.863281 3.640625 30.332031 3.285156 C 29.800781 2.929688 29.253906 2.605469 28.691406 2.300781 C 28.128906 2 27.550781 1.730469 26.960938 1.484375 C 26.371094 1.238281 25.773438 1.023438 25.160156 0.839844 C 24.550781 0.652344 23.929688 0.5 23.304688 0.375 C 22.679688 0.25 22.046875 0.15625 21.410156 0.09375 C 20.777344 0.03125 20.136719 0 19.5 0 Z M 19.5 0 "/>
<g clip-path="url(#clip1)" clip-rule="nonzero">
<path style=" stroke:none;fill-rule:nonzero;fill:rgb(100%,100%,100%);fill-opacity:1;" d="M 23.855469 33.113281 Z M 12.453125 11.902344 L 12.453125 17.050781 C 12.453125 17.78125 11.855469 18.375 11.121094 18.375 L 11.09375 18.375 C 10.359375 18.375 9.761719 17.78125 9.761719 17.050781 L 9.761719 11.902344 C 9.761719 11.171875 10.359375 10.578125 11.09375 10.578125 L 11.121094 10.578125 C 11.855469 10.578125 12.453125 11.171875 12.453125 11.902344 Z M 16.628906 16.695312 C 16.496094 16.730469 16.386719 16.835938 16.351562 16.976562 C 16.210938 17.496094 15.78125 18.054688 14.992188 18.054688 C 14.25 18.054688 13.644531 17.457031 13.644531 16.71875 L 13.644531 10.042969 C 13.644531 9.304688 14.25 8.703125 14.992188 8.703125 C 15.734375 8.703125 16.335938 9.304688 16.335938 10.042969 L 16.335938 13.691406 C 16.335938 13.910156 16.511719 14.089844 16.730469 14.09375 C 16.472656 14.378906 16.292969 14.734375 16.226562 15.128906 C 16.132812 15.695312 16.28125 16.257812 16.628906 16.695312 Z M 21.421875 11.621094 C 21.449219 11.726562 21.515625 11.8125 21.609375 11.867188 L 17.925781 13.390625 C 17.925781 13.386719 17.925781 13.382812 17.925781 13.378906 L 17.925781 8.476562 C 17.925781 7.738281 18.527344 7.136719 19.269531 7.136719 C 20.011719 7.136719 20.613281 7.738281 20.613281 8.476562 L 20.613281 11.640625 C 20.613281 11.863281 20.796875 12.042969 21.019531 12.042969 C 21.242188 12.042969 21.421875 11.863281 21.421875 11.640625 Z M 17.144531 13.527344 C 17.167969 13.585938 17.207031 13.640625 17.253906 13.683594 C 17.214844 13.703125 17.175781 13.726562 17.140625 13.75 C 17.144531 13.730469 17.144531 13.710938 17.144531 13.691406 Z M 27.773438 12.839844 L 27.742188 12.796875 C 27.734375 12.789062 27.230469 12.199219 26.667969 11.628906 C 25.867188 10.820312 25.398438 10.488281 25.054688 10.488281 C 24.984375 10.488281 24.914062 10.5 24.847656 10.53125 L 22.207031 11.621094 C 22.214844 11.589844 22.21875 11.558594 22.21875 11.523438 L 22.21875 7.613281 C 22.21875 6.878906 22.921875 6.277344 23.789062 6.277344 C 24.652344 6.277344 25.359375 6.878906 25.359375 7.613281 L 25.359375 10.269531 C 25.359375 10.492188 25.539062 10.671875 25.761719 10.671875 C 25.984375 10.671875 26.167969 10.492188 26.167969 10.269531 L 26.167969 7.613281 C 26.167969 6.433594 25.101562 5.476562 23.789062 5.476562 C 22.476562 5.476562 21.410156 6.433594 21.410156 7.613281 L 21.410156 8.246094 C 21.292969 7.171875 20.378906 6.335938 19.269531 6.335938 C 18.082031 6.335938 17.117188 7.296875 17.117188 8.476562 L 17.117188 9.695312 C 16.949219 8.679688 16.058594 7.902344 14.992188 7.902344 C 13.804688 7.902344 12.839844 8.863281 12.839844 10.042969 L 12.839844 10.632812 C 12.449219 10.113281 11.824219 9.773438 11.121094 9.773438 L 11.09375 9.773438 C 9.914062 9.773438 8.953125 10.730469 8.953125 11.902344 L 8.953125 17.050781 C 8.953125 17.785156 9.332031 18.4375 9.90625 18.816406 C 9.769531 18.890625 9.679688 19.035156 9.691406 19.199219 C 9.707031 19.464844 10.125 25.738281 12 27.835938 L 12 32.476562 C 12 32.695312 12.179688 32.875 12.402344 32.875 C 12.625 32.875 12.808594 32.695312 12.808594 32.476562 L 12.808594 27.507812 L 12.6875 27.390625 C 10.925781 25.640625 10.5 19.210938 10.496094 19.148438 C 10.496094 19.128906 10.492188 19.109375 10.488281 19.089844 C 10.679688 19.148438 10.882812 19.175781 11.09375 19.175781 L 11.121094 19.175781 C 12.039062 19.175781 12.824219 18.597656 13.128906 17.789062 C 13.5 18.429688 14.195312 18.859375 14.992188 18.859375 C 16.238281 18.859375 16.921875 17.957031 17.132812 17.183594 C 17.136719 17.167969 17.136719 17.152344 17.136719 17.140625 C 17.648438 17.453125 18.292969 17.527344 19.046875 17.351562 C 20.609375 16.988281 21.90625 16.632812 22.71875 16.398438 C 22.757812 16.386719 22.796875 16.386719 22.835938 16.394531 C 21.886719 16.65625 19.964844 17.53125 18.589844 20.480469 C 18.542969 20.578125 18.539062 20.6875 18.574219 20.789062 C 18.613281 20.890625 18.6875 20.96875 18.785156 21.015625 C 18.839844 21.039062 18.894531 21.050781 18.953125 21.050781 C 19.113281 21.050781 19.257812 20.960938 19.320312 20.820312 C 20.941406 17.339844 23.320312 17.105469 23.417969 17.097656 L 23.738281 17.070312 L 23.789062 16.753906 C 23.839844 16.410156 23.714844 16.066406 23.449219 15.839844 C 23.191406 15.613281 22.824219 15.53125 22.492188 15.625 C 21.691406 15.859375 20.410156 16.207031 18.863281 16.570312 C 18.234375 16.714844 17.734375 16.636719 17.394531 16.332031 C 17.089844 16.0625 16.953125 15.671875 17.023438 15.261719 C 17.097656 14.835938 17.375 14.484375 17.773438 14.320312 L 25.070312 11.308594 C 25.375 11.453125 26.296875 12.351562 27.109375 13.296875 C 29.003906 16.28125 26.414062 21.667969 26.386719 21.722656 L 23.660156 27.082031 C 23.445312 27.503906 23.347656 27.976562 23.378906 28.445312 L 23.453125 32.828125 C 23.457031 33.046875 23.636719 33.222656 23.855469 33.222656 L 23.863281 33.222656 C 23.972656 33.222656 24.074219 33.179688 24.148438 33.101562 C 24.222656 33.023438 24.261719 32.921875 24.261719 32.816406 L 24.1875 28.421875 L 24.183594 28.402344 C 24.160156 28.070312 24.230469 27.742188 24.378906 27.445312 L 27.109375 22.078125 C 27.226562 21.839844 29.945312 16.203125 27.773438 12.839844 "/>
</g>
<g clip-path="url(#clip2)" clip-rule="nonzero">
<path style=" stroke:none;fill-rule:nonzero;fill:rgb(100%,100%,100%);fill-opacity:1;" d="M 23.855469 33.199219 L 16.332031 33.199219 C 16.117188 33.199219 15.941406 33.027344 15.941406 32.8125 C 15.941406 32.601562 16.117188 32.425781 16.332031 32.425781 L 23.855469 32.425781 C 24.070312 32.425781 24.246094 32.601562 24.246094 32.8125 C 24.246094 33.027344 24.070312 33.199219 23.855469 33.199219 "/>
</g>
</g>
</svg>
