<?xml version="1.0" encoding="UTF-8"?>
<svg xmlns="http://www.w3.org/2000/svg" xmlns:xlink="http://www.w3.org/1999/xlink" width="39pt" height="38.999999pt" viewBox="0 0 39 38.999999" version="1.2">
<defs>
<clipPath id="clip1">
  <path d="M 14 14 L 34.808594 14 L 34.808594 30.511719 L 14 30.511719 Z M 14 14 "/>
</clipPath>
<clipPath id="clip2">
  <path d="M 4.808594 7.261719 L 28 7.261719 L 28 26 L 4.808594 26 Z M 4.808594 7.261719 "/>
</clipPath>
</defs>
<g id="surface1">
<path style=" stroke:none;fill-rule:nonzero;fill:rgb(22.349548%,20.779419%,21.179199%);fill-opacity:1;" d="M 19.5 0 C 18.863281 0 18.222656 0.03125 17.589844 0.09375 C 16.953125 0.15625 16.320312 0.25 15.695312 0.375 C 15.070312 0.5 14.449219 0.652344 13.839844 0.839844 C 13.226562 1.023438 12.628906 1.238281 12.039062 1.484375 C 11.449219 1.730469 10.871094 2 10.308594 2.300781 C 9.746094 2.605469 9.199219 2.929688 8.667969 3.285156 C 8.136719 3.640625 7.621094 4.019531 7.128906 4.425781 C 6.636719 4.832031 6.164062 5.261719 5.710938 5.710938 C 5.261719 6.164062 4.832031 6.636719 4.425781 7.128906 C 4.019531 7.621094 3.640625 8.136719 3.285156 8.667969 C 2.929688 9.199219 2.605469 9.746094 2.300781 10.308594 C 2 10.871094 1.730469 11.449219 1.484375 12.039062 C 1.238281 12.628906 1.023438 13.226562 0.839844 13.839844 C 0.652344 14.449219 0.5 15.070312 0.375 15.695312 C 0.25 16.320312 0.15625 16.953125 0.09375 17.589844 C 0.03125 18.222656 0 18.863281 0 19.5 C 0 20.136719 0.03125 20.777344 0.09375 21.410156 C 0.15625 22.046875 0.25 22.679688 0.375 23.304688 C 0.5 23.929688 0.652344 24.550781 0.839844 25.160156 C 1.023438 25.773438 1.238281 26.371094 1.484375 26.960938 C 1.730469 27.550781 2 28.128906 2.300781 28.691406 C 2.605469 29.253906 2.929688 29.800781 3.285156 30.332031 C 3.640625 30.863281 4.019531 31.378906 4.425781 31.871094 C 4.832031 32.363281 5.261719 32.835938 5.710938 33.289062 C 6.164062 33.738281 6.636719 34.167969 7.128906 34.574219 C 7.621094 34.980469 8.136719 35.359375 8.667969 35.714844 C 9.199219 36.070312 9.746094 36.394531 10.308594 36.699219 C 10.871094 37 11.449219 37.269531 12.039062 37.515625 C 12.628906 37.761719 13.226562 37.976562 13.839844 38.160156 C 14.449219 38.347656 15.070312 38.5 15.695312 38.625 C 16.320312 38.75 16.953125 38.84375 17.589844 38.90625 C 18.222656 38.96875 18.863281 39 19.5 39 C 20.136719 39 20.777344 38.96875 21.410156 38.90625 C 22.046875 38.84375 22.679688 38.75 23.304688 38.625 C 23.929688 38.5 24.550781 38.347656 25.160156 38.160156 C 25.773438 37.976562 26.371094 37.761719 26.960938 37.515625 C 27.550781 37.269531 28.128906 37 28.691406 36.699219 C 29.253906 36.394531 29.800781 36.070312 30.332031 35.714844 C 30.863281 35.359375 31.378906 34.980469 31.871094 34.574219 C 32.363281 34.167969 32.835938 33.738281 33.289062 33.289062 C 33.738281 32.835938 34.167969 32.363281 34.574219 31.871094 C 34.980469 31.378906 35.359375 30.863281 35.714844 30.332031 C 36.070312 29.800781 36.394531 29.253906 36.699219 28.691406 C 37 28.128906 37.269531 27.550781 37.515625 26.960938 C 37.761719 26.371094 37.976562 25.773438 38.160156 25.160156 C 38.347656 24.550781 38.5 23.929688 38.625 23.304688 C 38.75 22.679688 38.84375 22.046875 38.90625 21.410156 C 38.96875 20.777344 39 20.136719 39 19.5 C 39 18.863281 38.96875 18.222656 38.90625 17.589844 C 38.84375 16.953125 38.75 16.320312 38.625 15.695312 C 38.5 15.070312 38.347656 14.449219 38.160156 13.839844 C 37.976562 13.226562 37.761719 12.628906 37.515625 12.039062 C 37.269531 11.449219 37 10.871094 36.699219 10.308594 C 36.394531 9.746094 36.070312 9.199219 35.714844 8.667969 C 35.359375 8.136719 34.980469 7.621094 34.574219 7.128906 C 34.167969 6.636719 33.738281 6.164062 33.289062 5.710938 C 32.835938 5.261719 32.363281 4.832031 31.871094 4.425781 C 31.378906 4.019531 30.863281 3.640625 30.332031 3.285156 C 29.800781 2.929688 29.253906 2.605469 28.691406 2.300781 C 28.128906 2 27.550781 1.730469 26.960938 1.484375 C 26.371094 1.238281 25.773438 1.023438 25.160156 0.839844 C 24.550781 0.652344 23.929688 0.5 23.304688 0.375 C 22.679688 0.25 22.046875 0.15625 21.410156 0.09375 C 20.777344 0.03125 20.136719 0 19.5 0 Z M 19.5 0 "/>
<g clip-path="url(#clip1)" clip-rule="nonzero">
<path style=" stroke:none;fill-rule:nonzero;fill:rgb(87.059021%,0%,16.468811%);fill-opacity:1;" d="M 26.148438 14.824219 C 30.933594 15.121094 34.742188 18.402344 34.742188 22.460938 C 34.742188 26.71875 30.554688 30.125 25.4375 30.125 C 22.988281 30.125 20.621094 29.289062 19.152344 28.105469 L 15 29.039062 C 14.542969 29.140625 14.207031 28.628906 14.46875 28.246094 L 16.046875 26 C 18.320312 25.824219 20.460938 25.0625 22.21875 23.808594 L 26.355469 24.769531 C 27.710938 25.085938 28.746094 23.570312 27.960938 22.414062 L 25.785156 19.210938 C 26.097656 18.359375 26.277344 17.34375 26.277344 16.332031 C 26.277344 15.816406 26.238281 15.316406 26.148438 14.824219 Z M 26.148438 14.824219 "/>
</g>
<g clip-path="url(#clip2)" clip-rule="nonzero">
<path style=" stroke:none;fill-rule:nonzero;fill:rgb(1.179504%,66.268921%,95.689392%);fill-opacity:1;" d="M 24.625 19.324219 L 27.117188 22.996094 C 27.382812 23.378906 27.039062 23.882812 26.582031 23.777344 L 21.972656 22.710938 C 20.101562 24.1875 17.648438 25.015625 15.039062 25.015625 C 9.40625 25.015625 4.808594 21.148438 4.808594 16.332031 C 4.808594 11.519531 9.40625 7.652344 15.039062 7.652344 C 20.667969 7.652344 25.261719 11.519531 25.261719 16.332031 C 25.261719 17.472656 25.007812 18.566406 24.625 19.324219 Z M 24.625 19.324219 "/>
</g>
<path style=" stroke:none;fill-rule:evenodd;fill:rgb(100%,100%,100%);fill-opacity:1;" d="M 20.589844 16.332031 C 20.589844 16.898438 20.132812 17.355469 19.570312 17.355469 C 19.007812 17.355469 18.554688 16.898438 18.554688 16.332031 C 18.554688 15.769531 19.007812 15.3125 19.570312 15.3125 C 20.132812 15.3125 20.589844 15.769531 20.589844 16.332031 Z M 20.589844 16.332031 "/>
<path style=" stroke:none;fill-rule:evenodd;fill:rgb(100%,100%,100%);fill-opacity:1;" d="M 16.007812 16.332031 C 16.007812 16.898438 15.550781 17.355469 14.988281 17.355469 C 14.429688 17.355469 13.972656 16.898438 13.972656 16.332031 C 13.972656 15.769531 14.429688 15.3125 14.988281 15.3125 C 15.550781 15.3125 16.007812 15.769531 16.007812 16.332031 Z M 16.007812 16.332031 "/>
<path style=" stroke:none;fill-rule:evenodd;fill:rgb(100%,100%,100%);fill-opacity:1;" d="M 11.425781 16.332031 C 11.425781 16.898438 10.96875 17.355469 10.410156 17.355469 C 9.847656 17.355469 9.390625 16.898438 9.390625 16.332031 C 9.390625 15.769531 9.847656 15.3125 10.410156 15.3125 C 10.96875 15.3125 11.425781 15.769531 11.425781 16.332031 Z M 11.425781 16.332031 "/>
</g>
</svg>
