<?xml version="1.0" encoding="UTF-8"?>
<svg xmlns="http://www.w3.org/2000/svg" xmlns:xlink="http://www.w3.org/1999/xlink" width="39pt" height="38.999999pt" viewBox="0 0 39 38.999999" version="1.2">
<defs>
<clipPath id="clip1">
  <path d="M 6.71875 8.703125 L 17 8.703125 L 17 24 L 6.71875 24 Z M 6.71875 8.703125 "/>
</clipPath>
<clipPath id="clip2">
  <path d="M 15 9 L 35.21875 9 L 35.21875 35.703125 L 15 35.703125 Z M 15 9 "/>
</clipPath>
</defs>
<g id="surface1">
<path style=" stroke:none;fill-rule:nonzero;fill:rgb(22.349548%,20.779419%,21.179199%);fill-opacity:1;" d="M 19.5 0 C 18.863281 0 18.222656 0.03125 17.589844 0.09375 C 16.953125 0.15625 16.320312 0.25 15.695312 0.375 C 15.070312 0.5 14.449219 0.652344 13.839844 0.839844 C 13.226562 1.023438 12.628906 1.238281 12.039062 1.484375 C 11.449219 1.730469 10.871094 2 10.308594 2.300781 C 9.746094 2.605469 9.199219 2.929688 8.667969 3.285156 C 8.136719 3.640625 7.621094 4.019531 7.128906 4.425781 C 6.636719 4.832031 6.164062 5.261719 5.710938 5.710938 C 5.261719 6.164062 4.832031 6.636719 4.425781 7.128906 C 4.019531 7.621094 3.640625 8.136719 3.285156 8.667969 C 2.929688 9.199219 2.605469 9.746094 2.300781 10.308594 C 2 10.871094 1.730469 11.449219 1.484375 12.039062 C 1.238281 12.628906 1.023438 13.226562 0.839844 13.839844 C 0.652344 14.449219 0.5 15.070312 0.375 15.695312 C 0.25 16.320312 0.15625 16.953125 0.09375 17.589844 C 0.03125 18.222656 0 18.863281 0 19.5 C 0 20.136719 0.03125 20.777344 0.09375 21.410156 C 0.15625 22.046875 0.25 22.679688 0.375 23.304688 C 0.5 23.929688 0.652344 24.550781 0.839844 25.160156 C 1.023438 25.773438 1.238281 26.371094 1.484375 26.960938 C 1.730469 27.550781 2 28.128906 2.300781 28.691406 C 2.605469 29.253906 2.929688 29.800781 3.285156 30.332031 C 3.640625 30.863281 4.019531 31.378906 4.425781 31.871094 C 4.832031 32.363281 5.261719 32.835938 5.710938 33.289062 C 6.164062 33.738281 6.636719 34.167969 7.128906 34.574219 C 7.621094 34.980469 8.136719 35.359375 8.667969 35.714844 C 9.199219 36.070312 9.746094 36.394531 10.308594 36.699219 C 10.871094 37 11.449219 37.269531 12.039062 37.515625 C 12.628906 37.761719 13.226562 37.976562 13.839844 38.160156 C 14.449219 38.347656 15.070312 38.5 15.695312 38.625 C 16.320312 38.75 16.953125 38.84375 17.589844 38.90625 C 18.222656 38.96875 18.863281 39 19.5 39 C 20.136719 39 20.777344 38.96875 21.410156 38.90625 C 22.046875 38.84375 22.679688 38.75 23.304688 38.625 C 23.929688 38.5 24.550781 38.347656 25.160156 38.160156 C 25.773438 37.976562 26.371094 37.761719 26.960938 37.515625 C 27.550781 37.269531 28.128906 37 28.691406 36.699219 C 29.253906 36.394531 29.800781 36.070312 30.332031 35.714844 C 30.863281 35.359375 31.378906 34.980469 31.871094 34.574219 C 32.363281 34.167969 32.835938 33.738281 33.289062 33.289062 C 33.738281 32.835938 34.167969 32.363281 34.574219 31.871094 C 34.980469 31.378906 35.359375 30.863281 35.714844 30.332031 C 36.070312 29.800781 36.394531 29.253906 36.699219 28.691406 C 37 28.128906 37.269531 27.550781 37.515625 26.960938 C 37.761719 26.371094 37.976562 25.773438 38.160156 25.160156 C 38.347656 24.550781 38.5 23.929688 38.625 23.304688 C 38.75 22.679688 38.84375 22.046875 38.90625 21.410156 C 38.96875 20.777344 39 20.136719 39 19.5 C 39 18.863281 38.96875 18.222656 38.90625 17.589844 C 38.84375 16.953125 38.75 16.320312 38.625 15.695312 C 38.5 15.070312 38.347656 14.449219 38.160156 13.839844 C 37.976562 13.226562 37.761719 12.628906 37.515625 12.039062 C 37.269531 11.449219 37 10.871094 36.699219 10.308594 C 36.394531 9.746094 36.070312 9.199219 35.714844 8.667969 C 35.359375 8.136719 34.980469 7.621094 34.574219 7.128906 C 34.167969 6.636719 33.738281 6.164062 33.289062 5.710938 C 32.835938 5.261719 32.363281 4.832031 31.871094 4.425781 C 31.378906 4.019531 30.863281 3.640625 30.332031 3.285156 C 29.800781 2.929688 29.253906 2.605469 28.691406 2.300781 C 28.128906 2 27.550781 1.730469 26.960938 1.484375 C 26.371094 1.238281 25.773438 1.023438 25.160156 0.839844 C 24.550781 0.652344 23.929688 0.5 23.304688 0.375 C 22.679688 0.25 22.046875 0.15625 21.410156 0.09375 C 20.777344 0.03125 20.136719 0 19.5 0 Z M 19.5 0 "/>
<g clip-path="url(#clip1)" clip-rule="nonzero">
<path style=" stroke:none;fill-rule:nonzero;fill:rgb(100%,100%,100%);fill-opacity:1;" d="M 15.628906 23.964844 L 7.324219 23.964844 C 6.996094 23.964844 6.730469 23.703125 6.730469 23.378906 L 6.730469 9.289062 C 6.730469 8.964844 6.996094 8.703125 7.324219 8.703125 L 15.628906 8.703125 C 15.957031 8.703125 16.222656 8.964844 16.222656 9.289062 L 16.222656 23.378906 C 16.222656 23.703125 15.957031 23.964844 15.628906 23.964844 Z M 7.917969 22.789062 L 15.035156 22.789062 L 15.035156 9.878906 L 7.917969 9.878906 Z M 7.917969 22.789062 "/>
</g>
<g clip-path="url(#clip2)" clip-rule="nonzero">
<path style=" stroke:none;fill-rule:nonzero;fill:rgb(100%,100%,100%);fill-opacity:1;" d="M 22.152344 35.703125 C 20.921875 35.703125 20.039062 35.019531 20.003906 34.988281 C 19.863281 34.875 19.78125 34.707031 19.78125 34.53125 L 19.78125 30.550781 L 16.363281 23.222656 L 15.363281 22.730469 C 15.070312 22.582031 14.949219 22.230469 15.097656 21.941406 C 15.242188 21.648438 15.597656 21.535156 15.894531 21.679688 L 17.078125 22.265625 C 17.199219 22.324219 17.296875 22.425781 17.351562 22.542969 L 20.910156 30.175781 C 20.949219 30.25 20.96875 30.335938 20.96875 30.421875 L 20.96875 34.210938 C 21.210938 34.34375 21.640625 34.53125 22.152344 34.53125 C 22.804688 34.53125 24.527344 32.929688 24.527344 31.007812 C 24.527344 28.941406 23.390625 25.964844 23.378906 25.933594 C 23.308594 25.753906 23.332031 25.550781 23.445312 25.394531 C 23.554688 25.234375 23.738281 25.140625 23.933594 25.140625 L 32.238281 25.140625 C 33.21875 25.140625 34.019531 24.347656 34.019531 23.378906 C 34.019531 22.769531 33.699219 22.210938 33.164062 21.882812 C 32.984375 21.773438 32.875 21.574219 32.882812 21.363281 C 32.894531 21.148438 33.015625 20.957031 33.203125 20.863281 C 33.707031 20.605469 34.019531 20.109375 34.019531 19.5625 C 34.019531 18.820312 33.453125 18.199219 32.703125 18.113281 C 32.472656 18.089844 32.28125 17.933594 32.207031 17.71875 C 32.132812 17.5 32.195312 17.261719 32.363281 17.105469 C 32.664062 16.824219 32.832031 16.445312 32.832031 16.039062 C 32.832031 15.300781 32.265625 14.675781 31.515625 14.59375 C 31.289062 14.566406 31.09375 14.410156 31.019531 14.195312 C 30.949219 13.980469 31.007812 13.742188 31.175781 13.585938 C 31.476562 13.300781 31.644531 12.921875 31.644531 12.519531 C 31.644531 11.710938 30.980469 11.050781 30.160156 11.050781 L 19.1875 11.050781 C 18.222656 11.050781 16.609375 11.5 16.046875 12.054688 C 15.816406 12.28125 15.441406 12.28125 15.210938 12.054688 C 14.976562 11.824219 14.976562 11.453125 15.210938 11.222656 C 16.097656 10.34375 18.089844 9.878906 19.1875 9.878906 L 30.160156 9.878906 C 31.632812 9.878906 32.832031 11.0625 32.832031 12.519531 C 32.832031 12.933594 32.734375 13.332031 32.550781 13.691406 C 33.429688 14.128906 34.019531 15.023438 34.019531 16.039062 C 34.019531 16.453125 33.921875 16.855469 33.738281 17.214844 C 34.617188 17.652344 35.203125 18.542969 35.203125 19.5625 C 35.203125 20.265625 34.921875 20.925781 34.433594 21.410156 C 34.925781 21.941406 35.203125 22.636719 35.203125 23.378906 C 35.203125 24.996094 33.875 26.3125 32.238281 26.3125 L 24.769531 26.3125 C 25.132812 27.402344 25.710938 29.402344 25.710938 31.007812 C 25.710938 33.554688 23.527344 35.703125 22.152344 35.703125 Z M 22.152344 35.703125 "/>
</g>
</g>
</svg>
