<?xml version="1.0" encoding="UTF-8"?>
<svg xmlns="http://www.w3.org/2000/svg" xmlns:xlink="http://www.w3.org/1999/xlink" width="39pt" height="38.999999pt" viewBox="0 0 39 38.999999" version="1.2">
<defs>
<clipPath id="clip1">
  <path d="M 6.90625 15 L 17 15 L 17 30.285156 L 6.90625 30.285156 Z M 6.90625 15 "/>
</clipPath>
<clipPath id="clip2">
  <path d="M 15 4.035156 L 34.65625 4.035156 L 34.65625 30 L 15 30 Z M 15 4.035156 "/>
</clipPath>
</defs>
<g id="surface1">
<path style=" stroke:none;fill-rule:nonzero;fill:rgb(22.349548%,20.779419%,21.179199%);fill-opacity:1;" d="M 19.5 0 C 18.863281 0 18.222656 0.03125 17.589844 0.09375 C 16.953125 0.15625 16.320312 0.25 15.695312 0.375 C 15.070312 0.5 14.449219 0.652344 13.839844 0.839844 C 13.226562 1.023438 12.628906 1.238281 12.039062 1.484375 C 11.449219 1.730469 10.871094 2 10.308594 2.300781 C 9.746094 2.605469 9.199219 2.929688 8.667969 3.285156 C 8.136719 3.640625 7.621094 4.019531 7.128906 4.425781 C 6.636719 4.832031 6.164062 5.261719 5.710938 5.710938 C 5.261719 6.164062 4.832031 6.636719 4.425781 7.128906 C 4.019531 7.621094 3.640625 8.136719 3.285156 8.667969 C 2.929688 9.199219 2.605469 9.746094 2.300781 10.308594 C 2 10.871094 1.730469 11.449219 1.484375 12.039062 C 1.238281 12.628906 1.023438 13.226562 0.839844 13.839844 C 0.652344 14.449219 0.5 15.070312 0.375 15.695312 C 0.25 16.320312 0.15625 16.953125 0.09375 17.589844 C 0.03125 18.222656 0 18.863281 0 19.5 C 0 20.136719 0.03125 20.777344 0.09375 21.410156 C 0.15625 22.046875 0.25 22.679688 0.375 23.304688 C 0.5 23.929688 0.652344 24.550781 0.839844 25.160156 C 1.023438 25.773438 1.238281 26.371094 1.484375 26.960938 C 1.730469 27.550781 2 28.128906 2.300781 28.691406 C 2.605469 29.253906 2.929688 29.800781 3.285156 30.332031 C 3.640625 30.863281 4.019531 31.378906 4.425781 31.871094 C 4.832031 32.363281 5.261719 32.835938 5.710938 33.289062 C 6.164062 33.738281 6.636719 34.167969 7.128906 34.574219 C 7.621094 34.980469 8.136719 35.359375 8.667969 35.714844 C 9.199219 36.070312 9.746094 36.394531 10.308594 36.699219 C 10.871094 37 11.449219 37.269531 12.039062 37.515625 C 12.628906 37.761719 13.226562 37.976562 13.839844 38.160156 C 14.449219 38.347656 15.070312 38.5 15.695312 38.625 C 16.320312 38.75 16.953125 38.84375 17.589844 38.90625 C 18.222656 38.96875 18.863281 39 19.5 39 C 20.136719 39 20.777344 38.96875 21.410156 38.90625 C 22.046875 38.84375 22.679688 38.75 23.304688 38.625 C 23.929688 38.5 24.550781 38.347656 25.160156 38.160156 C 25.773438 37.976562 26.371094 37.761719 26.960938 37.515625 C 27.550781 37.269531 28.128906 37 28.691406 36.699219 C 29.253906 36.394531 29.800781 36.070312 30.332031 35.714844 C 30.863281 35.359375 31.378906 34.980469 31.871094 34.574219 C 32.363281 34.167969 32.835938 33.738281 33.289062 33.289062 C 33.738281 32.835938 34.167969 32.363281 34.574219 31.871094 C 34.980469 31.378906 35.359375 30.863281 35.714844 30.332031 C 36.070312 29.800781 36.394531 29.253906 36.699219 28.691406 C 37 28.128906 37.269531 27.550781 37.515625 26.960938 C 37.761719 26.371094 37.976562 25.773438 38.160156 25.160156 C 38.347656 24.550781 38.5 23.929688 38.625 23.304688 C 38.75 22.679688 38.84375 22.046875 38.90625 21.410156 C 38.96875 20.777344 39 20.136719 39 19.5 C 39 18.863281 38.96875 18.222656 38.90625 17.589844 C 38.84375 16.953125 38.75 16.320312 38.625 15.695312 C 38.5 15.070312 38.347656 14.449219 38.160156 13.839844 C 37.976562 13.226562 37.761719 12.628906 37.515625 12.039062 C 37.269531 11.449219 37 10.871094 36.699219 10.308594 C 36.394531 9.746094 36.070312 9.199219 35.714844 8.667969 C 35.359375 8.136719 34.980469 7.621094 34.574219 7.128906 C 34.167969 6.636719 33.738281 6.164062 33.289062 5.710938 C 32.835938 5.261719 32.363281 4.832031 31.871094 4.425781 C 31.378906 4.019531 30.863281 3.640625 30.332031 3.285156 C 29.800781 2.929688 29.253906 2.605469 28.691406 2.300781 C 28.128906 2 27.550781 1.730469 26.960938 1.484375 C 26.371094 1.238281 25.773438 1.023438 25.160156 0.839844 C 24.550781 0.652344 23.929688 0.5 23.304688 0.375 C 22.679688 0.25 22.046875 0.15625 21.410156 0.09375 C 20.777344 0.03125 20.136719 0 19.5 0 Z M 19.5 0 "/>
<g clip-path="url(#clip1)" clip-rule="nonzero">
<path style=" stroke:none;fill-rule:nonzero;fill:rgb(100%,100%,100%);fill-opacity:1;" d="M 15.585938 30.285156 L 7.5 30.285156 C 7.179688 30.285156 6.921875 30.03125 6.921875 29.714844 L 6.921875 16.019531 C 6.921875 15.707031 7.179688 15.449219 7.5 15.449219 L 15.585938 15.449219 C 15.902344 15.449219 16.160156 15.707031 16.160156 16.019531 L 16.160156 29.714844 C 16.160156 30.03125 15.902344 30.285156 15.585938 30.285156 Z M 8.078125 29.144531 L 15.007812 29.144531 L 15.007812 16.589844 L 8.078125 16.589844 Z M 8.078125 29.144531 "/>
</g>
<g clip-path="url(#clip2)" clip-rule="nonzero">
<path style=" stroke:none;fill-rule:nonzero;fill:rgb(100%,100%,100%);fill-opacity:1;" d="M 29.734375 29.144531 L 19.050781 29.144531 C 17.980469 29.144531 16.039062 28.691406 15.175781 27.835938 C 14.949219 27.617188 14.949219 27.253906 15.175781 27.03125 C 15.402344 26.808594 15.765625 26.808594 15.992188 27.03125 C 16.539062 27.570312 18.109375 28.003906 19.046875 28.003906 L 29.730469 28.003906 C 30.527344 28.003906 31.175781 27.367188 31.175781 26.578125 C 31.175781 26.1875 31.011719 25.820312 30.71875 25.542969 C 30.554688 25.390625 30.496094 25.160156 30.566406 24.949219 C 30.636719 24.738281 30.828125 24.589844 31.050781 24.5625 C 31.78125 24.480469 32.332031 23.871094 32.332031 23.152344 C 32.332031 22.761719 32.167969 22.394531 31.875 22.117188 C 31.710938 21.96875 31.652344 21.734375 31.722656 21.523438 C 31.792969 21.3125 31.980469 21.164062 32.207031 21.136719 C 32.933594 21.054688 33.484375 20.449219 33.484375 19.730469 C 33.484375 19.199219 33.183594 18.714844 32.695312 18.46875 C 32.511719 18.371094 32.390625 18.1875 32.382812 17.984375 C 32.375 17.777344 32.480469 17.582031 32.65625 17.476562 C 33.175781 17.15625 33.484375 16.613281 33.484375 16.019531 C 33.484375 15.078125 32.707031 14.308594 31.753906 14.308594 L 23.667969 14.308594 C 23.476562 14.308594 23.300781 14.214844 23.191406 14.0625 C 23.085938 13.90625 23.0625 13.710938 23.128906 13.535156 C 23.140625 13.503906 24.246094 10.609375 24.246094 8.601562 C 24.246094 6.734375 22.570312 5.179688 21.9375 5.179688 C 21.4375 5.179688 21.023438 5.359375 20.78125 5.488281 L 20.78125 9.171875 C 20.78125 9.253906 20.761719 9.335938 20.730469 9.410156 L 17.265625 16.828125 C 17.207031 16.949219 17.113281 17.042969 17 17.101562 L 15.84375 17.671875 C 15.558594 17.8125 15.210938 17.699219 15.066406 17.417969 C 14.925781 17.132812 15.042969 16.792969 15.328125 16.652344 L 16.300781 16.171875 L 19.625 9.046875 L 19.625 5.179688 C 19.625 5.003906 19.707031 4.839844 19.84375 4.730469 C 19.878906 4.703125 20.738281 4.035156 21.9375 4.035156 C 23.273438 4.035156 25.402344 6.125 25.402344 8.601562 C 25.402344 10.164062 24.835938 12.105469 24.484375 13.167969 L 31.753906 13.167969 C 33.34375 13.167969 34.640625 14.449219 34.640625 16.019531 C 34.640625 16.742188 34.371094 17.417969 33.890625 17.933594 C 34.363281 18.402344 34.640625 19.042969 34.640625 19.730469 C 34.640625 20.71875 34.066406 21.589844 33.214844 22.011719 C 33.390625 22.363281 33.484375 22.75 33.484375 23.152344 C 33.484375 24.144531 32.910156 25.011719 32.058594 25.4375 C 32.238281 25.785156 32.332031 26.171875 32.332031 26.578125 C 32.332031 27.992188 31.164062 29.144531 29.734375 29.144531 Z M 29.734375 29.144531 "/>
</g>
</g>
</svg>
