<?xml version="1.0" encoding="UTF-8"?>
<svg xmlns="http://www.w3.org/2000/svg" xmlns:xlink="http://www.w3.org/1999/xlink" width="39pt" height="38.999999pt" viewBox="0 0 39 38.999999" version="1.2">
<defs>
<clipPath id="clip1">
  <path d="M 25 12 L 33 12 L 33 19 L 25 19 Z M 25 12 "/>
</clipPath>
<clipPath id="clip2">
  <path d="M 4.445312 8.414062 L 30.398438 4.472656 L 34.335938 30.425781 L 8.382812 34.363281 Z M 4.445312 8.414062 "/>
</clipPath>
<clipPath id="clip3">
  <path d="M 4.445312 8.414062 L 30.398438 4.472656 L 34.335938 30.425781 L 8.382812 34.363281 Z M 4.445312 8.414062 "/>
</clipPath>
<clipPath id="clip4">
  <path d="M 11 19 L 17 19 L 17 34 L 11 34 Z M 11 19 "/>
</clipPath>
<clipPath id="clip5">
  <path d="M 4.445312 8.414062 L 30.398438 4.472656 L 34.335938 30.425781 L 8.382812 34.363281 Z M 4.445312 8.414062 "/>
</clipPath>
<clipPath id="clip6">
  <path d="M 4.445312 8.414062 L 30.398438 4.472656 L 34.335938 30.425781 L 8.382812 34.363281 Z M 4.445312 8.414062 "/>
</clipPath>
<clipPath id="clip7">
  <path d="M 5 15 L 11 15 L 11 22 L 5 22 Z M 5 15 "/>
</clipPath>
<clipPath id="clip8">
  <path d="M 4.445312 8.414062 L 30.398438 4.472656 L 34.335938 30.425781 L 8.382812 34.363281 Z M 4.445312 8.414062 "/>
</clipPath>
<clipPath id="clip9">
  <path d="M 4.445312 8.414062 L 30.398438 4.472656 L 34.335938 30.425781 L 8.382812 34.363281 Z M 4.445312 8.414062 "/>
</clipPath>
<clipPath id="clip10">
  <path d="M 10 5 L 31 5 L 31 26 L 10 26 Z M 10 5 "/>
</clipPath>
<clipPath id="clip11">
  <path d="M 4.445312 8.414062 L 30.398438 4.472656 L 34.335938 30.425781 L 8.382812 34.363281 Z M 4.445312 8.414062 "/>
</clipPath>
<clipPath id="clip12">
  <path d="M 4.445312 8.414062 L 30.398438 4.472656 L 34.335938 30.425781 L 8.382812 34.363281 Z M 4.445312 8.414062 "/>
</clipPath>
<clipPath id="clip13">
  <path d="M 26 5 L 31 5 L 31 26 L 26 26 Z M 26 5 "/>
</clipPath>
<clipPath id="clip14">
  <path d="M 4.445312 8.414062 L 30.398438 4.472656 L 34.335938 30.425781 L 8.382812 34.363281 Z M 4.445312 8.414062 "/>
</clipPath>
<clipPath id="clip15">
  <path d="M 4.445312 8.414062 L 30.398438 4.472656 L 34.335938 30.425781 L 8.382812 34.363281 Z M 4.445312 8.414062 "/>
</clipPath>
<clipPath id="clip16">
  <path d="M 7 14 L 12 14 L 12 22 L 7 22 Z M 7 14 "/>
</clipPath>
<clipPath id="clip17">
  <path d="M 4.445312 8.414062 L 30.398438 4.472656 L 34.335938 30.425781 L 8.382812 34.363281 Z M 4.445312 8.414062 "/>
</clipPath>
<clipPath id="clip18">
  <path d="M 4.445312 8.414062 L 30.398438 4.472656 L 34.335938 30.425781 L 8.382812 34.363281 Z M 4.445312 8.414062 "/>
</clipPath>
</defs>
<g id="surface1">
<path style=" stroke:none;fill-rule:nonzero;fill:rgb(22.349548%,20.779419%,21.179199%);fill-opacity:1;" d="M 19.5 0 C 18.863281 0 18.222656 0.03125 17.589844 0.09375 C 16.953125 0.15625 16.320312 0.25 15.695312 0.375 C 15.070312 0.5 14.449219 0.652344 13.839844 0.839844 C 13.226562 1.023438 12.628906 1.238281 12.039062 1.484375 C 11.449219 1.730469 10.871094 2 10.308594 2.300781 C 9.746094 2.605469 9.199219 2.929688 8.667969 3.285156 C 8.136719 3.640625 7.621094 4.019531 7.128906 4.425781 C 6.636719 4.832031 6.164062 5.261719 5.710938 5.710938 C 5.261719 6.164062 4.832031 6.636719 4.425781 7.128906 C 4.019531 7.621094 3.640625 8.136719 3.285156 8.667969 C 2.929688 9.199219 2.605469 9.746094 2.300781 10.308594 C 2 10.871094 1.730469 11.449219 1.484375 12.039062 C 1.238281 12.628906 1.023438 13.226562 0.839844 13.839844 C 0.652344 14.449219 0.5 15.070312 0.375 15.695312 C 0.25 16.320312 0.15625 16.953125 0.09375 17.589844 C 0.03125 18.222656 0 18.863281 0 19.5 C 0 20.136719 0.03125 20.777344 0.09375 21.410156 C 0.15625 22.046875 0.25 22.679688 0.375 23.304688 C 0.5 23.929688 0.652344 24.550781 0.839844 25.160156 C 1.023438 25.773438 1.238281 26.371094 1.484375 26.960938 C 1.730469 27.550781 2 28.128906 2.300781 28.691406 C 2.605469 29.253906 2.929688 29.800781 3.285156 30.332031 C 3.640625 30.863281 4.019531 31.378906 4.425781 31.871094 C 4.832031 32.363281 5.261719 32.835938 5.710938 33.289062 C 6.164062 33.738281 6.636719 34.167969 7.128906 34.574219 C 7.621094 34.980469 8.136719 35.359375 8.667969 35.714844 C 9.199219 36.070312 9.746094 36.394531 10.308594 36.699219 C 10.871094 37 11.449219 37.269531 12.039062 37.515625 C 12.628906 37.761719 13.226562 37.976562 13.839844 38.160156 C 14.449219 38.347656 15.070312 38.5 15.695312 38.625 C 16.320312 38.75 16.953125 38.84375 17.589844 38.90625 C 18.222656 38.96875 18.863281 39 19.5 39 C 20.136719 39 20.777344 38.96875 21.410156 38.90625 C 22.046875 38.84375 22.679688 38.75 23.304688 38.625 C 23.929688 38.5 24.550781 38.347656 25.160156 38.160156 C 25.773438 37.976562 26.371094 37.761719 26.960938 37.515625 C 27.550781 37.269531 28.128906 37 28.691406 36.699219 C 29.253906 36.394531 29.800781 36.070312 30.332031 35.714844 C 30.863281 35.359375 31.378906 34.980469 31.871094 34.574219 C 32.363281 34.167969 32.835938 33.738281 33.289062 33.289062 C 33.738281 32.835938 34.167969 32.363281 34.574219 31.871094 C 34.980469 31.378906 35.359375 30.863281 35.714844 30.332031 C 36.070312 29.800781 36.394531 29.253906 36.699219 28.691406 C 37 28.128906 37.269531 27.550781 37.515625 26.960938 C 37.761719 26.371094 37.976562 25.773438 38.160156 25.160156 C 38.347656 24.550781 38.5 23.929688 38.625 23.304688 C 38.75 22.679688 38.84375 22.046875 38.90625 21.410156 C 38.96875 20.777344 39 20.136719 39 19.5 C 39 18.863281 38.96875 18.222656 38.90625 17.589844 C 38.84375 16.953125 38.75 16.320312 38.625 15.695312 C 38.5 15.070312 38.347656 14.449219 38.160156 13.839844 C 37.976562 13.226562 37.761719 12.628906 37.515625 12.039062 C 37.269531 11.449219 37 10.871094 36.699219 10.308594 C 36.394531 9.746094 36.070312 9.199219 35.714844 8.667969 C 35.359375 8.136719 34.980469 7.621094 34.574219 7.128906 C 34.167969 6.636719 33.738281 6.164062 33.289062 5.710938 C 32.835938 5.261719 32.363281 4.832031 31.871094 4.425781 C 31.378906 4.019531 30.863281 3.640625 30.332031 3.285156 C 29.800781 2.929688 29.253906 2.605469 28.691406 2.300781 C 28.128906 2 27.550781 1.730469 26.960938 1.484375 C 26.371094 1.238281 25.773438 1.023438 25.160156 0.839844 C 24.550781 0.652344 23.929688 0.5 23.304688 0.375 C 22.679688 0.25 22.046875 0.15625 21.410156 0.09375 C 20.777344 0.03125 20.136719 0 19.5 0 Z M 19.5 0 "/>
<g clip-path="url(#clip1)" clip-rule="nonzero">
<g clip-path="url(#clip2)" clip-rule="nonzero">
<g clip-path="url(#clip3)" clip-rule="nonzero">
<path style=" stroke:none;fill-rule:nonzero;fill:rgb(92.549133%,6.269836%,30.198669%);fill-opacity:1;" d="M 32.027344 15.183594 C 32.289062 16.910156 31.101562 18.519531 29.375 18.78125 C 27.652344 19.042969 26.039062 17.855469 25.777344 16.132812 C 25.515625 14.40625 26.703125 12.796875 28.429688 12.535156 C 30.152344 12.273438 31.765625 13.457031 32.027344 15.183594 "/>
</g>
</g>
</g>
<g clip-path="url(#clip4)" clip-rule="nonzero">
<g clip-path="url(#clip5)" clip-rule="nonzero">
<g clip-path="url(#clip6)" clip-rule="nonzero">
<path style=" stroke:none;fill-rule:nonzero;fill:rgb(63.139343%,74.899292%,9.408569%);fill-opacity:1;" d="M 15.375 33.292969 L 14.3125 33.453125 C 13.726562 33.542969 13.175781 33.136719 13.089844 32.554688 L 11.261719 20.511719 C 11.171875 19.929688 11.578125 19.378906 12.160156 19.289062 L 13.226562 19.128906 C 13.808594 19.039062 14.359375 19.445312 14.449219 20.027344 L 16.277344 32.070312 C 16.363281 32.652344 15.957031 33.203125 15.375 33.292969 "/>
</g>
</g>
</g>
<g clip-path="url(#clip7)" clip-rule="nonzero">
<g clip-path="url(#clip8)" clip-rule="nonzero">
<g clip-path="url(#clip9)" clip-rule="nonzero">
<path style=" stroke:none;fill-rule:nonzero;fill:rgb(1.179504%,66.268921%,95.689392%);fill-opacity:1;" d="M 9.453125 21.070312 L 7.570312 21.355469 C 6.945312 21.453125 6.355469 21.015625 6.261719 20.390625 L 5.753906 17.042969 C 5.65625 16.417969 6.09375 15.828125 6.71875 15.730469 L 8.597656 15.445312 C 9.226562 15.351562 9.816406 15.785156 9.910156 16.410156 L 10.417969 19.761719 C 10.511719 20.386719 10.078125 20.976562 9.453125 21.070312 "/>
</g>
</g>
</g>
<g clip-path="url(#clip10)" clip-rule="nonzero">
<g clip-path="url(#clip11)" clip-rule="nonzero">
<g clip-path="url(#clip12)" clip-rule="nonzero">
<path style=" stroke:none;fill-rule:nonzero;fill:rgb(1.179504%,66.268921%,95.689392%);fill-opacity:1;" d="M 14.695312 12.519531 L 10.335938 14.90625 L 11.3125 21.34375 L 16.183594 22.328125 L 30.367188 25.1875 L 27.390625 5.578125 L 14.695312 12.519531 "/>
</g>
</g>
</g>
<g clip-path="url(#clip13)" clip-rule="nonzero">
<g clip-path="url(#clip14)" clip-rule="nonzero">
<g clip-path="url(#clip15)" clip-rule="nonzero">
<path style=" stroke:none;fill-rule:nonzero;fill:rgb(63.139343%,74.899292%,9.408569%);fill-opacity:1;" d="M 30.042969 25.878906 C 29.5625 25.953125 29.105469 25.617188 29.035156 25.136719 L 26.132812 6.027344 C 26.058594 5.546875 26.394531 5.089844 26.875 5.019531 C 27.359375 4.945312 27.8125 5.28125 27.882812 5.761719 L 30.785156 24.871094 C 30.859375 25.351562 30.523438 25.804688 30.042969 25.878906 "/>
</g>
</g>
</g>
<g clip-path="url(#clip16)" clip-rule="nonzero">
<g clip-path="url(#clip17)" clip-rule="nonzero">
<g clip-path="url(#clip18)" clip-rule="nonzero">
<path style=" stroke:none;fill-rule:nonzero;fill:rgb(63.139343%,74.899292%,9.408569%);fill-opacity:1;" d="M 10.277344 14.691406 L 10.269531 14.691406 L 8.324219 14.988281 C 8.074219 15.027344 7.902344 15.261719 7.9375 15.511719 L 8.839844 21.453125 C 8.878906 21.703125 9.113281 21.875 9.363281 21.835938 L 11.308594 21.539062 C 11.3125 21.539062 11.3125 21.539062 11.316406 21.539062 L 10.277344 14.691406 "/>
</g>
</g>
</g>
</g>
</svg>
