<?xml version="1.0" encoding="UTF-8"?>
<svg xmlns="http://www.w3.org/2000/svg" xmlns:xlink="http://www.w3.org/1999/xlink" width="39pt" height="38.999999pt" viewBox="0 0 39 38.999999" version="1.2">
<defs>
<clipPath id="clip1">
  <path d="M 3.898438 3.898438 L 35.398438 3.898438 L 35.398438 35.398438 L 3.898438 35.398438 Z M 3.898438 3.898438 "/>
</clipPath>
</defs>
<g id="surface1">
<path style=" stroke:none;fill-rule:nonzero;fill:rgb(22.349548%,20.779419%,21.179199%);fill-opacity:1;" d="M 19.5 0 C 18.863281 0 18.222656 0.03125 17.589844 0.09375 C 16.953125 0.15625 16.320312 0.25 15.695312 0.375 C 15.070312 0.5 14.449219 0.65625 13.839844 0.839844 C 13.226562 1.023438 12.628906 1.238281 12.039062 1.484375 C 11.449219 1.730469 10.871094 2 10.308594 2.300781 C 9.746094 2.605469 9.199219 2.929688 8.667969 3.285156 C 8.136719 3.640625 7.621094 4.019531 7.128906 4.425781 C 6.636719 4.832031 6.164062 5.261719 5.710938 5.710938 C 5.261719 6.164062 4.832031 6.636719 4.425781 7.128906 C 4.019531 7.621094 3.640625 8.136719 3.285156 8.667969 C 2.929688 9.199219 2.605469 9.746094 2.300781 10.308594 C 2 10.871094 1.730469 11.449219 1.484375 12.039062 C 1.238281 12.628906 1.023438 13.226562 0.839844 13.839844 C 0.652344 14.449219 0.5 15.070312 0.375 15.695312 C 0.25 16.320312 0.15625 16.953125 0.09375 17.589844 C 0.03125 18.222656 0 18.863281 0 19.5 C 0 20.140625 0.03125 20.777344 0.09375 21.410156 C 0.15625 22.046875 0.25 22.679688 0.375 23.304688 C 0.5 23.929688 0.652344 24.550781 0.839844 25.160156 C 1.023438 25.773438 1.238281 26.371094 1.484375 26.960938 C 1.730469 27.550781 2 28.128906 2.300781 28.691406 C 2.605469 29.253906 2.929688 29.800781 3.285156 30.332031 C 3.640625 30.863281 4.019531 31.378906 4.425781 31.871094 C 4.832031 32.363281 5.261719 32.835938 5.710938 33.289062 C 6.164062 33.738281 6.636719 34.167969 7.128906 34.574219 C 7.621094 34.980469 8.136719 35.359375 8.667969 35.714844 C 9.199219 36.070312 9.746094 36.394531 10.308594 36.699219 C 10.871094 37 11.449219 37.269531 12.039062 37.515625 C 12.628906 37.761719 13.226562 37.976562 13.839844 38.160156 C 14.449219 38.347656 15.070312 38.5 15.695312 38.625 C 16.320312 38.75 16.953125 38.84375 17.589844 38.90625 C 18.222656 38.96875 18.863281 39 19.5 39 C 20.136719 39 20.777344 38.96875 21.410156 38.90625 C 22.046875 38.84375 22.679688 38.75 23.304688 38.625 C 23.929688 38.5 24.550781 38.347656 25.160156 38.160156 C 25.773438 37.976562 26.371094 37.761719 26.960938 37.515625 C 27.550781 37.269531 28.128906 37 28.691406 36.699219 C 29.253906 36.394531 29.800781 36.070312 30.332031 35.714844 C 30.863281 35.359375 31.378906 34.980469 31.871094 34.574219 C 32.363281 34.167969 32.835938 33.738281 33.289062 33.289062 C 33.738281 32.835938 34.167969 32.363281 34.574219 31.871094 C 34.980469 31.378906 35.359375 30.863281 35.714844 30.332031 C 36.070312 29.800781 36.394531 29.253906 36.699219 28.691406 C 37 28.128906 37.269531 27.550781 37.515625 26.960938 C 37.761719 26.371094 37.976562 25.773438 38.160156 25.160156 C 38.347656 24.550781 38.5 23.929688 38.625 23.304688 C 38.75 22.679688 38.84375 22.046875 38.90625 21.410156 C 38.96875 20.777344 39 20.140625 39 19.5 C 39 18.863281 38.96875 18.222656 38.90625 17.589844 C 38.84375 16.953125 38.75 16.320312 38.625 15.695312 C 38.5 15.070312 38.347656 14.449219 38.160156 13.839844 C 37.976562 13.226562 37.761719 12.628906 37.515625 12.039062 C 37.269531 11.449219 37 10.871094 36.699219 10.308594 C 36.394531 9.746094 36.070312 9.199219 35.714844 8.667969 C 35.359375 8.136719 34.980469 7.621094 34.574219 7.128906 C 34.167969 6.636719 33.738281 6.164062 33.289062 5.710938 C 32.835938 5.261719 32.363281 4.832031 31.871094 4.425781 C 31.378906 4.019531 30.863281 3.640625 30.332031 3.285156 C 29.800781 2.929688 29.253906 2.605469 28.691406 2.300781 C 28.128906 2 27.550781 1.730469 26.960938 1.484375 C 26.371094 1.238281 25.773438 1.023438 25.160156 0.839844 C 24.550781 0.65625 23.929688 0.5 23.304688 0.375 C 22.679688 0.25 22.046875 0.15625 21.410156 0.09375 C 20.777344 0.03125 20.136719 0 19.5 0 Z M 19.5 0 "/>
<path style=" stroke:none;fill-rule:nonzero;fill:rgb(92.549133%,93.728638%,94.509888%);fill-opacity:1;" d="M 19.648438 5.476562 C 18.71875 5.476562 17.796875 5.566406 16.882812 5.746094 C 15.972656 5.929688 15.085938 6.195312 14.222656 6.550781 C 13.363281 6.910156 12.546875 7.34375 11.773438 7.863281 C 11 8.378906 10.28125 8.96875 9.625 9.625 C 8.964844 10.285156 8.378906 11 7.859375 11.773438 C 7.34375 12.546875 6.90625 13.363281 6.550781 14.222656 C 6.191406 15.085938 5.925781 15.972656 5.742188 16.882812 C 5.5625 17.796875 5.46875 18.71875 5.46875 19.648438 C 5.46875 20.582031 5.5625 21.503906 5.742188 22.417969 C 5.925781 23.328125 6.191406 24.214844 6.550781 25.074219 C 6.90625 25.9375 7.34375 26.753906 7.859375 27.527344 C 8.378906 28.300781 8.964844 29.015625 9.625 29.675781 C 10.28125 30.332031 11 30.921875 11.773438 31.4375 C 12.546875 31.953125 13.363281 32.390625 14.222656 32.746094 C 15.085938 33.101562 15.972656 33.371094 16.882812 33.554688 C 17.796875 33.734375 18.71875 33.824219 19.648438 33.824219 C 20.582031 33.824219 21.503906 33.734375 22.417969 33.554688 C 23.328125 33.371094 24.214844 33.101562 25.074219 32.746094 C 25.9375 32.390625 26.753906 31.953125 27.527344 31.4375 C 28.300781 30.921875 29.019531 30.332031 29.675781 29.675781 C 30.335938 29.015625 30.921875 28.300781 31.441406 27.527344 C 31.957031 26.753906 32.394531 25.9375 32.75 25.074219 C 33.105469 24.214844 33.375 23.328125 33.558594 22.417969 C 33.738281 21.503906 33.828125 20.582031 33.828125 19.648438 C 33.828125 18.71875 33.738281 17.796875 33.558594 16.882812 C 33.375 15.972656 33.105469 15.085938 32.75 14.222656 C 32.394531 13.363281 31.957031 12.546875 31.441406 11.773438 C 30.921875 11 30.335938 10.285156 29.675781 9.625 C 29.019531 8.96875 28.300781 8.378906 27.527344 7.863281 C 26.753906 7.34375 25.9375 6.910156 25.074219 6.550781 C 24.214844 6.195312 23.328125 5.929688 22.417969 5.746094 C 21.503906 5.566406 20.582031 5.476562 19.648438 5.476562 Z M 19.648438 5.476562 "/>
<g clip-path="url(#clip1)" clip-rule="nonzero">
<path style=" stroke:none;fill-rule:nonzero;fill:rgb(1.179504%,66.268921%,95.689392%);fill-opacity:1;" d="M 19.648438 35.398438 C 10.964844 35.398438 3.898438 28.335938 3.898438 19.648438 C 3.898438 10.964844 10.964844 3.898438 19.648438 3.898438 C 28.335938 3.898438 35.398438 10.964844 35.398438 19.648438 C 35.398438 28.335938 28.335938 35.398438 19.648438 35.398438 Z M 19.648438 7.050781 C 12.703125 7.050781 7.050781 12.703125 7.050781 19.648438 C 7.050781 26.597656 12.703125 32.25 19.648438 32.25 C 26.597656 32.25 32.25 26.597656 32.25 19.648438 C 32.25 12.703125 26.597656 7.050781 19.648438 7.050781 Z M 19.648438 7.050781 "/>
</g>
<path style=" stroke:none;fill-rule:nonzero;fill:rgb(29.40979%,2.349854%,67.449951%);fill-opacity:1;" d="M 19.648438 10.199219 C 19.03125 10.199219 18.414062 10.261719 17.804688 10.382812 C 17.199219 10.503906 16.605469 10.683594 16.035156 10.917969 C 15.460938 11.15625 14.914062 11.449219 14.398438 11.792969 C 13.882812 12.136719 13.40625 12.527344 12.96875 12.96875 C 12.527344 13.40625 12.136719 13.882812 11.792969 14.398438 C 11.449219 14.914062 11.15625 15.460938 10.917969 16.035156 C 10.683594 16.605469 10.503906 17.199219 10.382812 17.804688 C 10.261719 18.414062 10.199219 19.03125 10.199219 19.648438 C 10.199219 20.269531 10.261719 20.886719 10.382812 21.492188 C 10.503906 22.101562 10.683594 22.691406 10.917969 23.265625 C 11.15625 23.839844 11.449219 24.382812 11.792969 24.898438 C 12.136719 25.417969 12.527344 25.894531 12.96875 26.332031 C 13.40625 26.769531 13.882812 27.164062 14.398438 27.507812 C 14.914062 27.851562 15.460938 28.144531 16.035156 28.378906 C 16.605469 28.617188 17.199219 28.796875 17.804688 28.917969 C 18.414062 29.039062 19.03125 29.101562 19.648438 29.101562 C 20.269531 29.101562 20.886719 29.039062 21.492188 28.917969 C 22.101562 28.796875 22.691406 28.617188 23.265625 28.378906 C 23.839844 28.144531 24.382812 27.851562 24.898438 27.507812 C 25.417969 27.164062 25.894531 26.769531 26.332031 26.332031 C 26.769531 25.894531 27.164062 25.417969 27.507812 24.898438 C 27.851562 24.382812 28.144531 23.839844 28.378906 23.265625 C 28.617188 22.691406 28.796875 22.101562 28.917969 21.492188 C 29.039062 20.886719 29.101562 20.269531 29.101562 19.648438 C 29.101562 19.03125 29.039062 18.414062 28.917969 17.804688 C 28.796875 17.199219 28.617188 16.605469 28.378906 16.035156 C 28.144531 15.460938 27.851562 14.914062 27.507812 14.398438 C 27.164062 13.882812 26.769531 13.40625 26.332031 12.96875 C 25.894531 12.527344 25.417969 12.136719 24.898438 11.792969 C 24.382812 11.449219 23.839844 11.15625 23.265625 10.917969 C 22.691406 10.683594 22.101562 10.503906 21.492188 10.382812 C 20.886719 10.261719 20.269531 10.199219 19.648438 10.199219 Z M 19.648438 10.199219 "/>
<path style=" stroke:none;fill-rule:nonzero;fill:rgb(92.549133%,93.728638%,94.509888%);fill-opacity:1;" d="M 18.960938 25.027344 L 13.910156 19.976562 L 16.136719 17.75 L 18.960938 20.570312 L 27.246094 12.285156 L 29.476562 14.511719 Z M 18.960938 25.027344 "/>
</g>
</svg>
