<?xml version="1.0" encoding="UTF-8"?>
<svg xmlns="http://www.w3.org/2000/svg" xmlns:xlink="http://www.w3.org/1999/xlink" width="39pt" height="38.999999pt" viewBox="0 0 39 38.999999" version="1.2">
<defs>
<clipPath id="clip1">
  <path d="M 14 3.898438 L 28 3.898438 L 28 33.148438 L 14 33.148438 Z M 14 3.898438 "/>
</clipPath>
<clipPath id="clip2">
  <path d="M 23 14 L 32.449219 14 L 32.449219 33.148438 L 23 33.148438 Z M 23 14 "/>
</clipPath>
<clipPath id="clip3">
  <path d="M 6.199219 12 L 16 12 L 16 33.148438 L 6.199219 33.148438 Z M 6.199219 12 "/>
</clipPath>
</defs>
<g id="surface1">
<path style=" stroke:none;fill-rule:nonzero;fill:rgb(22.349548%,20.779419%,21.179199%);fill-opacity:1;" d="M 19.5 0 C 18.863281 0 18.222656 0.03125 17.589844 0.09375 C 16.953125 0.15625 16.320312 0.25 15.695312 0.375 C 15.070312 0.5 14.449219 0.652344 13.839844 0.839844 C 13.226562 1.023438 12.628906 1.238281 12.039062 1.484375 C 11.449219 1.730469 10.871094 2 10.308594 2.300781 C 9.746094 2.605469 9.199219 2.929688 8.667969 3.285156 C 8.136719 3.640625 7.621094 4.019531 7.128906 4.425781 C 6.636719 4.832031 6.164062 5.261719 5.710938 5.710938 C 5.261719 6.164062 4.832031 6.636719 4.425781 7.128906 C 4.019531 7.621094 3.640625 8.136719 3.285156 8.667969 C 2.929688 9.199219 2.605469 9.746094 2.300781 10.308594 C 2 10.871094 1.730469 11.449219 1.484375 12.039062 C 1.238281 12.628906 1.023438 13.226562 0.839844 13.839844 C 0.652344 14.449219 0.5 15.070312 0.375 15.695312 C 0.25 16.320312 0.15625 16.953125 0.09375 17.589844 C 0.03125 18.222656 0 18.863281 0 19.5 C 0 20.136719 0.03125 20.777344 0.09375 21.410156 C 0.15625 22.046875 0.25 22.679688 0.375 23.304688 C 0.5 23.929688 0.652344 24.550781 0.839844 25.160156 C 1.023438 25.773438 1.238281 26.371094 1.484375 26.960938 C 1.730469 27.550781 2 28.128906 2.300781 28.691406 C 2.605469 29.253906 2.929688 29.800781 3.285156 30.332031 C 3.640625 30.863281 4.019531 31.378906 4.425781 31.871094 C 4.832031 32.363281 5.261719 32.835938 5.710938 33.289062 C 6.164062 33.738281 6.636719 34.167969 7.128906 34.574219 C 7.621094 34.980469 8.136719 35.359375 8.667969 35.714844 C 9.199219 36.070312 9.746094 36.394531 10.308594 36.699219 C 10.871094 37 11.449219 37.269531 12.039062 37.515625 C 12.628906 37.761719 13.226562 37.976562 13.839844 38.160156 C 14.449219 38.347656 15.070312 38.5 15.695312 38.625 C 16.320312 38.75 16.953125 38.84375 17.589844 38.90625 C 18.222656 38.96875 18.863281 39 19.5 39 C 20.136719 39 20.777344 38.96875 21.410156 38.90625 C 22.046875 38.84375 22.679688 38.75 23.304688 38.625 C 23.929688 38.5 24.550781 38.347656 25.160156 38.160156 C 25.773438 37.976562 26.371094 37.761719 26.960938 37.515625 C 27.550781 37.269531 28.128906 37 28.691406 36.699219 C 29.253906 36.394531 29.800781 36.070312 30.332031 35.714844 C 30.863281 35.359375 31.378906 34.980469 31.871094 34.574219 C 32.363281 34.167969 32.835938 33.738281 33.289062 33.289062 C 33.738281 32.835938 34.167969 32.363281 34.574219 31.871094 C 34.980469 31.378906 35.359375 30.863281 35.714844 30.332031 C 36.070312 29.800781 36.394531 29.253906 36.699219 28.691406 C 37 28.128906 37.269531 27.550781 37.515625 26.960938 C 37.761719 26.371094 37.976562 25.773438 38.160156 25.160156 C 38.347656 24.550781 38.5 23.929688 38.625 23.304688 C 38.75 22.679688 38.84375 22.046875 38.90625 21.410156 C 38.96875 20.777344 39 20.136719 39 19.5 C 39 18.863281 38.96875 18.222656 38.90625 17.589844 C 38.84375 16.953125 38.75 16.320312 38.625 15.695312 C 38.5 15.070312 38.347656 14.449219 38.160156 13.839844 C 37.976562 13.226562 37.761719 12.628906 37.515625 12.039062 C 37.269531 11.449219 37 10.871094 36.699219 10.308594 C 36.394531 9.746094 36.070312 9.199219 35.714844 8.667969 C 35.359375 8.136719 34.980469 7.621094 34.574219 7.128906 C 34.167969 6.636719 33.738281 6.164062 33.289062 5.710938 C 32.835938 5.261719 32.363281 4.832031 31.871094 4.425781 C 31.378906 4.019531 30.863281 3.640625 30.332031 3.285156 C 29.800781 2.929688 29.253906 2.605469 28.691406 2.300781 C 28.128906 2 27.550781 1.730469 26.960938 1.484375 C 26.371094 1.238281 25.773438 1.023438 25.160156 0.839844 C 24.550781 0.652344 23.929688 0.5 23.304688 0.375 C 22.679688 0.25 22.046875 0.15625 21.410156 0.09375 C 20.777344 0.03125 20.136719 0 19.5 0 Z M 19.5 0 "/>
<g clip-path="url(#clip1)" clip-rule="nonzero">
<path style=" stroke:none;fill-rule:nonzero;fill:rgb(0%,67.83905%,93.728638%);fill-opacity:1;" d="M 27.433594 11.265625 C 27.042969 10.824219 26.09375 11.136719 25.628906 11.382812 C 25.167969 11.625 24.285156 12.445312 24.003906 12.738281 C 23.726562 13.03125 23.710938 12.976562 23.710938 12.976562 C 23.613281 12.832031 23.140625 11.96875 23.226562 11.15625 C 23.3125 10.34375 24.347656 7.480469 24.570312 6.882812 C 24.792969 6.28125 25.046875 5.535156 24.441406 5.371094 C 23.832031 5.207031 23.65625 5.628906 23.65625 5.628906 C 23.65625 5.628906 22.679688 7.820312 22.527344 8.175781 C 22.378906 8.535156 21.941406 9.976562 21.5 9.917969 C 21.0625 9.863281 21.394531 8.027344 21.394531 8.027344 C 21.394531 8.027344 21.488281 6.066406 21.582031 5.253906 C 21.675781 4.441406 21.386719 4.027344 20.886719 3.964844 C 20.382812 3.898438 20.25 4.808594 20.25 4.808594 C 20.25 4.808594 20.203125 5.371094 20.121094 5.8125 C 20.042969 6.253906 19.734375 8.507812 19.695312 8.765625 C 19.65625 9.023438 19.617188 9.878906 19.433594 9.886719 C 19.25 9.894531 19.242188 9.550781 19.164062 9.273438 C 19.082031 8.996094 18.71875 6.265625 18.664062 5.835938 C 18.605469 5.410156 18.597656 4.636719 17.902344 4.597656 C 17.207031 4.554688 17.410156 5.246094 17.394531 5.402344 C 17.378906 5.558594 17.507812 6.820312 17.515625 7.023438 C 17.523438 7.222656 17.632812 9.617188 17.632812 9.824219 C 17.632812 10.03125 17.726562 10.609375 17.480469 10.710938 C 17.234375 10.8125 17.019531 10.453125 17.019531 10.453125 C 17.019531 10.453125 15.746094 8.28125 15.617188 8.011719 C 15.488281 7.738281 15.242188 7.160156 14.601562 7.332031 C 13.964844 7.503906 14.78125 8.808594 14.996094 9.1875 C 15.214844 9.566406 15.894531 11.441406 16.039062 11.695312 C 16.183594 11.953125 16.34375 13.308594 16.328125 13.878906 C 16.3125 14.449219 16.730469 16.527344 17.019531 17.667969 C 17.308594 18.808594 17.101562 20.445312 17.101562 20.445312 C 16.992188 22.609375 16.488281 28.941406 16.140625 33.148438 L 23.171875 33.148438 L 22.785156 25.886719 C 22.785156 25.886719 22.378906 19.769531 22.378906 19.5625 C 22.378906 19.355469 22.390625 18.085938 22.390625 17.820312 C 22.390625 17.558594 23.253906 16.558594 23.59375 16.300781 C 23.9375 16.042969 24.867188 14.613281 24.867188 14.613281 C 25.042969 14.316406 24.925781 14.441406 25.503906 13.59375 C 26.085938 12.742188 26.890625 12.144531 27.339844 11.855469 C 27.785156 11.570312 27.433594 11.265625 27.433594 11.265625 "/>
</g>
<g clip-path="url(#clip2)" clip-rule="nonzero">
<path style=" stroke:none;fill-rule:nonzero;fill:rgb(50.19989%,79.998779%,15.689087%);fill-opacity:1;" d="M 32.210938 19.164062 C 31.960938 18.878906 31.355469 19.082031 31.058594 19.238281 C 30.765625 19.394531 30.199219 19.917969 30.019531 20.105469 C 29.84375 20.292969 29.832031 20.257812 29.832031 20.257812 C 29.769531 20.164062 29.46875 19.613281 29.523438 19.09375 C 29.578125 18.574219 30.238281 16.746094 30.382812 16.363281 C 30.523438 15.976562 30.6875 15.5 30.296875 15.394531 C 29.910156 15.292969 29.800781 15.558594 29.800781 15.558594 C 29.800781 15.558594 29.175781 16.960938 29.078125 17.191406 C 28.980469 17.417969 28.703125 18.339844 28.421875 18.300781 C 28.140625 18.265625 28.351562 17.09375 28.351562 17.09375 C 28.351562 17.09375 28.414062 15.839844 28.472656 15.320312 C 28.53125 14.800781 28.347656 14.535156 28.027344 14.496094 C 27.707031 14.457031 27.621094 15.035156 27.621094 15.035156 C 27.621094 15.035156 27.589844 15.394531 27.539062 15.679688 C 27.488281 15.960938 27.292969 17.402344 27.265625 17.566406 C 27.242188 17.730469 27.21875 18.277344 27.101562 18.28125 C 26.984375 18.285156 26.976562 18.066406 26.925781 17.890625 C 26.875 17.714844 26.640625 15.964844 26.605469 15.691406 C 26.570312 15.417969 26.5625 14.925781 26.121094 14.902344 C 25.675781 14.875 25.804688 15.316406 25.792969 15.417969 C 25.785156 15.515625 25.867188 16.324219 25.875 16.449219 C 25.878906 16.578125 25.945312 18.109375 25.945312 18.242188 C 25.949219 18.375 26.007812 18.746094 25.851562 18.808594 C 25.691406 18.871094 25.554688 18.644531 25.554688 18.644531 C 25.554688 18.644531 24.742188 17.253906 24.660156 17.082031 C 24.578125 16.910156 24.417969 16.539062 24.011719 16.648438 C 23.601562 16.761719 24.125 17.59375 24.261719 17.835938 C 24.402344 18.078125 24.835938 19.273438 24.929688 19.4375 C 25.019531 19.601562 25.125 20.46875 25.113281 20.835938 C 25.105469 21.199219 25.371094 22.527344 25.554688 23.257812 C 25.738281 23.984375 25.609375 25.03125 25.609375 25.03125 C 25.539062 26.414062 25.214844 30.460938 24.996094 33.148438 L 29.488281 33.148438 L 29.242188 28.507812 C 29.242188 28.507812 28.980469 24.597656 28.980469 24.464844 C 28.980469 24.335938 28.992188 23.523438 28.988281 23.355469 C 28.988281 23.183594 29.539062 22.546875 29.757812 22.382812 C 29.976562 22.21875 30.574219 21.300781 30.574219 21.300781 C 30.683594 21.113281 30.609375 21.195312 30.980469 20.652344 C 31.351562 20.109375 31.867188 19.722656 32.152344 19.542969 C 32.4375 19.359375 32.210938 19.164062 32.210938 19.164062 "/>
</g>
<g clip-path="url(#clip3)" clip-rule="nonzero">
<path style=" stroke:none;fill-rule:nonzero;fill:rgb(94.509888%,27.449036%,14.118958%);fill-opacity:1;" d="M 6.460938 17.339844 C 6.746094 17.019531 7.429688 17.246094 7.765625 17.425781 C 8.101562 17.597656 8.738281 18.195312 8.941406 18.40625 C 9.140625 18.617188 9.152344 18.574219 9.152344 18.574219 C 9.222656 18.472656 9.5625 17.847656 9.5 17.261719 C 9.4375 16.675781 8.691406 14.605469 8.53125 14.171875 C 8.371094 13.738281 8.1875 13.199219 8.625 13.082031 C 9.0625 12.960938 9.191406 13.265625 9.191406 13.265625 C 9.191406 13.265625 9.898438 14.851562 10.007812 15.109375 C 10.117188 15.367188 10.429688 16.40625 10.75 16.367188 C 11.066406 16.328125 10.824219 15 10.824219 15 C 10.824219 15 10.757812 13.582031 10.691406 12.996094 C 10.621094 12.410156 10.832031 12.109375 11.195312 12.0625 C 11.558594 12.019531 11.652344 12.671875 11.652344 12.671875 C 11.652344 12.671875 11.6875 13.082031 11.746094 13.398438 C 11.800781 13.71875 12.023438 15.347656 12.050781 15.535156 C 12.082031 15.71875 12.109375 16.339844 12.242188 16.34375 C 12.375 16.347656 12.382812 16.101562 12.4375 15.898438 C 12.496094 15.699219 12.757812 13.726562 12.800781 13.417969 C 12.839844 13.109375 12.847656 12.550781 13.351562 12.519531 C 13.851562 12.492188 13.707031 12.992188 13.71875 13.105469 C 13.726562 13.21875 13.636719 14.128906 13.628906 14.273438 C 13.625 14.417969 13.546875 16.148438 13.546875 16.300781 C 13.542969 16.449219 13.476562 16.867188 13.652344 16.9375 C 13.832031 17.011719 13.988281 16.753906 13.988281 16.753906 C 13.988281 16.753906 14.90625 15.183594 15 14.988281 C 15.09375 14.792969 15.273438 14.375 15.734375 14.5 C 16.195312 14.625 15.605469 15.566406 15.449219 15.839844 C 15.292969 16.109375 14.800781 17.464844 14.695312 17.652344 C 14.59375 17.835938 14.476562 18.816406 14.484375 19.226562 C 14.496094 19.640625 14.195312 21.140625 13.988281 21.964844 C 13.78125 22.789062 13.929688 23.972656 13.929688 23.972656 C 14.007812 25.535156 14.371094 30.109375 14.621094 33.148438 L 9.539062 33.148438 L 9.820312 27.902344 C 9.820312 27.902344 10.113281 23.484375 10.113281 23.335938 C 10.113281 23.183594 10.105469 22.265625 10.105469 22.078125 C 10.105469 21.886719 9.484375 21.164062 9.234375 20.976562 C 8.988281 20.792969 8.316406 19.757812 8.316406 19.757812 C 8.1875 19.542969 8.273438 19.636719 7.855469 19.019531 C 7.433594 18.40625 6.855469 17.972656 6.53125 17.765625 C 6.207031 17.558594 6.460938 17.339844 6.460938 17.339844 "/>
</g>
</g>
</svg>
