<?xml version="1.0" encoding="UTF-8"?>
<svg xmlns="http://www.w3.org/2000/svg" xmlns:xlink="http://www.w3.org/1999/xlink" width="39pt" height="38.999999pt" viewBox="0 0 39 38.999999" version="1.2">
<defs>
<clipPath id="clip1">
  <path d="M 2.324219 7.347656 L 36.824219 7.347656 L 36.824219 31.347656 L 2.324219 31.347656 Z M 2.324219 7.347656 "/>
</clipPath>
</defs>
<g id="surface1">
<path style=" stroke:none;fill-rule:nonzero;fill:rgb(22.349548%,20.779419%,21.179199%);fill-opacity:1;" d="M 19.5 0 C 18.863281 0 18.222656 0.03125 17.589844 0.09375 C 16.953125 0.15625 16.320312 0.25 15.695312 0.375 C 15.070312 0.5 14.449219 0.652344 13.839844 0.839844 C 13.226562 1.023438 12.628906 1.238281 12.039062 1.484375 C 11.449219 1.730469 10.871094 2 10.308594 2.300781 C 9.746094 2.605469 9.199219 2.929688 8.667969 3.285156 C 8.136719 3.640625 7.621094 4.019531 7.128906 4.425781 C 6.636719 4.832031 6.164062 5.261719 5.710938 5.710938 C 5.261719 6.164062 4.832031 6.636719 4.425781 7.128906 C 4.019531 7.621094 3.640625 8.136719 3.285156 8.667969 C 2.929688 9.199219 2.605469 9.746094 2.300781 10.308594 C 2 10.871094 1.730469 11.449219 1.484375 12.039062 C 1.238281 12.628906 1.023438 13.226562 0.839844 13.839844 C 0.652344 14.449219 0.5 15.070312 0.375 15.695312 C 0.25 16.320312 0.15625 16.953125 0.09375 17.589844 C 0.03125 18.222656 0 18.863281 0 19.5 C 0 20.136719 0.03125 20.777344 0.09375 21.410156 C 0.15625 22.046875 0.25 22.679688 0.375 23.304688 C 0.5 23.929688 0.652344 24.550781 0.839844 25.160156 C 1.023438 25.773438 1.238281 26.371094 1.484375 26.960938 C 1.730469 27.550781 2 28.128906 2.300781 28.691406 C 2.605469 29.253906 2.929688 29.800781 3.285156 30.332031 C 3.640625 30.863281 4.019531 31.378906 4.425781 31.871094 C 4.832031 32.363281 5.261719 32.835938 5.710938 33.289062 C 6.164062 33.738281 6.636719 34.167969 7.128906 34.574219 C 7.621094 34.980469 8.136719 35.359375 8.667969 35.714844 C 9.199219 36.070312 9.746094 36.394531 10.308594 36.699219 C 10.871094 37 11.449219 37.269531 12.039062 37.515625 C 12.628906 37.761719 13.226562 37.976562 13.839844 38.160156 C 14.449219 38.347656 15.070312 38.5 15.695312 38.625 C 16.320312 38.75 16.953125 38.84375 17.589844 38.90625 C 18.222656 38.96875 18.863281 39 19.5 39 C 20.136719 39 20.777344 38.96875 21.410156 38.90625 C 22.046875 38.84375 22.679688 38.75 23.304688 38.625 C 23.929688 38.5 24.550781 38.347656 25.160156 38.160156 C 25.773438 37.976562 26.371094 37.761719 26.960938 37.515625 C 27.550781 37.269531 28.128906 37 28.691406 36.699219 C 29.253906 36.394531 29.800781 36.070312 30.332031 35.714844 C 30.863281 35.359375 31.378906 34.980469 31.871094 34.574219 C 32.363281 34.167969 32.835938 33.738281 33.289062 33.289062 C 33.738281 32.835938 34.167969 32.363281 34.574219 31.871094 C 34.980469 31.378906 35.359375 30.863281 35.714844 30.332031 C 36.070312 29.800781 36.394531 29.253906 36.699219 28.691406 C 37 28.128906 37.269531 27.550781 37.515625 26.960938 C 37.761719 26.371094 37.976562 25.773438 38.160156 25.160156 C 38.347656 24.550781 38.5 23.929688 38.625 23.304688 C 38.75 22.679688 38.84375 22.046875 38.90625 21.410156 C 38.96875 20.777344 39 20.136719 39 19.5 C 39 18.863281 38.96875 18.222656 38.90625 17.589844 C 38.84375 16.953125 38.75 16.320312 38.625 15.695312 C 38.5 15.070312 38.347656 14.449219 38.160156 13.839844 C 37.976562 13.226562 37.761719 12.628906 37.515625 12.039062 C 37.269531 11.449219 37 10.871094 36.699219 10.308594 C 36.394531 9.746094 36.070312 9.199219 35.714844 8.667969 C 35.359375 8.136719 34.980469 7.621094 34.574219 7.128906 C 34.167969 6.636719 33.738281 6.164062 33.289062 5.710938 C 32.835938 5.261719 32.363281 4.832031 31.871094 4.425781 C 31.378906 4.019531 30.863281 3.640625 30.332031 3.285156 C 29.800781 2.929688 29.253906 2.605469 28.691406 2.300781 C 28.128906 2 27.550781 1.730469 26.960938 1.484375 C 26.371094 1.238281 25.773438 1.023438 25.160156 0.839844 C 24.550781 0.652344 23.929688 0.5 23.304688 0.375 C 22.679688 0.25 22.046875 0.15625 21.410156 0.09375 C 20.777344 0.03125 20.136719 0 19.5 0 Z M 19.5 0 "/>
<g clip-path="url(#clip1)" clip-rule="nonzero">
<path style=" stroke:none;fill-rule:nonzero;fill:rgb(100%,100%,100%);fill-opacity:1;" d="M 31.773438 12.996094 L 30.300781 12.996094 C 27.890625 9.453125 23.910156 7.347656 19.574219 7.347656 C 15.238281 7.347656 11.257812 9.453125 8.847656 12.996094 L 7.375 12.996094 C 4.601562 12.996094 2.351562 15.210938 2.351562 17.9375 L 2.351562 20.757812 C 2.351562 23.484375 4.601562 25.699219 7.375 25.699219 L 8.847656 25.699219 C 11.257812 29.246094 15.238281 31.347656 19.574219 31.347656 C 23.910156 31.347656 27.890625 29.246094 30.300781 25.699219 L 31.773438 25.699219 C 34.542969 25.699219 36.796875 23.484375 36.796875 20.757812 L 36.796875 17.9375 C 36.796875 15.210938 34.542969 12.996094 31.773438 12.996094 Z M 19.574219 8.757812 C 23.09375 8.757812 26.34375 10.324219 28.515625 12.996094 L 10.632812 12.996094 C 12.804688 10.324219 16.054688 8.757812 19.574219 8.757812 Z M 19.574219 29.9375 C 16.054688 29.9375 12.804688 28.371094 10.632812 25.699219 L 28.515625 25.699219 C 26.34375 28.371094 23.09375 29.9375 19.574219 29.9375 Z M 35.363281 20.757812 C 35.363281 22.707031 33.753906 24.289062 31.773438 24.289062 L 9.238281 24.289062 C 9.234375 24.289062 9.238281 24.289062 9.238281 24.289062 L 7.375 24.289062 C 5.394531 24.289062 3.785156 22.707031 3.785156 20.757812 L 3.785156 17.9375 C 3.785156 15.992188 5.394531 14.40625 7.375 14.40625 L 31.773438 14.40625 C 33.753906 14.40625 35.363281 15.992188 35.363281 17.9375 Z M 10.496094 15.863281 C 10.125 15.726562 9.710938 15.910156 9.574219 16.277344 L 8.089844 20.160156 L 6.609375 16.277344 C 6.472656 15.910156 6.054688 15.730469 5.6875 15.863281 C 5.316406 16 5.128906 16.40625 5.265625 16.773438 L 7.417969 22.421875 C 7.523438 22.695312 7.792969 22.878906 8.089844 22.878906 C 8.390625 22.878906 8.660156 22.695312 8.761719 22.421875 L 10.914062 16.773438 C 11.054688 16.40625 10.867188 16 10.496094 15.863281 Z M 14.550781 15.820312 C 13.363281 15.820312 12.398438 16.769531 12.398438 17.9375 L 12.398438 20.757812 C 12.398438 21.925781 13.363281 22.878906 14.550781 22.878906 C 15.738281 22.878906 16.703125 21.925781 16.703125 20.757812 L 16.703125 17.9375 C 16.703125 16.769531 15.738281 15.820312 14.550781 15.820312 Z M 15.269531 20.757812 C 15.269531 21.148438 14.945312 21.464844 14.550781 21.464844 C 14.152344 21.464844 13.832031 21.148438 13.832031 20.757812 L 13.832031 17.9375 C 13.832031 17.546875 14.152344 17.230469 14.550781 17.230469 C 14.945312 17.230469 15.269531 17.546875 15.269531 17.9375 Z M 22.445312 15.820312 L 18.136719 15.820312 C 17.742188 15.820312 17.421875 16.132812 17.421875 16.523438 C 17.421875 16.914062 17.742188 17.230469 18.136719 17.230469 L 19.574219 17.230469 L 19.574219 22.171875 C 19.574219 22.5625 19.894531 22.878906 20.292969 22.878906 C 20.6875 22.878906 21.007812 22.5625 21.007812 22.171875 L 21.007812 17.230469 L 22.445312 17.230469 C 22.839844 17.230469 23.164062 16.914062 23.164062 16.523438 C 23.164062 16.132812 22.839844 15.820312 22.445312 15.820312 Z M 27.46875 17.230469 C 27.863281 17.230469 28.1875 16.914062 28.1875 16.523438 C 28.1875 16.132812 27.863281 15.820312 27.46875 15.820312 L 24.597656 15.820312 C 24.203125 15.820312 23.878906 16.132812 23.878906 16.523438 L 23.878906 22.171875 C 23.878906 22.5625 24.203125 22.878906 24.597656 22.878906 L 27.46875 22.878906 C 27.863281 22.878906 28.1875 22.5625 28.1875 22.171875 C 28.1875 21.78125 27.863281 21.464844 27.46875 21.464844 L 25.316406 21.464844 L 25.316406 20.054688 L 26.03125 20.054688 C 26.429688 20.054688 26.75 19.738281 26.75 19.347656 C 26.75 18.957031 26.429688 18.640625 26.03125 18.640625 L 25.316406 18.640625 L 25.316406 17.230469 Z M 31.773438 15.820312 L 30.339844 15.820312 C 29.941406 15.820312 29.621094 16.132812 29.621094 16.523438 L 29.621094 22.171875 C 29.621094 22.5625 29.941406 22.878906 30.339844 22.878906 L 31.773438 22.878906 C 32.960938 22.878906 33.925781 21.925781 33.925781 20.757812 L 33.925781 17.9375 C 33.925781 16.769531 32.960938 15.820312 31.773438 15.820312 Z M 32.492188 20.757812 C 32.492188 21.148438 32.171875 21.464844 31.773438 21.464844 L 31.054688 21.464844 L 31.054688 17.230469 L 31.773438 17.230469 C 32.171875 17.230469 32.492188 17.546875 32.492188 17.9375 Z M 32.492188 20.757812 "/>
</g>
</g>
</svg>
