<?xml version="1.0" encoding="UTF-8"?>
<svg xmlns="http://www.w3.org/2000/svg" xmlns:xlink="http://www.w3.org/1999/xlink" width="39pt" height="38.999999pt" viewBox="0 0 39 38.999999" version="1.2">
<defs>
<clipPath id="clip1">
  <path d="M 19 4.210938 L 29 4.210938 L 29 20 L 19 20 Z M 19 4.210938 "/>
</clipPath>
<clipPath id="clip2">
  <path d="M 21 22 L 33.898438 22 L 33.898438 33.460938 L 21 33.460938 Z M 21 22 "/>
</clipPath>
<clipPath id="clip3">
  <path d="M 3.898438 21 L 16 21 L 16 33.460938 L 3.898438 33.460938 Z M 3.898438 21 "/>
</clipPath>
</defs>
<g id="surface1">
<path style=" stroke:none;fill-rule:nonzero;fill:rgb(22.349548%,20.779419%,21.179199%);fill-opacity:1;" d="M 19.5 0 C 18.863281 0 18.222656 0.03125 17.589844 0.09375 C 16.953125 0.15625 16.320312 0.25 15.695312 0.375 C 15.070312 0.5 14.449219 0.652344 13.839844 0.839844 C 13.226562 1.023438 12.628906 1.238281 12.039062 1.484375 C 11.449219 1.730469 10.871094 2 10.308594 2.300781 C 9.746094 2.605469 9.199219 2.929688 8.667969 3.285156 C 8.136719 3.640625 7.621094 4.019531 7.128906 4.425781 C 6.636719 4.832031 6.164062 5.261719 5.710938 5.710938 C 5.261719 6.164062 4.832031 6.636719 4.425781 7.128906 C 4.019531 7.621094 3.640625 8.136719 3.285156 8.667969 C 2.929688 9.199219 2.605469 9.746094 2.300781 10.308594 C 2 10.871094 1.730469 11.449219 1.484375 12.039062 C 1.238281 12.628906 1.023438 13.226562 0.839844 13.839844 C 0.652344 14.449219 0.5 15.070312 0.375 15.695312 C 0.25 16.320312 0.15625 16.953125 0.09375 17.589844 C 0.03125 18.222656 0 18.863281 0 19.5 C 0 20.136719 0.03125 20.777344 0.09375 21.410156 C 0.15625 22.046875 0.25 22.679688 0.375 23.304688 C 0.5 23.929688 0.652344 24.550781 0.839844 25.160156 C 1.023438 25.773438 1.238281 26.371094 1.484375 26.960938 C 1.730469 27.550781 2 28.128906 2.300781 28.691406 C 2.605469 29.253906 2.929688 29.800781 3.285156 30.332031 C 3.640625 30.863281 4.019531 31.378906 4.425781 31.871094 C 4.832031 32.363281 5.261719 32.835938 5.710938 33.289062 C 6.164062 33.738281 6.636719 34.167969 7.128906 34.574219 C 7.621094 34.980469 8.136719 35.359375 8.667969 35.714844 C 9.199219 36.070312 9.746094 36.394531 10.308594 36.699219 C 10.871094 37 11.449219 37.269531 12.039062 37.515625 C 12.628906 37.761719 13.226562 37.976562 13.839844 38.160156 C 14.449219 38.347656 15.070312 38.5 15.695312 38.625 C 16.320312 38.75 16.953125 38.84375 17.589844 38.90625 C 18.222656 38.96875 18.863281 39 19.5 39 C 20.136719 39 20.777344 38.96875 21.410156 38.90625 C 22.046875 38.84375 22.679688 38.75 23.304688 38.625 C 23.929688 38.5 24.550781 38.347656 25.160156 38.160156 C 25.773438 37.976562 26.371094 37.761719 26.960938 37.515625 C 27.550781 37.269531 28.128906 37 28.691406 36.699219 C 29.253906 36.394531 29.800781 36.070312 30.332031 35.714844 C 30.863281 35.359375 31.378906 34.980469 31.871094 34.574219 C 32.363281 34.167969 32.835938 33.738281 33.289062 33.289062 C 33.738281 32.835938 34.167969 32.363281 34.574219 31.871094 C 34.980469 31.378906 35.359375 30.863281 35.714844 30.332031 C 36.070312 29.800781 36.394531 29.253906 36.699219 28.691406 C 37 28.128906 37.269531 27.550781 37.515625 26.960938 C 37.761719 26.371094 37.976562 25.773438 38.160156 25.160156 C 38.347656 24.550781 38.5 23.929688 38.625 23.304688 C 38.75 22.679688 38.84375 22.046875 38.90625 21.410156 C 38.96875 20.777344 39 20.136719 39 19.5 C 39 18.863281 38.96875 18.222656 38.90625 17.589844 C 38.84375 16.953125 38.75 16.320312 38.625 15.695312 C 38.5 15.070312 38.347656 14.449219 38.160156 13.839844 C 37.976562 13.226562 37.761719 12.628906 37.515625 12.039062 C 37.269531 11.449219 37 10.871094 36.699219 10.308594 C 36.394531 9.746094 36.070312 9.199219 35.714844 8.667969 C 35.359375 8.136719 34.980469 7.621094 34.574219 7.128906 C 34.167969 6.636719 33.738281 6.164062 33.289062 5.710938 C 32.835938 5.261719 32.363281 4.832031 31.871094 4.425781 C 31.378906 4.019531 30.863281 3.640625 30.332031 3.285156 C 29.800781 2.929688 29.253906 2.605469 28.691406 2.300781 C 28.128906 2 27.550781 1.730469 26.960938 1.484375 C 26.371094 1.238281 25.773438 1.023438 25.160156 0.839844 C 24.550781 0.652344 23.929688 0.5 23.304688 0.375 C 22.679688 0.25 22.046875 0.15625 21.410156 0.09375 C 20.777344 0.03125 20.136719 0 19.5 0 Z M 19.5 0 "/>
<g clip-path="url(#clip1)" clip-rule="nonzero">
<path style=" stroke:none;fill-rule:nonzero;fill:rgb(97.648621%,70.979309%,45.489502%);fill-opacity:1;" d="M 24.054688 14.300781 C 23.898438 14.011719 23.761719 13.710938 23.640625 13.402344 C 23.214844 12.269531 23.113281 11.023438 22.585938 9.929688 C 22.074219 8.867188 21.167969 8.144531 20.335938 7.34375 C 19.671875 6.707031 18.480469 5.449219 19.757812 4.675781 C 20.5 4.222656 25.589844 8.617188 25.855469 8.976562 C 26.820312 10.273438 28.109375 15.148438 28.59375 19.171875 "/>
</g>
<path style=" stroke:none;fill-rule:nonzero;fill:rgb(97.648621%,70.979309%,45.489502%);fill-opacity:1;" d="M 17.316406 6.734375 L 17.410156 6.65625 C 18.164062 6.023438 19.300781 6.121094 19.9375 6.867188 L 21.644531 8.871094 L 22.851562 10.292969 C 24.015625 11.660156 25.222656 12.699219 26.113281 14.253906 C 26.671875 15.226562 27.488281 16.027344 28.132812 16.941406 C 29.273438 18.554688 29.402344 19.472656 29.078125 21.351562 C 28.910156 22.316406 30.816406 24.269531 29.9375 25.007812 L 23.773438 30.183594 C 22.800781 31 22.367188 27.835938 20.488281 27.40625 L 20.4375 27.394531 C 18.4375 26.9375 16.636719 25.847656 15.3125 24.289062 L 11.878906 20.253906 L 10.296875 18.398438 L 8.964844 16.832031 C 8.328125 16.082031 8.425781 14.953125 9.179688 14.320312 L 9.273438 14.238281 C 9.960938 13.660156 10.96875 13.695312 11.625 14.273438 L 11.640625 14.261719 L 11.429688 14.011719 C 10.792969 13.261719 10.886719 12.132812 11.640625 11.5 L 11.734375 11.417969 C 12.492188 10.785156 13.628906 10.882812 14.265625 11.628906 C 13.628906 10.882812 13.722656 9.75 14.480469 9.117188 L 14.574219 9.039062 C 15.328125 8.40625 16.464844 8.5 17.101562 9.25 C 16.464844 8.5 16.5625 7.367188 17.316406 6.734375 "/>
<g clip-path="url(#clip2)" clip-rule="nonzero">
<path style=" stroke:none;fill-rule:nonzero;fill:rgb(58.81958%,86.669922%,97.24884%);fill-opacity:1;" d="M 22.09375 29.585938 L 25.214844 33.253906 C 25.488281 33.574219 25.96875 33.617188 26.292969 33.347656 L 33.816406 27.027344 C 34.140625 26.757812 34.179688 26.277344 33.910156 25.957031 L 30.789062 22.289062 C 30.515625 21.96875 30.03125 21.925781 29.710938 22.199219 L 22.183594 28.515625 C 21.859375 28.785156 21.820312 29.265625 22.09375 29.585938 "/>
</g>
<path style=" stroke:none;fill-rule:nonzero;fill:rgb(100%,100%,100%);fill-opacity:1;" d="M 25.082031 29.09375 C 24.632812 29.46875 24.578125 30.132812 24.957031 30.578125 C 25.335938 31.023438 26.003906 31.078125 26.453125 30.703125 C 26.898438 30.328125 26.957031 29.660156 26.578125 29.21875 C 26.199219 28.773438 25.53125 28.71875 25.082031 29.09375 "/>
<path style=" stroke:none;fill-rule:nonzero;fill:rgb(98.81897%,83.139038%,56.469727%);fill-opacity:1;" d="M 17.046875 9.234375 L 20.261719 13.011719 "/>
<path style=" stroke:none;fill-rule:nonzero;fill:rgb(93.728638%,70.979309%,52.159119%);fill-opacity:1;" d="M 17.046875 9.234375 C 17.378906 9.5 17.675781 9.785156 17.96875 10.082031 C 18.257812 10.378906 18.539062 10.683594 18.804688 10.996094 C 19.074219 11.3125 19.328125 11.636719 19.574219 11.96875 C 19.820312 12.300781 20.054688 12.644531 20.261719 13.011719 C 19.929688 12.75 19.628906 12.464844 19.339844 12.167969 C 19.046875 11.871094 18.769531 11.566406 18.503906 11.25 C 18.234375 10.9375 17.976562 10.613281 17.734375 10.277344 C 17.488281 9.945312 17.253906 9.601562 17.046875 9.234375 "/>
<path style=" stroke:none;fill-rule:nonzero;fill:rgb(98.81897%,83.139038%,56.469727%);fill-opacity:1;" d="M 14.003906 11.351562 L 17.214844 15.128906 "/>
<path style=" stroke:none;fill-rule:nonzero;fill:rgb(93.728638%,70.979309%,52.159119%);fill-opacity:1;" d="M 14.003906 11.351562 C 14.335938 11.617188 14.636719 11.902344 14.925781 12.199219 C 15.214844 12.492188 15.496094 12.800781 15.761719 13.113281 C 16.03125 13.425781 16.285156 13.753906 16.53125 14.085938 C 16.777344 14.417969 17.011719 14.761719 17.214844 15.128906 C 16.886719 14.867188 16.585938 14.578125 16.296875 14.285156 C 16.007812 13.988281 15.726562 13.683594 15.460938 13.367188 C 15.191406 13.050781 14.933594 12.726562 14.691406 12.394531 C 14.445312 12.0625 14.207031 11.71875 14.003906 11.351562 "/>
<path style=" stroke:none;fill-rule:nonzero;fill:rgb(98.81897%,83.139038%,56.469727%);fill-opacity:1;" d="M 11.386719 14.074219 L 14.601562 17.851562 "/>
<path style=" stroke:none;fill-rule:nonzero;fill:rgb(93.728638%,70.979309%,52.159119%);fill-opacity:1;" d="M 11.386719 14.074219 C 11.714844 14.335938 12.019531 14.625 12.308594 14.917969 C 12.597656 15.214844 12.878906 15.519531 13.144531 15.835938 C 13.414062 16.148438 13.667969 16.472656 13.914062 16.808594 C 14.160156 17.140625 14.394531 17.484375 14.601562 17.851562 C 14.269531 17.585938 13.96875 17.300781 13.679688 17.003906 C 13.390625 16.710938 13.109375 16.402344 12.84375 16.089844 C 12.574219 15.773438 12.320312 15.449219 12.074219 15.117188 C 11.828125 14.785156 11.59375 14.441406 11.386719 14.074219 "/>
<path style=" stroke:none;fill-rule:nonzero;fill:rgb(98.81897%,83.139038%,56.469727%);fill-opacity:1;" d="M 22.019531 7.191406 L 21.933594 7.105469 C 21.222656 6.425781 20.078125 6.445312 19.394531 7.152344 L 17.558594 9.039062 L 16.261719 10.378906 C 15.007812 11.667969 13.738281 12.625 12.746094 14.117188 C 12.125 15.054688 11.257812 15.800781 10.554688 16.671875 C 9.308594 18.203125 9.121094 19.113281 9.320312 21.007812 C 9.425781 21.980469 7.390625 23.808594 8.222656 24.601562 L 14.03125 30.167969 C 14.949219 31.046875 15.585938 27.914062 17.492188 27.609375 L 17.542969 27.601562 C 19.570312 27.273438 21.4375 26.304688 22.863281 24.835938 L 26.554688 21.03125 L 28.253906 19.28125 L 29.6875 17.804688 C 30.371094 17.101562 30.351562 15.964844 29.640625 15.285156 L 29.550781 15.199219 C 28.902344 14.578125 27.894531 14.542969 27.203125 15.078125 L 27.1875 15.066406 L 27.414062 14.832031 C 28.101562 14.125 28.078125 12.992188 27.367188 12.308594 L 27.28125 12.226562 C 26.570312 11.542969 25.425781 11.566406 24.742188 12.273438 C 25.425781 11.566406 25.40625 10.433594 24.695312 9.75 L 24.605469 9.667969 C 23.894531 8.984375 22.753906 9.003906 22.066406 9.710938 C 22.753906 9.003906 22.730469 7.871094 22.019531 7.191406 "/>
<g clip-path="url(#clip3)" clip-rule="nonzero">
<path style=" stroke:none;fill-rule:nonzero;fill:rgb(92.549133%,6.269836%,30.198669%);fill-opacity:1;" d="M 15.746094 29.679688 L 12.390625 33.140625 C 12.097656 33.441406 11.613281 33.449219 11.308594 33.160156 L 4.21875 26.367188 C 3.914062 26.078125 3.902344 25.59375 4.195312 25.292969 L 7.554688 21.832031 C 7.847656 21.53125 8.332031 21.523438 8.636719 21.816406 L 15.726562 28.605469 C 16.03125 28.898438 16.039062 29.378906 15.746094 29.679688 "/>
</g>
<path style=" stroke:none;fill-rule:nonzero;fill:rgb(100%,100%,100%);fill-opacity:1;" d="M 12.796875 28.996094 C 13.21875 29.398438 13.230469 30.066406 12.824219 30.484375 C 12.417969 30.902344 11.746094 30.914062 11.324219 30.511719 C 10.902344 30.105469 10.890625 29.441406 11.296875 29.019531 C 11.703125 28.601562 12.375 28.589844 12.796875 28.996094 "/>
<path style=" stroke:none;fill-rule:nonzero;fill:rgb(98.81897%,83.139038%,56.469727%);fill-opacity:1;" d="M 22.125 9.703125 L 18.667969 13.261719 "/>
<path style=" stroke:none;fill-rule:nonzero;fill:rgb(93.728638%,70.979309%,52.159119%);fill-opacity:1;" d="M 22.125 9.703125 C 21.894531 10.054688 21.636719 10.382812 21.371094 10.699219 C 21.105469 11.015625 20.828125 11.320312 20.539062 11.617188 C 20.25 11.914062 19.953125 12.199219 19.644531 12.476562 C 19.335938 12.753906 19.015625 13.019531 18.667969 13.261719 C 18.898438 12.90625 19.152344 12.582031 19.421875 12.265625 C 19.6875 11.949219 19.964844 11.640625 20.253906 11.34375 C 20.542969 11.046875 20.839844 10.761719 21.148438 10.484375 C 21.457031 10.207031 21.777344 9.941406 22.125 9.703125 "/>
<path style=" stroke:none;fill-rule:nonzero;fill:rgb(98.81897%,83.139038%,56.469727%);fill-opacity:1;" d="M 25.019531 12.011719 L 21.566406 15.570312 "/>
<path style=" stroke:none;fill-rule:nonzero;fill:rgb(93.728638%,70.979309%,52.159119%);fill-opacity:1;" d="M 25.019531 12.011719 C 24.792969 12.363281 24.535156 12.691406 24.269531 13.007812 C 24 13.324219 23.722656 13.632812 23.433594 13.925781 C 23.148438 14.226562 22.847656 14.511719 22.542969 14.785156 C 22.230469 15.0625 21.914062 15.332031 21.566406 15.570312 C 21.792969 15.21875 22.050781 14.890625 22.316406 14.574219 C 22.585938 14.257812 22.863281 13.953125 23.152344 13.65625 C 23.4375 13.359375 23.738281 13.070312 24.046875 12.796875 C 24.355469 12.519531 24.675781 12.25 25.019531 12.011719 "/>
<path style=" stroke:none;fill-rule:nonzero;fill:rgb(98.81897%,83.139038%,56.469727%);fill-opacity:1;" d="M 27.453125 14.898438 L 23.996094 18.457031 "/>
<path style=" stroke:none;fill-rule:nonzero;fill:rgb(93.728638%,70.979309%,52.159119%);fill-opacity:1;" d="M 27.453125 14.898438 C 27.222656 15.25 26.96875 15.578125 26.699219 15.894531 C 26.433594 16.210938 26.15625 16.515625 25.867188 16.8125 C 25.582031 17.109375 25.28125 17.394531 24.972656 17.671875 C 24.664062 17.949219 24.34375 18.214844 23.996094 18.457031 C 24.226562 18.105469 24.484375 17.777344 24.75 17.460938 C 25.015625 17.144531 25.292969 16.835938 25.582031 16.539062 C 25.871094 16.246094 26.171875 15.957031 26.476562 15.679688 C 26.789062 15.40625 27.105469 15.136719 27.453125 14.898438 "/>
<path style=" stroke:none;fill-rule:nonzero;fill:rgb(97.648621%,70.979309%,45.489502%);fill-opacity:1;" d="M 14.585938 19.140625 L 14.160156 19.5625 C 13.535156 20.179688 12.515625 20.179688 11.894531 19.5625 L 9.210938 16.898438 C 8.589844 16.277344 8.589844 15.265625 9.210938 14.648438 C 10.070312 13.796875 11.472656 13.796875 12.328125 14.648438 L 14.585938 16.886719 C 15.207031 17.507812 15.207031 18.519531 14.585938 19.140625 "/>
<path style=" stroke:none;fill-rule:nonzero;fill:rgb(97.648621%,70.979309%,45.489502%);fill-opacity:1;" d="M 17.007812 16.464844 L 16.582031 16.886719 C 15.957031 17.507812 14.9375 17.507812 14.316406 16.886719 L 11.632812 14.226562 C 11.011719 13.605469 11.011719 12.59375 11.632812 11.976562 C 12.492188 11.125 13.894531 11.125 14.75 11.976562 L 17.007812 14.214844 C 17.628906 14.835938 17.628906 15.847656 17.007812 16.464844 "/>
<path style=" stroke:none;fill-rule:nonzero;fill:rgb(97.648621%,70.979309%,45.489502%);fill-opacity:1;" d="M 19.542969 13.949219 L 19.226562 14.261719 C 18.628906 14.855469 17.648438 14.855469 17.050781 14.261719 L 14.28125 11.507812 C 13.679688 10.914062 13.679688 9.941406 14.28125 9.347656 L 14.59375 9.035156 C 15.191406 8.441406 16.167969 8.441406 16.769531 9.035156 L 19.542969 11.789062 C 20.136719 12.382812 20.136719 13.355469 19.542969 13.949219 "/>
<path style=" stroke:none;fill-rule:nonzero;fill:rgb(97.648621%,70.979309%,45.489502%);fill-opacity:1;" d="M 22.109375 11.800781 C 21.367188 12.535156 20.15625 12.535156 19.417969 11.800781 L 17.160156 9.558594 C 16.417969 8.824219 16.417969 7.621094 17.160156 6.886719 C 17.898438 6.152344 19.109375 6.152344 19.851562 6.886719 L 22.109375 9.128906 C 22.847656 9.863281 22.847656 11.066406 22.109375 11.800781 "/>
<path style=" stroke:none;fill-rule:nonzero;fill:rgb(85.099792%,53.729248%,34.118652%);fill-opacity:1;" d="M 11.59375 14.1875 C 11.878906 14.351562 12.128906 14.546875 12.378906 14.746094 C 12.621094 14.949219 12.855469 15.160156 13.082031 15.386719 C 13.304688 15.605469 13.519531 15.839844 13.722656 16.082031 C 13.925781 16.328125 14.121094 16.578125 14.285156 16.859375 C 14.003906 16.695312 13.75 16.503906 13.503906 16.300781 C 13.257812 16.097656 13.023438 15.886719 12.800781 15.660156 C 12.578125 15.4375 12.363281 15.207031 12.15625 14.964844 C 11.957031 14.71875 11.761719 14.46875 11.59375 14.1875 "/>
<path style=" stroke:none;fill-rule:nonzero;fill:rgb(85.099792%,53.729248%,34.118652%);fill-opacity:1;" d="M 14.285156 11.648438 C 14.570312 11.8125 14.820312 12.007812 15.070312 12.207031 C 15.3125 12.410156 15.546875 12.625 15.769531 12.84375 C 15.996094 13.066406 16.210938 13.300781 16.414062 13.542969 C 16.617188 13.789062 16.8125 14.039062 16.976562 14.320312 C 16.695312 14.15625 16.441406 13.960938 16.195312 13.761719 C 15.949219 13.558594 15.714844 13.347656 15.492188 13.125 C 15.269531 12.902344 15.054688 12.667969 14.847656 12.425781 C 14.648438 12.179688 14.453125 11.929688 14.285156 11.648438 "/>
<path style=" stroke:none;fill-rule:nonzero;fill:rgb(85.099792%,53.729248%,34.118652%);fill-opacity:1;" d="M 16.574219 8.976562 C 16.855469 9.140625 17.109375 9.335938 17.355469 9.535156 C 17.601562 9.738281 17.835938 9.949219 18.058594 10.175781 C 18.285156 10.394531 18.496094 10.628906 18.703125 10.871094 C 18.902344 11.117188 19.097656 11.367188 19.265625 11.648438 C 18.980469 11.484375 18.726562 11.289062 18.480469 11.089844 C 18.238281 10.886719 18.003906 10.675781 17.777344 10.449219 C 17.554688 10.226562 17.339844 9.996094 17.136719 9.753906 C 16.933594 9.507812 16.738281 9.257812 16.574219 8.976562 "/>
</g>
</svg>
