<?xml version="1.0" encoding="UTF-8"?>
<svg xmlns="http://www.w3.org/2000/svg" xmlns:xlink="http://www.w3.org/1999/xlink" width="39pt" height="38.999999pt" viewBox="0 0 39 38.999999" version="1.2">
<defs>
<clipPath id="clip1">
  <path d="M 4.445312 6.777344 L 34.445312 6.777344 L 34.445312 32.277344 L 4.445312 32.277344 Z M 4.445312 6.777344 "/>
</clipPath>
</defs>
<g id="surface1">
<path style=" stroke:none;fill-rule:nonzero;fill:rgb(22.349548%,20.779419%,21.179199%);fill-opacity:1;" d="M 19.5 0 C 18.863281 0 18.222656 0.03125 17.589844 0.09375 C 16.953125 0.15625 16.320312 0.25 15.695312 0.375 C 15.070312 0.5 14.449219 0.652344 13.839844 0.839844 C 13.226562 1.023438 12.628906 1.238281 12.039062 1.484375 C 11.449219 1.730469 10.871094 2 10.308594 2.300781 C 9.746094 2.605469 9.199219 2.929688 8.667969 3.285156 C 8.136719 3.640625 7.621094 4.019531 7.128906 4.425781 C 6.636719 4.832031 6.164062 5.261719 5.710938 5.710938 C 5.261719 6.164062 4.832031 6.636719 4.425781 7.128906 C 4.019531 7.621094 3.640625 8.136719 3.285156 8.667969 C 2.929688 9.199219 2.605469 9.746094 2.300781 10.308594 C 2 10.871094 1.730469 11.449219 1.484375 12.039062 C 1.238281 12.628906 1.023438 13.226562 0.839844 13.839844 C 0.652344 14.449219 0.5 15.070312 0.375 15.695312 C 0.25 16.320312 0.15625 16.953125 0.09375 17.589844 C 0.03125 18.222656 0 18.863281 0 19.5 C 0 20.136719 0.03125 20.777344 0.09375 21.410156 C 0.15625 22.046875 0.25 22.679688 0.375 23.304688 C 0.5 23.929688 0.652344 24.550781 0.839844 25.160156 C 1.023438 25.773438 1.238281 26.371094 1.484375 26.960938 C 1.730469 27.550781 2 28.128906 2.300781 28.691406 C 2.605469 29.253906 2.929688 29.800781 3.285156 30.332031 C 3.640625 30.863281 4.019531 31.378906 4.425781 31.871094 C 4.832031 32.363281 5.261719 32.835938 5.710938 33.289062 C 6.164062 33.738281 6.636719 34.167969 7.128906 34.574219 C 7.621094 34.980469 8.136719 35.359375 8.667969 35.714844 C 9.199219 36.070312 9.746094 36.394531 10.308594 36.699219 C 10.871094 37 11.449219 37.269531 12.039062 37.515625 C 12.628906 37.761719 13.226562 37.976562 13.839844 38.160156 C 14.449219 38.347656 15.070312 38.5 15.695312 38.625 C 16.320312 38.75 16.953125 38.84375 17.589844 38.90625 C 18.222656 38.96875 18.863281 39 19.5 39 C 20.136719 39 20.777344 38.96875 21.410156 38.90625 C 22.046875 38.84375 22.679688 38.75 23.304688 38.625 C 23.929688 38.5 24.550781 38.347656 25.160156 38.160156 C 25.773438 37.976562 26.371094 37.761719 26.960938 37.515625 C 27.550781 37.269531 28.128906 37 28.691406 36.699219 C 29.253906 36.394531 29.800781 36.070312 30.332031 35.714844 C 30.863281 35.359375 31.378906 34.980469 31.871094 34.574219 C 32.363281 34.167969 32.835938 33.738281 33.289062 33.289062 C 33.738281 32.835938 34.167969 32.363281 34.574219 31.871094 C 34.980469 31.378906 35.359375 30.863281 35.714844 30.332031 C 36.070312 29.800781 36.394531 29.253906 36.699219 28.691406 C 37 28.128906 37.269531 27.550781 37.515625 26.960938 C 37.761719 26.371094 37.976562 25.773438 38.160156 25.160156 C 38.347656 24.550781 38.5 23.929688 38.625 23.304688 C 38.75 22.679688 38.84375 22.046875 38.90625 21.410156 C 38.96875 20.777344 39 20.136719 39 19.5 C 39 18.863281 38.96875 18.222656 38.90625 17.589844 C 38.84375 16.953125 38.75 16.320312 38.625 15.695312 C 38.5 15.070312 38.347656 14.449219 38.160156 13.839844 C 37.976562 13.226562 37.761719 12.628906 37.515625 12.039062 C 37.269531 11.449219 37 10.871094 36.699219 10.308594 C 36.394531 9.746094 36.070312 9.199219 35.714844 8.667969 C 35.359375 8.136719 34.980469 7.621094 34.574219 7.128906 C 34.167969 6.636719 33.738281 6.164062 33.289062 5.710938 C 32.835938 5.261719 32.363281 4.832031 31.871094 4.425781 C 31.378906 4.019531 30.863281 3.640625 30.332031 3.285156 C 29.800781 2.929688 29.253906 2.605469 28.691406 2.300781 C 28.128906 2 27.550781 1.730469 26.960938 1.484375 C 26.371094 1.238281 25.773438 1.023438 25.160156 0.839844 C 24.550781 0.652344 23.929688 0.5 23.304688 0.375 C 22.679688 0.25 22.046875 0.15625 21.410156 0.09375 C 20.777344 0.03125 20.136719 0 19.5 0 Z M 19.5 0 "/>
<g clip-path="url(#clip1)" clip-rule="nonzero">
<path style=" stroke:none;fill-rule:nonzero;fill:rgb(100%,100%,100%);fill-opacity:1;" d="M 8.050781 6.917969 C 7.941406 6.925781 7.839844 6.980469 7.777344 7.078125 C 7.203125 7.953125 7.101562 9.667969 8.097656 10.601562 C 8.257812 10.75 8.441406 10.84375 8.625 10.949219 C 8.523438 11.027344 8.40625 11.097656 8.324219 11.203125 L 4.855469 15.855469 C 4.511719 16.304688 4.46875 16.914062 4.71875 17.417969 L 5.382812 18.753906 C 5.636719 19.261719 6.152344 19.585938 6.710938 19.585938 L 8.15625 19.585938 C 8.554688 19.585938 8.921875 19.421875 9.207031 19.148438 L 10.980469 17.523438 L 13.71875 23.039062 L 29.75 23.039062 L 29.75 19 C 30.503906 19.5625 30.710938 20.023438 31.730469 21.554688 C 31.960938 21.902344 32.417969 21.992188 32.761719 21.761719 L 34 20.933594 C 34.34375 20.703125 34.433594 20.242188 34.203125 19.882812 L 33.289062 18.515625 C 31.980469 16.535156 29.796875 14.980469 27.425781 14.980469 L 16.46875 14.980469 L 12.503906 11.050781 C 13.648438 9.945312 13.8125 8.183594 13.113281 7.125 C 12.953125 6.882812 12.609375 6.847656 12.402344 7.054688 L 10.386719 9.726562 L 8.347656 7.03125 C 8.269531 6.945312 8.15625 6.90625 8.050781 6.917969 Z M 16.660156 17.28125 C 16.738281 17.28125 16.816406 17.320312 16.859375 17.402344 L 17.292969 18.296875 L 18.277344 18.445312 C 18.445312 18.46875 18.507812 18.6875 18.382812 18.804688 L 17.671875 19.507812 L 17.84375 20.488281 C 17.875 20.667969 17.683594 20.796875 17.535156 20.710938 L 16.65625 20.253906 L 15.78125 20.710938 C 15.621094 20.796875 15.441406 20.667969 15.472656 20.488281 L 15.640625 19.507812 L 14.933594 18.804688 C 14.796875 18.6875 14.871094 18.464844 15.050781 18.445312 L 16.035156 18.296875 L 16.46875 17.402344 C 16.503906 17.320312 16.582031 17.28125 16.660156 17.28125 Z M 21.679688 17.28125 C 21.757812 17.28125 21.835938 17.320312 21.878906 17.402344 L 22.3125 18.296875 L 23.296875 18.445312 C 23.464844 18.46875 23.539062 18.6875 23.402344 18.804688 L 22.695312 19.507812 L 22.863281 20.488281 C 22.894531 20.667969 22.714844 20.796875 22.554688 20.710938 L 21.675781 20.253906 L 20.800781 20.710938 C 20.652344 20.796875 20.457031 20.667969 20.492188 20.488281 L 20.660156 19.507812 L 19.953125 18.804688 C 19.824219 18.6875 19.890625 18.464844 20.070312 18.445312 L 21.050781 18.296875 L 21.484375 17.402344 C 21.523438 17.320312 21.601562 17.28125 21.679688 17.28125 Z M 26.8125 17.28125 C 26.890625 17.28125 26.96875 17.320312 27.011719 17.402344 L 27.445312 18.296875 L 28.429688 18.445312 C 28.597656 18.46875 28.671875 18.6875 28.53125 18.804688 L 27.824219 19.507812 L 27.992188 20.488281 C 28.027344 20.667969 27.84375 20.796875 27.683594 20.710938 L 26.808594 20.253906 L 25.929688 20.710938 C 25.78125 20.796875 25.589844 20.667969 25.625 20.488281 L 25.792969 19.507812 L 25.085938 18.804688 C 24.957031 18.6875 25.019531 18.464844 25.199219 18.445312 L 26.183594 18.296875 L 26.617188 17.402344 C 26.65625 17.320312 26.734375 17.28125 26.8125 17.28125 Z M 13.71875 25.34375 L 13.71875 31.503906 C 13.71875 31.917969 14.050781 32.253906 14.464844 32.253906 L 17.554688 32.253906 C 17.964844 32.253906 18.300781 31.917969 18.300781 31.503906 L 18.300781 27.648438 L 25.167969 27.648438 L 25.167969 31.503906 C 25.167969 31.917969 25.503906 32.253906 25.914062 32.253906 L 29.003906 32.253906 C 29.417969 32.253906 29.75 31.917969 29.75 31.503906 L 29.75 25.34375 Z M 13.71875 25.34375 "/>
</g>
</g>
</svg>
