<?xml version="1.0" encoding="UTF-8"?>
<svg xmlns="http://www.w3.org/2000/svg" xmlns:xlink="http://www.w3.org/1999/xlink" width="39pt" height="38.999999pt" viewBox="0 0 39 38.999999" version="1.2">
<defs>
<clipPath id="clip1">
  <path d="M 5.425781 8.308594 L 35.425781 8.308594 L 35.425781 28.558594 L 5.425781 28.558594 Z M 5.425781 8.308594 "/>
</clipPath>
</defs>
<g id="surface1">
<path style=" stroke:none;fill-rule:nonzero;fill:rgb(22.349548%,20.779419%,21.179199%);fill-opacity:1;" d="M 19.5 0 C 18.863281 0 18.222656 0.03125 17.589844 0.09375 C 16.953125 0.15625 16.320312 0.25 15.695312 0.375 C 15.070312 0.5 14.449219 0.652344 13.839844 0.839844 C 13.226562 1.023438 12.628906 1.238281 12.039062 1.484375 C 11.449219 1.730469 10.871094 2 10.308594 2.300781 C 9.746094 2.605469 9.199219 2.929688 8.667969 3.285156 C 8.136719 3.640625 7.621094 4.019531 7.128906 4.425781 C 6.636719 4.832031 6.164062 5.261719 5.710938 5.710938 C 5.261719 6.164062 4.832031 6.636719 4.425781 7.128906 C 4.019531 7.621094 3.640625 8.136719 3.285156 8.667969 C 2.929688 9.199219 2.605469 9.746094 2.300781 10.308594 C 2 10.871094 1.730469 11.449219 1.484375 12.039062 C 1.238281 12.628906 1.023438 13.226562 0.839844 13.839844 C 0.652344 14.449219 0.5 15.070312 0.375 15.695312 C 0.25 16.320312 0.15625 16.953125 0.09375 17.589844 C 0.03125 18.222656 0 18.863281 0 19.5 C 0 20.136719 0.03125 20.777344 0.09375 21.410156 C 0.15625 22.046875 0.25 22.679688 0.375 23.304688 C 0.5 23.929688 0.652344 24.550781 0.839844 25.160156 C 1.023438 25.773438 1.238281 26.371094 1.484375 26.960938 C 1.730469 27.550781 2 28.128906 2.300781 28.691406 C 2.605469 29.253906 2.929688 29.800781 3.285156 30.332031 C 3.640625 30.863281 4.019531 31.378906 4.425781 31.871094 C 4.832031 32.363281 5.261719 32.835938 5.710938 33.289062 C 6.164062 33.738281 6.636719 34.167969 7.128906 34.574219 C 7.621094 34.980469 8.136719 35.359375 8.667969 35.714844 C 9.199219 36.070312 9.746094 36.394531 10.308594 36.699219 C 10.871094 37 11.449219 37.269531 12.039062 37.515625 C 12.628906 37.761719 13.226562 37.976562 13.839844 38.160156 C 14.449219 38.347656 15.070312 38.5 15.695312 38.625 C 16.320312 38.75 16.953125 38.84375 17.589844 38.90625 C 18.222656 38.96875 18.863281 39 19.5 39 C 20.136719 39 20.777344 38.96875 21.410156 38.90625 C 22.046875 38.84375 22.679688 38.75 23.304688 38.625 C 23.929688 38.5 24.550781 38.347656 25.160156 38.160156 C 25.773438 37.976562 26.371094 37.761719 26.960938 37.515625 C 27.550781 37.269531 28.128906 37 28.691406 36.699219 C 29.253906 36.394531 29.800781 36.070312 30.332031 35.714844 C 30.863281 35.359375 31.378906 34.980469 31.871094 34.574219 C 32.363281 34.167969 32.835938 33.738281 33.289062 33.289062 C 33.738281 32.835938 34.167969 32.363281 34.574219 31.871094 C 34.980469 31.378906 35.359375 30.863281 35.714844 30.332031 C 36.070312 29.800781 36.394531 29.253906 36.699219 28.691406 C 37 28.128906 37.269531 27.550781 37.515625 26.960938 C 37.761719 26.371094 37.976562 25.773438 38.160156 25.160156 C 38.347656 24.550781 38.5 23.929688 38.625 23.304688 C 38.75 22.679688 38.84375 22.046875 38.90625 21.410156 C 38.96875 20.777344 39 20.136719 39 19.5 C 39 18.863281 38.96875 18.222656 38.90625 17.589844 C 38.84375 16.953125 38.75 16.320312 38.625 15.695312 C 38.5 15.070312 38.347656 14.449219 38.160156 13.839844 C 37.976562 13.226562 37.761719 12.628906 37.515625 12.039062 C 37.269531 11.449219 37 10.871094 36.699219 10.308594 C 36.394531 9.746094 36.070312 9.199219 35.714844 8.667969 C 35.359375 8.136719 34.980469 7.621094 34.574219 7.128906 C 34.167969 6.636719 33.738281 6.164062 33.289062 5.710938 C 32.835938 5.261719 32.363281 4.832031 31.871094 4.425781 C 31.378906 4.019531 30.863281 3.640625 30.332031 3.285156 C 29.800781 2.929688 29.253906 2.605469 28.691406 2.300781 C 28.128906 2 27.550781 1.730469 26.960938 1.484375 C 26.371094 1.238281 25.773438 1.023438 25.160156 0.839844 C 24.550781 0.652344 23.929688 0.5 23.304688 0.375 C 22.679688 0.25 22.046875 0.15625 21.410156 0.09375 C 20.777344 0.03125 20.136719 0 19.5 0 Z M 19.5 0 "/>
<g clip-path="url(#clip1)" clip-rule="nonzero">
<path style=" stroke:none;fill-rule:nonzero;fill:rgb(100%,100%,100%);fill-opacity:1;" d="M 12.496094 8.308594 C 8.738281 8.308594 5.695312 11.28125 5.695312 14.949219 L 5.695312 18.265625 L 30.625 18.265625 L 30.625 14.949219 C 30.625 11.28125 27.578125 8.308594 23.824219 8.308594 Z M 18.175781 11.792969 C 18.277344 11.792969 18.378906 11.835938 18.4375 11.929688 L 18.972656 13.039062 L 20.226562 13.222656 C 20.441406 13.25 20.546875 13.523438 20.371094 13.664062 L 19.46875 14.53125 L 19.671875 15.742188 C 19.71875 15.96875 19.5 16.125 19.296875 16.023438 L 18.171875 15.457031 L 17.054688 16.023438 C 16.863281 16.125 16.632812 15.96875 16.675781 15.742188 L 16.878906 14.53125 L 15.976562 13.664062 C 15.816406 13.519531 15.90625 13.25 16.136719 13.222656 L 17.375 13.039062 L 17.925781 11.929688 C 17.980469 11.835938 18.074219 11.792969 18.175781 11.792969 Z M 11.367188 11.808594 C 11.464844 11.808594 11.5625 11.851562 11.613281 11.941406 L 12.164062 13.046875 L 13.410156 13.230469 C 13.628906 13.261719 13.703125 13.53125 13.542969 13.671875 L 12.644531 14.535156 L 12.859375 15.742188 C 12.902344 15.96875 12.65625 16.125 12.46875 16.023438 L 11.367188 15.457031 L 10.25 16.023438 C 10.046875 16.125 9.828125 15.96875 9.855469 15.742188 L 10.074219 14.535156 L 9.175781 13.671875 C 9 13.53125 9.101562 13.261719 9.320312 13.230469 L 10.570312 13.046875 L 11.117188 11.941406 C 11.167969 11.851562 11.269531 11.808594 11.367188 11.808594 Z M 24.960938 11.8125 C 25.058594 11.8125 25.160156 11.859375 25.21875 11.949219 L 25.769531 13.050781 L 27 13.234375 C 27.214844 13.265625 27.316406 13.535156 27.144531 13.675781 L 26.246094 14.539062 L 26.464844 15.742188 C 26.492188 15.96875 26.273438 16.121094 26.070312 16.023438 L 24.957031 15.460938 L 23.84375 16.023438 C 23.667969 16.121094 23.421875 15.96875 23.464844 15.742188 L 23.667969 14.539062 L 22.785156 13.675781 C 22.613281 13.53125 22.699219 13.261719 22.929688 13.234375 L 24.175781 13.050781 L 24.726562 11.949219 C 24.769531 11.859375 24.863281 11.8125 24.960938 11.8125 Z M 5.695312 20.480469 L 5.695312 27.121094 C 5.695312 27.730469 6.203125 28.226562 6.828125 28.226562 L 10.230469 28.226562 C 10.855469 28.226562 11.363281 27.730469 11.363281 27.121094 L 11.363281 23.800781 L 20.425781 23.800781 L 20.425781 27.121094 C 20.425781 27.730469 20.933594 28.226562 21.558594 28.226562 L 24.957031 28.226562 C 25.582031 28.226562 26.089844 27.730469 26.089844 27.121094 L 26.089844 22.691406 L 28.355469 22.691406 L 28.355469 24.777344 C 28.355469 26.382812 29.464844 27.855469 31.078125 28.160156 C 33.25 28.574219 35.15625 26.953125 35.15625 24.90625 L 35.15625 22.371094 C 35.15625 21.9375 34.796875 21.585938 34.355469 21.585938 L 33.691406 21.585938 C 33.25 21.585938 32.890625 21.9375 32.890625 22.371094 L 32.890625 24.90625 C 32.890625 25.515625 32.378906 26.011719 31.757812 26.011719 C 31.132812 26.011719 30.625 25.515625 30.625 24.90625 L 30.625 20.480469 Z M 5.695312 20.480469 "/>
</g>
</g>
</svg>
