<?xml version="1.0" encoding="UTF-8"?>
<svg xmlns="http://www.w3.org/2000/svg" xmlns:xlink="http://www.w3.org/1999/xlink" width="39pt" height="38.999999pt" viewBox="0 0 39 38.999999" version="1.2">
<defs>
<clipPath id="clip1">
  <path d="M 6.046875 22.621094 L 32.125 22.621094 L 32.125 31.203125 L 6.046875 31.203125 Z M 6.046875 22.621094 "/>
</clipPath>
<clipPath id="clip2">
  <path d="M 6.464844 4.953125 L 32.296875 4.953125 L 32.296875 28.929688 L 6.464844 28.929688 Z M 6.464844 4.953125 "/>
</clipPath>
</defs>
<g id="surface1">
<path style=" stroke:none;fill-rule:nonzero;fill:rgb(22.349548%,20.779419%,21.179199%);fill-opacity:1;" d="M 19.5 0 C 18.863281 0 18.222656 0.03125 17.589844 0.09375 C 16.953125 0.15625 16.320312 0.25 15.695312 0.375 C 15.070312 0.5 14.449219 0.652344 13.839844 0.839844 C 13.226562 1.023438 12.628906 1.238281 12.039062 1.484375 C 11.449219 1.730469 10.871094 2 10.308594 2.300781 C 9.746094 2.605469 9.199219 2.929688 8.667969 3.285156 C 8.136719 3.640625 7.621094 4.019531 7.128906 4.425781 C 6.636719 4.832031 6.164062 5.261719 5.710938 5.710938 C 5.261719 6.164062 4.832031 6.636719 4.425781 7.128906 C 4.019531 7.621094 3.640625 8.136719 3.285156 8.667969 C 2.929688 9.199219 2.605469 9.746094 2.300781 10.308594 C 2 10.871094 1.730469 11.449219 1.484375 12.039062 C 1.238281 12.628906 1.023438 13.226562 0.839844 13.839844 C 0.652344 14.449219 0.5 15.070312 0.375 15.695312 C 0.25 16.320312 0.15625 16.953125 0.09375 17.589844 C 0.03125 18.222656 0 18.863281 0 19.5 C 0 20.136719 0.03125 20.777344 0.09375 21.410156 C 0.15625 22.046875 0.25 22.679688 0.375 23.304688 C 0.5 23.929688 0.652344 24.550781 0.839844 25.160156 C 1.023438 25.773438 1.238281 26.371094 1.484375 26.960938 C 1.730469 27.550781 2 28.128906 2.300781 28.691406 C 2.605469 29.253906 2.929688 29.800781 3.285156 30.332031 C 3.640625 30.863281 4.019531 31.378906 4.425781 31.871094 C 4.832031 32.363281 5.261719 32.835938 5.710938 33.289062 C 6.164062 33.738281 6.636719 34.167969 7.128906 34.574219 C 7.621094 34.980469 8.136719 35.359375 8.667969 35.714844 C 9.199219 36.070312 9.746094 36.394531 10.308594 36.699219 C 10.871094 37 11.449219 37.269531 12.039062 37.515625 C 12.628906 37.761719 13.226562 37.976562 13.839844 38.160156 C 14.449219 38.347656 15.070312 38.5 15.695312 38.625 C 16.320312 38.75 16.953125 38.84375 17.589844 38.90625 C 18.222656 38.96875 18.863281 39 19.5 39 C 20.136719 39 20.777344 38.96875 21.410156 38.90625 C 22.046875 38.84375 22.679688 38.75 23.304688 38.625 C 23.929688 38.5 24.550781 38.347656 25.160156 38.160156 C 25.773438 37.976562 26.371094 37.761719 26.960938 37.515625 C 27.550781 37.269531 28.128906 37 28.691406 36.699219 C 29.253906 36.394531 29.800781 36.070312 30.332031 35.714844 C 30.863281 35.359375 31.378906 34.980469 31.871094 34.574219 C 32.363281 34.167969 32.835938 33.738281 33.289062 33.289062 C 33.738281 32.835938 34.167969 32.363281 34.574219 31.871094 C 34.980469 31.378906 35.359375 30.863281 35.714844 30.332031 C 36.070312 29.800781 36.394531 29.253906 36.699219 28.691406 C 37 28.128906 37.269531 27.550781 37.515625 26.960938 C 37.761719 26.371094 37.976562 25.773438 38.160156 25.160156 C 38.347656 24.550781 38.5 23.929688 38.625 23.304688 C 38.75 22.679688 38.84375 22.046875 38.90625 21.410156 C 38.96875 20.777344 39 20.136719 39 19.5 C 39 18.863281 38.96875 18.222656 38.90625 17.589844 C 38.84375 16.953125 38.75 16.320312 38.625 15.695312 C 38.5 15.070312 38.347656 14.449219 38.160156 13.839844 C 37.976562 13.226562 37.761719 12.628906 37.515625 12.039062 C 37.269531 11.449219 37 10.871094 36.699219 10.308594 C 36.394531 9.746094 36.070312 9.199219 35.714844 8.667969 C 35.359375 8.136719 34.980469 7.621094 34.574219 7.128906 C 34.167969 6.636719 33.738281 6.164062 33.289062 5.710938 C 32.835938 5.261719 32.363281 4.832031 31.871094 4.425781 C 31.378906 4.019531 30.863281 3.640625 30.332031 3.285156 C 29.800781 2.929688 29.253906 2.605469 28.691406 2.300781 C 28.128906 2 27.550781 1.730469 26.960938 1.484375 C 26.371094 1.238281 25.773438 1.023438 25.160156 0.839844 C 24.550781 0.652344 23.929688 0.5 23.304688 0.375 C 22.679688 0.25 22.046875 0.15625 21.410156 0.09375 C 20.777344 0.03125 20.136719 0 19.5 0 Z M 19.5 0 "/>
<g clip-path="url(#clip1)" clip-rule="nonzero">
<path style=" stroke:none;fill-rule:nonzero;fill:rgb(63.139343%,74.899292%,9.408569%);fill-opacity:1;" d="M 32.125 31.207031 L 6.046875 31.207031 L 6.046875 22.792969 L 10.671875 22.792969 L 13.617188 25.738281 L 8.988281 25.738281 L 8.988281 28.261719 L 29.183594 28.261719 L 29.183594 25.738281 L 22.03125 25.738281 L 24.976562 22.792969 L 32.125 22.792969 L 32.125 31.207031 "/>
</g>
<path style=" stroke:none;fill-rule:nonzero;fill:rgb(63.139343%,74.899292%,9.408569%);fill-opacity:1;" d="M 7.308594 19.429688 L 18.316406 19.429688 C 19.078125 19.429688 19.808594 19.125 20.347656 18.585938 C 20.886719 18.046875 21.1875 17.316406 21.1875 16.554688 L 21.1875 5.546875 L 7.308594 19.429688 "/>
<g clip-path="url(#clip2)" clip-rule="nonzero">
<path style=" stroke:none;fill-rule:nonzero;fill:rgb(100%,100%,100%);fill-opacity:1;" d="M 28.761719 26.160156 L 28.761719 27.84375 L 20.523438 27.84375 L 22.203125 26.160156 Z M 9.410156 26.160156 L 13.441406 26.160156 L 15.125 27.84375 L 9.410156 27.84375 Z M 19.308594 19.691406 C 19.808594 19.535156 20.269531 19.257812 20.644531 18.882812 C 21.027344 18.503906 21.300781 18.042969 21.457031 17.546875 L 30.570312 16.605469 L 19.332031 27.84375 L 18.464844 27.84375 Z M 18.316406 19.847656 C 18.359375 19.847656 18.402344 19.84375 18.445312 19.84375 L 17.617188 27.84375 L 16.316406 27.84375 L 8.324219 19.847656 Z M 18.316406 19.007812 L 8.324219 19.007812 L 20.769531 6.5625 L 20.769531 16.554688 C 20.769531 17.210938 20.515625 17.828125 20.050781 18.289062 C 19.59375 18.746094 18.960938 19.007812 18.316406 19.007812 Z M 21.609375 6.5625 L 30.785156 15.734375 L 21.601562 16.6875 C 21.605469 16.640625 21.609375 16.597656 21.609375 16.554688 Z M 32.300781 16.0625 L 21.1875 4.953125 L 6.710938 19.429688 L 12.601562 25.316406 L 8.570312 25.316406 L 8.570312 28.683594 L 29.601562 28.683594 L 29.601562 25.316406 L 23.046875 25.316406 L 32.300781 16.0625 "/>
</g>
<path style=" stroke:none;fill-rule:nonzero;fill:rgb(100%,100%,100%);fill-opacity:1;" d="M 27.921875 18.0625 L 27.328125 17.464844 L 26.460938 18.335938 L 27.054688 18.929688 L 27.921875 18.0625 "/>
<path style=" stroke:none;fill-rule:nonzero;fill:rgb(100%,100%,100%);fill-opacity:1;" d="M 26.714844 19.269531 L 26.117188 18.675781 L 22.269531 22.527344 L 22.863281 23.121094 L 26.714844 19.269531 "/>
<path style=" stroke:none;fill-rule:nonzero;fill:rgb(100%,100%,100%);fill-opacity:1;" d="M 13.640625 22.789062 L 13.046875 23.382812 L 13.640625 23.980469 L 14.238281 23.382812 L 13.640625 22.789062 "/>
<path style=" stroke:none;fill-rule:nonzero;fill:rgb(100%,100%,100%);fill-opacity:1;" d="M 11.265625 20.410156 L 10.667969 21.003906 L 11.265625 21.597656 L 11.859375 21.003906 L 11.265625 20.410156 "/>
<path style=" stroke:none;fill-rule:nonzero;fill:rgb(100%,100%,100%);fill-opacity:1;" d="M 12.453125 21.597656 L 11.859375 22.195312 L 12.453125 22.789062 L 13.046875 22.195312 L 12.453125 21.597656 "/>
</g>
</svg>
