<?xml version="1.0" encoding="UTF-8"?>
<svg xmlns="http://www.w3.org/2000/svg" xmlns:xlink="http://www.w3.org/1999/xlink" width="39pt" height="38.999999pt" viewBox="0 0 39 38.999999" version="1.2">
<defs>
<clipPath id="clip1">
  <path d="M 4.699219 4.699219 L 33.949219 4.699219 L 33.949219 33.949219 L 4.699219 33.949219 Z M 4.699219 4.699219 "/>
</clipPath>
<clipPath id="clip2">
  <path d="M 4.699219 4.699219 L 33.949219 4.699219 L 33.949219 33.949219 L 4.699219 33.949219 Z M 4.699219 4.699219 "/>
</clipPath>
</defs>
<g id="surface1">
<path style=" stroke:none;fill-rule:nonzero;fill:rgb(22.349548%,20.779419%,21.179199%);fill-opacity:1;" d="M 19.5 0 C 18.863281 0 18.222656 0.03125 17.589844 0.09375 C 16.953125 0.15625 16.320312 0.25 15.695312 0.375 C 15.070312 0.5 14.449219 0.652344 13.839844 0.839844 C 13.226562 1.023438 12.628906 1.238281 12.039062 1.484375 C 11.449219 1.730469 10.871094 2 10.308594 2.300781 C 9.746094 2.605469 9.199219 2.929688 8.667969 3.285156 C 8.136719 3.640625 7.621094 4.019531 7.128906 4.425781 C 6.636719 4.832031 6.164062 5.261719 5.710938 5.710938 C 5.261719 6.164062 4.832031 6.636719 4.425781 7.128906 C 4.019531 7.621094 3.640625 8.136719 3.285156 8.667969 C 2.929688 9.199219 2.605469 9.746094 2.300781 10.308594 C 2 10.871094 1.730469 11.449219 1.484375 12.039062 C 1.238281 12.628906 1.023438 13.226562 0.839844 13.839844 C 0.652344 14.449219 0.5 15.070312 0.375 15.695312 C 0.25 16.320312 0.15625 16.953125 0.09375 17.589844 C 0.03125 18.222656 0 18.863281 0 19.5 C 0 20.136719 0.03125 20.777344 0.09375 21.410156 C 0.15625 22.046875 0.25 22.679688 0.375 23.304688 C 0.5 23.929688 0.652344 24.550781 0.839844 25.160156 C 1.023438 25.773438 1.238281 26.371094 1.484375 26.960938 C 1.730469 27.550781 2 28.128906 2.300781 28.691406 C 2.605469 29.253906 2.929688 29.800781 3.285156 30.332031 C 3.640625 30.863281 4.019531 31.378906 4.425781 31.871094 C 4.832031 32.363281 5.261719 32.835938 5.710938 33.289062 C 6.164062 33.738281 6.636719 34.167969 7.128906 34.574219 C 7.621094 34.980469 8.136719 35.359375 8.667969 35.714844 C 9.199219 36.070312 9.746094 36.394531 10.308594 36.699219 C 10.871094 37 11.449219 37.269531 12.039062 37.515625 C 12.628906 37.761719 13.226562 37.976562 13.839844 38.160156 C 14.449219 38.347656 15.070312 38.5 15.695312 38.625 C 16.320312 38.75 16.953125 38.84375 17.589844 38.90625 C 18.222656 38.96875 18.863281 39 19.5 39 C 20.136719 39 20.777344 38.96875 21.410156 38.90625 C 22.046875 38.84375 22.679688 38.75 23.304688 38.625 C 23.929688 38.5 24.550781 38.347656 25.160156 38.160156 C 25.773438 37.976562 26.371094 37.761719 26.960938 37.515625 C 27.550781 37.269531 28.128906 37 28.691406 36.699219 C 29.253906 36.394531 29.800781 36.070312 30.332031 35.714844 C 30.863281 35.359375 31.378906 34.980469 31.871094 34.574219 C 32.363281 34.167969 32.835938 33.738281 33.289062 33.289062 C 33.738281 32.835938 34.167969 32.363281 34.574219 31.871094 C 34.980469 31.378906 35.359375 30.863281 35.714844 30.332031 C 36.070312 29.800781 36.394531 29.253906 36.699219 28.691406 C 37 28.128906 37.269531 27.550781 37.515625 26.960938 C 37.761719 26.371094 37.976562 25.773438 38.160156 25.160156 C 38.347656 24.550781 38.5 23.929688 38.625 23.304688 C 38.75 22.679688 38.84375 22.046875 38.90625 21.410156 C 38.96875 20.777344 39 20.136719 39 19.5 C 39 18.863281 38.96875 18.222656 38.90625 17.589844 C 38.84375 16.953125 38.75 16.320312 38.625 15.695312 C 38.5 15.070312 38.347656 14.449219 38.160156 13.839844 C 37.976562 13.226562 37.761719 12.628906 37.515625 12.039062 C 37.269531 11.449219 37 10.871094 36.699219 10.308594 C 36.394531 9.746094 36.070312 9.199219 35.714844 8.667969 C 35.359375 8.136719 34.980469 7.621094 34.574219 7.128906 C 34.167969 6.636719 33.738281 6.164062 33.289062 5.710938 C 32.835938 5.261719 32.363281 4.832031 31.871094 4.425781 C 31.378906 4.019531 30.863281 3.640625 30.332031 3.285156 C 29.800781 2.929688 29.253906 2.605469 28.691406 2.300781 C 28.128906 2 27.550781 1.730469 26.960938 1.484375 C 26.371094 1.238281 25.773438 1.023438 25.160156 0.839844 C 24.550781 0.652344 23.929688 0.5 23.304688 0.375 C 22.679688 0.25 22.046875 0.15625 21.410156 0.09375 C 20.777344 0.03125 20.136719 0 19.5 0 Z M 19.5 0 "/>
<g clip-path="url(#clip1)" clip-rule="nonzero">
<path style=" stroke:none;fill-rule:nonzero;fill:rgb(29.40979%,2.349854%,67.449951%);fill-opacity:1;" d="M 32.289062 17.164062 C 31.835938 16.832031 31.269531 16.414062 31.203125 16.144531 C 31.230469 15.613281 31.375 15.117188 31.640625 14.652344 C 32.035156 13.742188 32.445312 12.800781 31.988281 12.015625 C 31.535156 11.230469 30.5 11.101562 29.503906 10.996094 C 28.980469 10.992188 28.484375 10.875 28.015625 10.640625 C 27.785156 10.171875 27.664062 9.675781 27.664062 9.152344 C 27.550781 8.15625 27.4375 7.125 26.644531 6.664062 C 25.855469 6.203125 24.910156 6.605469 24 7.007812 C 23.539062 7.273438 23.039062 7.417969 22.507812 7.445312 C 22.234375 7.371094 21.820312 6.8125 21.492188 6.359375 C 20.914062 5.582031 20.261719 4.699219 19.324219 4.699219 C 18.386719 4.699219 17.734375 5.582031 17.164062 6.359375 C 16.828125 6.8125 16.417969 7.378906 16.144531 7.449219 C 15.613281 7.417969 15.117188 7.269531 14.652344 7.011719 C 13.738281 6.605469 12.789062 6.203125 12.011719 6.65625 C 11.230469 7.113281 11.097656 8.148438 10.984375 9.152344 C 10.980469 9.671875 10.863281 10.167969 10.632812 10.636719 C 10.164062 10.867188 9.671875 10.984375 9.152344 10.984375 C 8.152344 11.097656 7.121094 11.214844 6.664062 12.003906 C 6.203125 12.792969 6.605469 13.738281 7.007812 14.648438 C 7.273438 15.113281 7.417969 15.613281 7.445312 16.144531 C 7.371094 16.417969 6.8125 16.835938 6.359375 17.164062 C 5.582031 17.734375 4.699219 18.386719 4.699219 19.324219 C 4.699219 20.261719 5.582031 20.914062 6.363281 21.488281 C 6.8125 21.820312 7.378906 22.234375 7.449219 22.503906 C 7.417969 23.035156 7.273438 23.53125 7.011719 23.996094 C 6.613281 24.90625 6.203125 25.851562 6.660156 26.632812 C 7.113281 27.417969 8.148438 27.546875 9.144531 27.652344 C 9.667969 27.65625 10.164062 27.773438 10.632812 28.007812 C 10.867188 28.476562 10.984375 28.972656 10.984375 29.5 C 11.097656 30.496094 11.214844 31.523438 12.003906 31.984375 C 12.792969 32.445312 13.730469 32.03125 14.640625 31.632812 C 15.109375 31.375 15.609375 31.230469 16.144531 31.203125 C 16.417969 31.273438 16.832031 31.835938 17.164062 32.289062 C 17.734375 33.066406 18.386719 33.949219 19.324219 33.949219 C 20.261719 33.949219 20.914062 33.066406 21.488281 32.289062 C 21.820312 31.835938 22.234375 31.269531 22.503906 31.199219 C 23.035156 31.230469 23.53125 31.375 23.996094 31.636719 C 24.90625 32.035156 25.851562 32.441406 26.632812 31.988281 C 27.417969 31.539062 27.546875 30.5 27.660156 29.503906 C 27.664062 28.980469 27.78125 28.484375 28.011719 28.015625 C 28.480469 27.785156 28.976562 27.667969 29.5 27.664062 C 30.496094 27.550781 31.527344 27.4375 31.984375 26.644531 C 32.445312 25.855469 32.03125 24.917969 31.636719 24.007812 C 31.371094 23.539062 31.226562 23.039062 31.203125 22.503906 C 31.277344 22.230469 31.839844 21.816406 32.289062 21.488281 C 33.066406 20.914062 33.949219 20.261719 33.949219 19.324219 C 33.949219 18.386719 33.066406 17.734375 32.289062 17.164062 Z M 32.289062 17.164062 "/>
</g>
<path style=" stroke:none;fill-rule:nonzero;fill:rgb(98.039246%,98.039246%,98.039246%);fill-opacity:1;" d="M 26.730469 20.703125 C 26.585938 20.703125 26.453125 20.65625 26.339844 20.566406 C 26.226562 20.476562 26.148438 20.363281 26.113281 20.222656 L 24.863281 15.292969 C 24.820312 15.125 24.84375 14.960938 24.929688 14.8125 C 25.019531 14.660156 25.152344 14.566406 25.320312 14.519531 L 27.785156 13.894531 C 27.957031 13.851562 28.117188 13.875 28.265625 13.964844 C 28.417969 14.054688 28.515625 14.183594 28.558594 14.355469 C 28.601562 14.523438 28.578125 14.683594 28.488281 14.835938 C 28.398438 14.988281 28.269531 15.085938 28.097656 15.128906 L 26.25 15.597656 L 27.191406 19.296875 L 29.039062 18.824219 C 29.210938 18.777344 29.375 18.800781 29.527344 18.886719 C 29.683594 18.976562 29.78125 19.109375 29.824219 19.28125 C 29.871094 19.453125 29.84375 19.617188 29.753906 19.769531 C 29.660156 19.921875 29.527344 20.019531 29.351562 20.058594 L 26.886719 20.683594 C 26.835938 20.699219 26.78125 20.703125 26.730469 20.703125 Z M 26.730469 20.703125 "/>
<path style=" stroke:none;fill-rule:nonzero;fill:rgb(98.039246%,98.039246%,98.039246%);fill-opacity:1;" d="M 26.101562 18.238281 C 25.941406 18.238281 25.804688 18.183594 25.683594 18.078125 C 25.566406 17.972656 25.496094 17.839844 25.476562 17.679688 C 25.457031 17.523438 25.488281 17.375 25.578125 17.242188 C 25.667969 17.113281 25.792969 17.027344 25.945312 16.984375 L 27.179688 16.671875 C 27.351562 16.625 27.515625 16.644531 27.667969 16.734375 C 27.824219 16.824219 27.921875 16.953125 27.96875 17.128906 C 28.011719 17.300781 27.984375 17.464844 27.894531 17.617188 C 27.800781 17.769531 27.667969 17.863281 27.492188 17.902344 L 26.257812 18.21875 C 26.207031 18.230469 26.15625 18.238281 26.101562 18.238281 Z M 26.101562 18.238281 "/>
<path style=" stroke:none;fill-rule:nonzero;fill:rgb(98.039246%,98.039246%,98.039246%);fill-opacity:1;" d="M 12.554688 24.304688 C 12.335938 24.304688 12.160156 24.214844 12.035156 24.035156 L 8.933594 19.578125 C 8.824219 19.433594 8.78125 19.273438 8.8125 19.09375 C 8.839844 18.917969 8.925781 18.777344 9.074219 18.671875 C 9.222656 18.570312 9.386719 18.535156 9.5625 18.570312 C 9.742188 18.605469 9.878906 18.699219 9.976562 18.851562 L 12.109375 21.921875 L 12.519531 18.207031 C 12.535156 18.03125 12.613281 17.886719 12.75 17.777344 C 12.886719 17.664062 13.042969 17.617188 13.21875 17.636719 C 13.394531 17.65625 13.539062 17.734375 13.648438 17.875 C 13.757812 18.011719 13.804688 18.167969 13.78125 18.34375 L 13.1875 23.746094 C 13.15625 24.039062 12.996094 24.21875 12.710938 24.292969 C 12.660156 24.304688 12.609375 24.308594 12.554688 24.304688 Z M 12.554688 24.304688 "/>
<path style=" stroke:none;fill-rule:nonzero;fill:rgb(98.039246%,98.039246%,98.039246%);fill-opacity:1;" d="M 17.789062 22.933594 C 17.355469 22.933594 16.964844 22.800781 16.617188 22.535156 C 16.273438 22.265625 16.046875 21.921875 15.941406 21.496094 L 15.316406 19.03125 C 15.242188 18.785156 15.222656 18.53125 15.253906 18.273438 C 15.285156 18.019531 15.363281 17.777344 15.492188 17.554688 C 15.621094 17.332031 15.789062 17.140625 15.992188 16.984375 C 16.199219 16.828125 16.425781 16.71875 16.675781 16.65625 C 16.929688 16.589844 17.179688 16.578125 17.4375 16.617188 C 17.691406 16.65625 17.929688 16.742188 18.148438 16.878906 C 18.367188 17.015625 18.554688 17.1875 18.703125 17.398438 C 18.851562 17.609375 18.953125 17.839844 19.011719 18.09375 L 19.636719 20.558594 C 19.710938 20.84375 19.714844 21.128906 19.65625 21.417969 C 19.597656 21.703125 19.476562 21.964844 19.296875 22.199219 C 19.113281 22.429688 18.894531 22.609375 18.628906 22.738281 C 18.363281 22.871094 18.085938 22.933594 17.789062 22.933594 Z M 17.164062 17.925781 C 17.109375 17.925781 17.054688 17.933594 17.003906 17.945312 C 16.835938 17.988281 16.707031 18.085938 16.617188 18.238281 C 16.527344 18.386719 16.503906 18.546875 16.546875 18.71875 L 17.171875 21.183594 C 17.214844 21.351562 17.3125 21.484375 17.464844 21.574219 C 17.613281 21.664062 17.773438 21.6875 17.945312 21.640625 C 18.117188 21.597656 18.246094 21.5 18.335938 21.351562 C 18.425781 21.199219 18.449219 21.039062 18.40625 20.867188 L 17.777344 18.402344 C 17.742188 18.261719 17.667969 18.148438 17.550781 18.058594 C 17.4375 17.96875 17.308594 17.925781 17.164062 17.925781 Z M 17.164062 17.925781 "/>
<path style=" stroke:none;fill-rule:nonzero;fill:rgb(98.039246%,98.039246%,98.039246%);fill-opacity:1;" d="M 23.03125 21.640625 C 22.886719 21.640625 22.757812 21.597656 22.644531 21.507812 C 22.527344 21.417969 22.453125 21.304688 22.417969 21.164062 L 21.164062 16.234375 C 21.121094 16.0625 21.144531 15.902344 21.234375 15.753906 C 21.324219 15.601562 21.453125 15.507812 21.625 15.464844 C 21.792969 15.417969 21.953125 15.441406 22.105469 15.53125 C 22.253906 15.621094 22.351562 15.75 22.394531 15.917969 L 23.648438 20.851562 C 23.691406 21.019531 23.667969 21.179688 23.578125 21.332031 C 23.488281 21.484375 23.359375 21.582031 23.1875 21.625 C 23.136719 21.636719 23.085938 21.640625 23.03125 21.640625 Z M 23.03125 21.640625 "/>
<path style=" stroke:none;fill-rule:nonzero;fill:rgb(98.039246%,98.039246%,98.039246%);fill-opacity:1;" d="M 19.929688 17.179688 C 19.769531 17.179688 19.632812 17.128906 19.511719 17.019531 C 19.394531 16.914062 19.324219 16.78125 19.304688 16.625 C 19.285156 16.464844 19.320312 16.320312 19.40625 16.1875 C 19.496094 16.054688 19.621094 15.96875 19.773438 15.929688 L 23.472656 14.992188 C 23.640625 14.953125 23.796875 14.976562 23.945312 15.066406 C 24.09375 15.15625 24.1875 15.285156 24.230469 15.453125 C 24.273438 15.621094 24.25 15.78125 24.164062 15.929688 C 24.078125 16.078125 23.949219 16.175781 23.785156 16.222656 L 20.085938 17.164062 C 20.035156 17.175781 19.984375 17.183594 19.929688 17.179688 Z M 19.929688 17.179688 "/>
<g clip-path="url(#clip2)" clip-rule="nonzero">
<path style=" stroke:none;fill-rule:nonzero;fill:rgb(100%,100%,100%);fill-opacity:1;" d="M 19.324219 33.949219 C 18.386719 33.949219 17.734375 33.066406 17.164062 32.289062 C 16.828125 31.835938 16.417969 31.269531 16.144531 31.203125 C 15.613281 31.234375 15.117188 31.378906 14.652344 31.640625 C 13.742188 32.035156 12.792969 32.445312 12.011719 31.992188 C 11.234375 31.535156 11.101562 30.5 10.996094 29.503906 C 10.992188 28.980469 10.875 28.484375 10.640625 28.019531 C 10.171875 27.785156 9.675781 27.667969 9.152344 27.664062 C 8.15625 27.550781 7.125 27.4375 6.664062 26.644531 C 6.207031 25.855469 6.605469 24.910156 7.007812 24 C 7.273438 23.535156 7.417969 23.035156 7.445312 22.503906 C 7.371094 22.230469 6.8125 21.816406 6.359375 21.488281 C 5.582031 20.914062 4.699219 20.261719 4.699219 19.324219 C 4.699219 18.386719 5.582031 17.734375 6.363281 17.164062 C 6.8125 16.832031 7.378906 16.414062 7.449219 16.144531 C 7.417969 15.613281 7.273438 15.117188 7.011719 14.652344 C 6.605469 13.738281 6.203125 12.792969 6.65625 12.007812 C 7.113281 11.226562 8.148438 11.097656 9.152344 10.984375 C 9.671875 10.980469 10.167969 10.863281 10.636719 10.632812 C 10.867188 10.164062 10.984375 9.671875 10.984375 9.152344 C 11.097656 8.152344 11.214844 7.125 12.011719 6.664062 C 12.808594 6.203125 13.738281 6.605469 14.648438 7.007812 C 15.113281 7.269531 15.613281 7.417969 16.144531 7.449219 C 16.417969 7.375 16.832031 6.8125 17.164062 6.359375 C 17.734375 5.582031 18.386719 4.699219 19.324219 4.699219 C 20.261719 4.699219 20.914062 5.582031 21.488281 6.359375 C 21.820312 6.8125 22.234375 7.378906 22.503906 7.445312 C 23.035156 7.417969 23.535156 7.273438 23.996094 7.007812 C 24.90625 6.613281 25.855469 6.203125 26.636719 6.65625 C 27.417969 7.113281 27.546875 8.148438 27.652344 9.144531 C 27.65625 9.667969 27.773438 10.164062 28.007812 10.632812 C 28.476562 10.863281 28.972656 10.984375 29.5 10.984375 C 30.496094 11.097656 31.527344 11.214844 31.984375 12.003906 C 32.445312 12.792969 32.042969 13.738281 31.640625 14.648438 C 31.375 15.113281 31.230469 15.613281 31.203125 16.144531 C 31.277344 16.417969 31.839844 16.835938 32.289062 17.164062 C 33.066406 17.734375 33.949219 18.386719 33.949219 19.324219 C 33.949219 20.261719 33.066406 20.914062 32.289062 21.488281 C 31.839844 21.820312 31.269531 22.234375 31.203125 22.503906 C 31.230469 23.035156 31.378906 23.53125 31.640625 23.996094 C 32.035156 24.90625 32.445312 25.851562 31.992188 26.632812 C 31.535156 27.417969 30.5 27.546875 29.503906 27.652344 C 28.980469 27.65625 28.484375 27.773438 28.015625 28.007812 C 27.785156 28.476562 27.667969 28.972656 27.664062 29.5 C 27.550781 30.496094 27.4375 31.527344 26.636719 31.984375 C 25.839844 32.445312 24.910156 32.03125 24 31.632812 C 23.539062 31.371094 23.039062 31.222656 22.507812 31.195312 C 22.234375 31.269531 21.820312 31.832031 21.492188 32.285156 C 20.914062 33.066406 20.261719 33.949219 19.324219 33.949219 Z M 16.027344 29.917969 C 16.175781 29.917969 16.324219 29.9375 16.46875 29.972656 C 17.210938 30.304688 17.78125 30.824219 18.179688 31.53125 C 18.515625 31.988281 19.023438 32.679688 19.324219 32.679688 C 19.625 32.679688 20.128906 31.988281 20.460938 31.53125 C 20.863281 30.820312 21.433594 30.300781 22.179688 29.972656 C 23.011719 29.878906 23.789062 30.046875 24.507812 30.472656 C 25.015625 30.691406 25.78125 31.019531 26.003906 30.886719 C 26.226562 30.757812 26.339844 29.914062 26.402344 29.363281 C 26.390625 28.535156 26.628906 27.785156 27.117188 27.117188 C 27.789062 26.628906 28.535156 26.386719 29.363281 26.398438 C 29.917969 26.335938 30.753906 26.242188 30.890625 26 C 31.027344 25.761719 30.691406 25.011719 30.472656 24.507812 C 30.046875 23.785156 29.878906 23.011719 29.972656 22.179688 C 30.304688 21.4375 30.824219 20.867188 31.53125 20.46875 C 31.988281 20.132812 32.679688 19.625 32.679688 19.324219 C 32.679688 19.023438 31.988281 18.523438 31.53125 18.179688 C 30.824219 17.78125 30.300781 17.210938 29.972656 16.464844 C 29.878906 15.632812 30.046875 14.855469 30.472656 14.136719 C 30.691406 13.628906 31.023438 12.871094 30.890625 12.640625 C 30.757812 12.414062 29.914062 12.308594 29.363281 12.246094 C 28.535156 12.253906 27.789062 12.015625 27.117188 11.523438 C 26.628906 10.855469 26.390625 10.109375 26.398438 9.28125 C 26.335938 8.726562 26.242188 7.890625 26.003906 7.753906 C 25.761719 7.617188 25.015625 7.953125 24.507812 8.171875 C 23.789062 8.597656 23.011719 8.765625 22.179688 8.671875 C 21.4375 8.34375 20.867188 7.824219 20.46875 7.117188 C 20.132812 6.660156 19.625 5.972656 19.324219 5.972656 C 19.023438 5.972656 18.523438 6.660156 18.1875 7.117188 C 17.785156 7.824219 17.214844 8.34375 16.46875 8.675781 C 15.636719 8.765625 14.863281 8.601562 14.140625 8.175781 C 13.632812 7.957031 12.871094 7.625 12.648438 7.757812 C 12.40625 7.898438 12.3125 8.734375 12.25 9.285156 C 12.261719 10.113281 12.023438 10.859375 11.53125 11.527344 C 10.863281 12.019531 10.117188 12.257812 9.289062 12.25 C 8.734375 12.3125 7.898438 12.40625 7.761719 12.644531 C 7.625 12.886719 7.960938 13.636719 8.179688 14.140625 C 8.605469 14.859375 8.769531 15.636719 8.679688 16.46875 C 8.347656 17.210938 7.828125 17.78125 7.117188 18.179688 C 6.660156 18.515625 5.972656 19.023438 5.972656 19.324219 C 5.972656 19.625 6.660156 20.125 7.117188 20.46875 C 7.828125 20.867188 8.347656 21.441406 8.675781 22.183594 C 8.769531 23.015625 8.601562 23.792969 8.175781 24.511719 C 7.957031 25.023438 7.625 25.777344 7.757812 26.007812 C 7.894531 26.238281 8.734375 26.34375 9.285156 26.402344 C 10.113281 26.394531 10.863281 26.632812 11.53125 27.125 C 12.019531 27.792969 12.257812 28.539062 12.25 29.367188 C 12.3125 29.921875 12.40625 30.757812 12.648438 30.894531 C 12.886719 31.03125 13.632812 30.699219 14.140625 30.476562 C 14.734375 30.167969 15.363281 29.980469 16.027344 29.917969 Z M 16.027344 29.917969 "/>
</g>
<path style=" stroke:none;fill-rule:nonzero;fill:rgb(100%,100%,100%);fill-opacity:1;" d="M 26.730469 20.703125 C 26.585938 20.703125 26.453125 20.65625 26.339844 20.566406 C 26.226562 20.476562 26.148438 20.363281 26.113281 20.222656 L 24.863281 15.292969 C 24.820312 15.125 24.84375 14.960938 24.929688 14.8125 C 25.019531 14.660156 25.152344 14.566406 25.320312 14.519531 L 27.785156 13.894531 C 27.957031 13.851562 28.117188 13.875 28.265625 13.964844 C 28.417969 14.054688 28.515625 14.183594 28.558594 14.355469 C 28.601562 14.523438 28.578125 14.683594 28.488281 14.835938 C 28.398438 14.988281 28.269531 15.085938 28.097656 15.128906 L 26.25 15.597656 L 27.191406 19.296875 L 29.039062 18.824219 C 29.210938 18.777344 29.375 18.800781 29.527344 18.886719 C 29.683594 18.976562 29.78125 19.109375 29.824219 19.28125 C 29.871094 19.453125 29.84375 19.617188 29.753906 19.769531 C 29.660156 19.921875 29.527344 20.019531 29.351562 20.058594 L 26.886719 20.683594 C 26.835938 20.699219 26.78125 20.703125 26.730469 20.703125 Z M 26.730469 20.703125 "/>
<path style=" stroke:none;fill-rule:nonzero;fill:rgb(100%,100%,100%);fill-opacity:1;" d="M 26.101562 18.238281 C 25.941406 18.238281 25.804688 18.183594 25.683594 18.078125 C 25.566406 17.972656 25.496094 17.839844 25.476562 17.679688 C 25.457031 17.523438 25.488281 17.375 25.578125 17.242188 C 25.667969 17.113281 25.792969 17.027344 25.945312 16.984375 L 27.179688 16.671875 C 27.351562 16.625 27.515625 16.644531 27.667969 16.734375 C 27.824219 16.824219 27.921875 16.953125 27.96875 17.128906 C 28.011719 17.300781 27.984375 17.464844 27.894531 17.617188 C 27.800781 17.769531 27.667969 17.863281 27.492188 17.902344 L 26.257812 18.21875 C 26.207031 18.230469 26.15625 18.238281 26.101562 18.238281 Z M 26.101562 18.238281 "/>
<path style=" stroke:none;fill-rule:nonzero;fill:rgb(100%,100%,100%);fill-opacity:1;" d="M 12.554688 24.304688 C 12.335938 24.304688 12.160156 24.214844 12.035156 24.035156 L 8.933594 19.578125 C 8.824219 19.433594 8.78125 19.273438 8.8125 19.09375 C 8.839844 18.917969 8.925781 18.777344 9.074219 18.671875 C 9.222656 18.570312 9.386719 18.535156 9.5625 18.570312 C 9.742188 18.605469 9.878906 18.699219 9.976562 18.851562 L 12.109375 21.921875 L 12.519531 18.207031 C 12.535156 18.03125 12.613281 17.886719 12.75 17.777344 C 12.886719 17.664062 13.042969 17.617188 13.21875 17.636719 C 13.394531 17.65625 13.539062 17.734375 13.648438 17.875 C 13.757812 18.011719 13.804688 18.167969 13.78125 18.34375 L 13.1875 23.746094 C 13.15625 24.039062 12.996094 24.21875 12.710938 24.292969 C 12.660156 24.304688 12.609375 24.308594 12.554688 24.304688 Z M 12.554688 24.304688 "/>
<path style=" stroke:none;fill-rule:nonzero;fill:rgb(100%,100%,100%);fill-opacity:1;" d="M 17.789062 22.933594 C 17.355469 22.933594 16.964844 22.800781 16.617188 22.535156 C 16.273438 22.265625 16.046875 21.921875 15.941406 21.496094 L 15.316406 19.03125 C 15.242188 18.785156 15.222656 18.53125 15.253906 18.273438 C 15.285156 18.019531 15.363281 17.777344 15.492188 17.554688 C 15.621094 17.332031 15.789062 17.140625 15.992188 16.984375 C 16.199219 16.828125 16.425781 16.71875 16.675781 16.65625 C 16.929688 16.589844 17.179688 16.578125 17.4375 16.617188 C 17.691406 16.65625 17.929688 16.742188 18.148438 16.878906 C 18.367188 17.015625 18.554688 17.1875 18.703125 17.398438 C 18.851562 17.609375 18.953125 17.839844 19.011719 18.09375 L 19.636719 20.558594 C 19.710938 20.84375 19.714844 21.128906 19.65625 21.417969 C 19.597656 21.703125 19.476562 21.964844 19.296875 22.199219 C 19.113281 22.429688 18.894531 22.609375 18.628906 22.738281 C 18.363281 22.871094 18.085938 22.933594 17.789062 22.933594 Z M 17.164062 17.925781 C 17.109375 17.925781 17.054688 17.933594 17.003906 17.945312 C 16.835938 17.988281 16.707031 18.085938 16.617188 18.238281 C 16.527344 18.386719 16.503906 18.546875 16.546875 18.71875 L 17.171875 21.183594 C 17.214844 21.351562 17.3125 21.484375 17.464844 21.574219 C 17.613281 21.664062 17.773438 21.6875 17.945312 21.640625 C 18.117188 21.597656 18.246094 21.5 18.335938 21.351562 C 18.425781 21.199219 18.449219 21.039062 18.40625 20.867188 L 17.777344 18.402344 C 17.742188 18.261719 17.667969 18.148438 17.550781 18.058594 C 17.4375 17.96875 17.308594 17.925781 17.164062 17.925781 Z M 17.164062 17.925781 "/>
<path style=" stroke:none;fill-rule:nonzero;fill:rgb(100%,100%,100%);fill-opacity:1;" d="M 23.03125 21.640625 C 22.886719 21.640625 22.757812 21.597656 22.644531 21.507812 C 22.527344 21.417969 22.453125 21.304688 22.417969 21.164062 L 21.164062 16.234375 C 21.121094 16.0625 21.144531 15.902344 21.234375 15.753906 C 21.324219 15.601562 21.453125 15.507812 21.625 15.464844 C 21.792969 15.417969 21.953125 15.441406 22.105469 15.53125 C 22.253906 15.621094 22.351562 15.75 22.394531 15.917969 L 23.648438 20.851562 C 23.691406 21.019531 23.667969 21.179688 23.578125 21.332031 C 23.488281 21.484375 23.359375 21.582031 23.1875 21.625 C 23.136719 21.636719 23.085938 21.640625 23.03125 21.640625 Z M 23.03125 21.640625 "/>
<path style=" stroke:none;fill-rule:nonzero;fill:rgb(100%,100%,100%);fill-opacity:1;" d="M 19.929688 17.179688 C 19.769531 17.179688 19.632812 17.128906 19.511719 17.019531 C 19.394531 16.914062 19.324219 16.78125 19.304688 16.625 C 19.285156 16.464844 19.320312 16.320312 19.40625 16.1875 C 19.496094 16.054688 19.621094 15.96875 19.773438 15.929688 L 23.472656 14.992188 C 23.640625 14.953125 23.796875 14.976562 23.945312 15.066406 C 24.09375 15.15625 24.1875 15.285156 24.230469 15.453125 C 24.273438 15.621094 24.25 15.78125 24.164062 15.929688 C 24.078125 16.078125 23.949219 16.175781 23.785156 16.222656 L 20.085938 17.164062 C 20.035156 17.175781 19.984375 17.183594 19.929688 17.179688 Z M 19.929688 17.179688 "/>
</g>
</svg>
