<?xml version="1.0" encoding="UTF-8"?>
<svg xmlns="http://www.w3.org/2000/svg" xmlns:xlink="http://www.w3.org/1999/xlink" width="39pt" height="38.999999pt" viewBox="0 0 39 38.999999" version="1.2">
<defs>
<clipPath id="clip1">
  <path d="M 6.691406 6.671875 L 32.191406 6.671875 L 32.191406 35.171875 L 6.691406 35.171875 Z M 6.691406 6.671875 "/>
</clipPath>
</defs>
<g id="surface1">
<path style=" stroke:none;fill-rule:nonzero;fill:rgb(22.349548%,20.779419%,21.179199%);fill-opacity:1;" d="M 19.5 0 C 18.863281 0 18.222656 0.03125 17.589844 0.09375 C 16.953125 0.15625 16.320312 0.25 15.695312 0.375 C 15.070312 0.5 14.449219 0.652344 13.839844 0.839844 C 13.226562 1.023438 12.628906 1.238281 12.039062 1.484375 C 11.449219 1.730469 10.871094 2 10.308594 2.300781 C 9.746094 2.605469 9.199219 2.929688 8.667969 3.285156 C 8.136719 3.640625 7.621094 4.019531 7.128906 4.425781 C 6.636719 4.832031 6.164062 5.261719 5.710938 5.710938 C 5.261719 6.164062 4.832031 6.636719 4.425781 7.128906 C 4.019531 7.621094 3.640625 8.136719 3.285156 8.667969 C 2.929688 9.199219 2.605469 9.746094 2.300781 10.308594 C 2 10.871094 1.730469 11.449219 1.484375 12.039062 C 1.238281 12.628906 1.023438 13.226562 0.839844 13.839844 C 0.652344 14.449219 0.5 15.070312 0.375 15.695312 C 0.25 16.320312 0.15625 16.953125 0.09375 17.589844 C 0.03125 18.222656 0 18.863281 0 19.5 C 0 20.136719 0.03125 20.777344 0.09375 21.410156 C 0.15625 22.046875 0.25 22.679688 0.375 23.304688 C 0.5 23.929688 0.652344 24.550781 0.839844 25.160156 C 1.023438 25.773438 1.238281 26.371094 1.484375 26.960938 C 1.730469 27.550781 2 28.128906 2.300781 28.691406 C 2.605469 29.253906 2.929688 29.800781 3.285156 30.332031 C 3.640625 30.863281 4.019531 31.378906 4.425781 31.871094 C 4.832031 32.363281 5.261719 32.835938 5.710938 33.289062 C 6.164062 33.738281 6.636719 34.167969 7.128906 34.574219 C 7.621094 34.980469 8.136719 35.359375 8.667969 35.714844 C 9.199219 36.070312 9.746094 36.394531 10.308594 36.699219 C 10.871094 37 11.449219 37.269531 12.039062 37.515625 C 12.628906 37.761719 13.226562 37.976562 13.839844 38.160156 C 14.449219 38.347656 15.070312 38.5 15.695312 38.625 C 16.320312 38.75 16.953125 38.84375 17.589844 38.90625 C 18.222656 38.96875 18.863281 39 19.5 39 C 20.136719 39 20.777344 38.96875 21.410156 38.90625 C 22.046875 38.84375 22.679688 38.75 23.304688 38.625 C 23.929688 38.5 24.550781 38.347656 25.160156 38.160156 C 25.773438 37.976562 26.371094 37.761719 26.960938 37.515625 C 27.550781 37.269531 28.128906 37 28.691406 36.699219 C 29.253906 36.394531 29.800781 36.070312 30.332031 35.714844 C 30.863281 35.359375 31.378906 34.980469 31.871094 34.574219 C 32.363281 34.167969 32.835938 33.738281 33.289062 33.289062 C 33.738281 32.835938 34.167969 32.363281 34.574219 31.871094 C 34.980469 31.378906 35.359375 30.863281 35.714844 30.332031 C 36.070312 29.800781 36.394531 29.253906 36.699219 28.691406 C 37 28.128906 37.269531 27.550781 37.515625 26.960938 C 37.761719 26.371094 37.976562 25.773438 38.160156 25.160156 C 38.347656 24.550781 38.5 23.929688 38.625 23.304688 C 38.75 22.679688 38.84375 22.046875 38.90625 21.410156 C 38.96875 20.777344 39 20.136719 39 19.5 C 39 18.863281 38.96875 18.222656 38.90625 17.589844 C 38.84375 16.953125 38.75 16.320312 38.625 15.695312 C 38.5 15.070312 38.347656 14.449219 38.160156 13.839844 C 37.976562 13.226562 37.761719 12.628906 37.515625 12.039062 C 37.269531 11.449219 37 10.871094 36.699219 10.308594 C 36.394531 9.746094 36.070312 9.199219 35.714844 8.667969 C 35.359375 8.136719 34.980469 7.621094 34.574219 7.128906 C 34.167969 6.636719 33.738281 6.164062 33.289062 5.710938 C 32.835938 5.261719 32.363281 4.832031 31.871094 4.425781 C 31.378906 4.019531 30.863281 3.640625 30.332031 3.285156 C 29.800781 2.929688 29.253906 2.605469 28.691406 2.300781 C 28.128906 2 27.550781 1.730469 26.960938 1.484375 C 26.371094 1.238281 25.773438 1.023438 25.160156 0.839844 C 24.550781 0.652344 23.929688 0.5 23.304688 0.375 C 22.679688 0.25 22.046875 0.15625 21.410156 0.09375 C 20.777344 0.03125 20.136719 0 19.5 0 Z M 19.5 0 "/>
<g clip-path="url(#clip1)" clip-rule="nonzero">
<path style=" stroke:none;fill-rule:nonzero;fill:rgb(100%,100%,100%);fill-opacity:1;" d="M 31.464844 9.515625 L 20.855469 9.515625 L 20.855469 8.089844 C 20.855469 7.902344 20.820312 7.722656 20.746094 7.546875 C 20.675781 7.371094 20.574219 7.21875 20.441406 7.082031 C 20.308594 6.949219 20.15625 6.847656 19.980469 6.773438 C 19.808594 6.703125 19.628906 6.667969 19.441406 6.667969 C 19.253906 6.667969 19.070312 6.703125 18.898438 6.773438 C 18.726562 6.847656 18.574219 6.949219 18.441406 7.082031 C 18.308594 7.21875 18.203125 7.371094 18.132812 7.546875 C 18.0625 7.722656 18.023438 7.902344 18.023438 8.089844 L 18.023438 9.515625 L 7.414062 9.515625 C 7.21875 9.515625 7.054688 9.585938 6.914062 9.726562 C 6.777344 9.863281 6.707031 10.03125 6.707031 10.230469 L 6.707031 25.90625 C 6.707031 26.105469 6.777344 26.273438 6.914062 26.410156 C 7.054688 26.550781 7.21875 26.621094 7.414062 26.621094 L 18.023438 26.621094 L 18.023438 34.460938 C 18.023438 34.65625 18.09375 34.824219 18.234375 34.964844 C 18.371094 35.101562 18.539062 35.171875 18.734375 35.171875 L 20.148438 35.171875 C 20.34375 35.171875 20.507812 35.101562 20.648438 34.964844 C 20.785156 34.824219 20.855469 34.65625 20.855469 34.460938 L 20.855469 26.621094 L 31.464844 26.621094 C 31.660156 26.621094 31.828125 26.550781 31.964844 26.410156 C 32.101562 26.273438 32.171875 26.105469 32.171875 25.90625 L 32.171875 10.230469 C 32.171875 10.03125 32.101562 9.863281 31.964844 9.726562 C 31.828125 9.585938 31.660156 9.515625 31.464844 9.515625 Z M 12.355469 21.773438 C 12.320312 21.941406 12.238281 22.082031 12.109375 22.1875 C 11.980469 22.296875 11.828125 22.351562 11.660156 22.351562 C 11.488281 22.351562 11.339844 22.296875 11.207031 22.1875 C 11.078125 22.082031 10.996094 21.941406 10.964844 21.773438 L 9.550781 14.648438 C 9.511719 14.453125 9.546875 14.277344 9.652344 14.113281 C 9.761719 13.949219 9.910156 13.84375 10.101562 13.804688 C 10.292969 13.765625 10.472656 13.800781 10.636719 13.910156 C 10.796875 14.019531 10.898438 14.167969 10.9375 14.363281 L 11.660156 17.996094 L 12.378906 14.363281 C 12.421875 14.171875 12.523438 14.023438 12.683594 13.917969 C 12.84375 13.808594 13.019531 13.773438 13.207031 13.804688 C 13.402344 13.84375 13.554688 13.945312 13.664062 14.109375 C 13.773438 14.273438 13.808594 14.453125 13.769531 14.648438 Z M 14.84375 20.207031 L 14.84375 15.929688 C 14.84375 15.648438 14.894531 15.375 15.003906 15.113281 C 15.113281 14.851562 15.265625 14.621094 15.464844 14.417969 C 15.664062 14.21875 15.890625 14.0625 16.152344 13.957031 C 16.414062 13.847656 16.683594 13.792969 16.964844 13.792969 C 17.246094 13.792969 17.515625 13.847656 17.777344 13.957031 C 18.035156 14.0625 18.265625 14.21875 18.464844 14.417969 C 18.664062 14.621094 18.816406 14.851562 18.925781 15.113281 C 19.03125 15.375 19.085938 15.648438 19.085938 15.929688 L 19.085938 20.207031 C 19.085938 20.492188 19.03125 20.761719 18.925781 21.023438 C 18.816406 21.285156 18.664062 21.519531 18.464844 21.71875 C 18.265625 21.917969 18.035156 22.074219 17.777344 22.183594 C 17.515625 22.289062 17.246094 22.34375 16.964844 22.34375 C 16.683594 22.34375 16.414062 22.289062 16.152344 22.183594 C 15.890625 22.074219 15.664062 21.917969 15.464844 21.71875 C 15.265625 21.519531 15.113281 21.285156 15.003906 21.023438 C 14.894531 20.761719 14.84375 20.492188 14.84375 20.207031 Z M 23.683594 15.21875 L 22.976562 15.21875 L 22.976562 21.632812 C 22.976562 21.828125 22.90625 21.996094 22.769531 22.136719 C 22.632812 22.273438 22.464844 22.34375 22.269531 22.34375 C 22.074219 22.34375 21.90625 22.273438 21.769531 22.136719 C 21.632812 21.996094 21.5625 21.828125 21.5625 21.632812 L 21.5625 15.21875 L 20.855469 15.21875 C 20.660156 15.21875 20.492188 15.148438 20.355469 15.007812 C 20.214844 14.871094 20.148438 14.703125 20.148438 14.503906 C 20.148438 14.308594 20.214844 14.140625 20.355469 14 C 20.492188 13.863281 20.660156 13.792969 20.855469 13.792969 L 23.683594 13.792969 C 23.878906 13.792969 24.046875 13.863281 24.183594 14 C 24.324219 14.140625 24.390625 14.308594 24.390625 14.503906 C 24.390625 14.703125 24.324219 14.871094 24.183594 15.007812 C 24.046875 15.148438 23.878906 15.21875 23.683594 15.21875 Z M 28.28125 17.355469 C 28.476562 17.355469 28.644531 17.425781 28.78125 17.566406 C 28.921875 17.703125 28.988281 17.871094 28.988281 18.070312 C 28.988281 18.265625 28.921875 18.433594 28.78125 18.574219 C 28.644531 18.710938 28.476562 18.78125 28.28125 18.78125 L 26.867188 18.78125 L 26.867188 20.917969 L 28.28125 20.917969 C 28.476562 20.917969 28.644531 20.988281 28.78125 21.128906 C 28.921875 21.265625 28.988281 21.433594 28.988281 21.632812 C 28.988281 21.828125 28.921875 21.996094 28.78125 22.136719 C 28.644531 22.273438 28.476562 22.34375 28.28125 22.34375 L 26.160156 22.34375 C 25.964844 22.34375 25.796875 22.273438 25.660156 22.136719 C 25.523438 21.996094 25.453125 21.828125 25.453125 21.632812 L 25.453125 14.503906 C 25.453125 14.308594 25.523438 14.140625 25.660156 14 C 25.796875 13.863281 25.964844 13.792969 26.160156 13.792969 L 28.28125 13.792969 C 28.476562 13.792969 28.644531 13.863281 28.78125 14 C 28.921875 14.140625 28.988281 14.308594 28.988281 14.503906 C 28.988281 14.703125 28.921875 14.871094 28.78125 15.007812 C 28.644531 15.148438 28.476562 15.21875 28.28125 15.21875 L 26.867188 15.21875 L 26.867188 17.355469 Z M 28.28125 17.355469 "/>
</g>
<path style=" stroke:none;fill-rule:nonzero;fill:rgb(100%,100%,100%);fill-opacity:1;" d="M 16.964844 15.21875 C 16.769531 15.21875 16.601562 15.289062 16.464844 15.425781 C 16.324219 15.566406 16.257812 15.734375 16.257812 15.929688 L 16.257812 20.207031 C 16.257812 20.402344 16.324219 20.570312 16.464844 20.710938 C 16.601562 20.851562 16.769531 20.917969 16.964844 20.917969 C 17.160156 20.917969 17.328125 20.851562 17.464844 20.710938 C 17.601562 20.570312 17.671875 20.402344 17.671875 20.207031 L 17.671875 15.929688 C 17.671875 15.734375 17.601562 15.566406 17.464844 15.425781 C 17.328125 15.289062 17.160156 15.21875 16.964844 15.21875 Z M 16.964844 15.21875 "/>
</g>
</svg>
