<svg id="regular" enable-background="new 0 0 24 24" height="512" viewBox="0 0 24 24" width="512" xmlns="http://www.w3.org/2000/svg"><path d="m21.25 6h-.661c-1.963-2.818-5.134-4.5-8.589-4.5s-6.626 1.682-8.589 4.5h-.661c-1.517 0-2.75 1.233-2.75 2.75v6.5c0 1.517 1.233 2.75 2.75 2.75h.661c1.963 2.818 5.133 4.5 8.589 4.5s6.626-1.682 8.589-4.5h.661c1.517 0 2.75-1.233 2.75-2.75v-6.5c0-1.517-1.233-2.75-2.75-2.75zm-9.25-3c2.592 0 4.997 1.107 6.687 3h-13.374c1.69-1.893 4.095-3 6.687-3zm0 18c-2.592 0-4.997-1.107-6.687-3h13.374c-1.69 1.893-4.095 3-6.687 3zm10.5-5.75c0 .689-.561 1.25-1.25 1.25h-18.5c-.689 0-1.25-.561-1.25-1.25v-6.5c0-.689.561-1.25 1.25-1.25h18.5c.689 0 1.25.561 1.25 1.25z"/><path d="m6.585 9.579c-.369-.184-.819-.034-1.006.336l-1.079 2.158-1.079-2.158c-.186-.37-.635-.52-1.006-.335-.371.186-.521.636-.336 1.006l1.75 3.5c.127.253.387.414.671.414s.544-.161.671-.415l1.75-3.5c.185-.37.035-.82-.336-1.006z"/><path d="m10 9.5c-1.103 0-2 .897-2 2v1c0 1.103.897 2 2 2s2-.897 2-2v-1c0-1.103-.897-2-2-2zm.5 3c0 .276-.225.5-.5.5s-.5-.224-.5-.5v-1c0-.276.225-.5.5-.5s.5.224.5.5z"/><path d="m16.25 9.5h-2.5c-.414 0-.75.336-.75.75s.336.75.75.75h.5v2.75c0 .414.336.75.75.75s.75-.336.75-.75v-2.75h.5c.414 0 .75-.336.75-.75s-.336-.75-.75-.75z"/><path d="m20.25 11c.414 0 .75-.336.75-.75s-.336-.75-.75-.75h-1.5c-.414 0-.75.336-.75.75v3.5c0 .414.336.75.75.75h1.5c.414 0 .75-.336.75-.75s-.336-.75-.75-.75h-.75v-.25h.75c.414 0 .75-.336.75-.75s-.336-.75-.75-.75h-.75v-.25z"/></svg>